/* XPM */
static char *entry_level_job_xpm[] = {
/* width height num_colors chars_per_pixel */
"64 64 9 1",
/* colors */
"  c None",
". c #805B00",
"X c #CBA518",
"o c #E4C141",
"O c #F3CE48",
"+ c #FFD94E",
"@ c #FFF3AD",
"# c #FFF7CB",
"$ c #FFF8CE",
/* pixels */
"                    OOOO@@@@################@@@@                ",
"                    OOOO@@@@################@@@@                ",
"                    OOOO@@@@################@@@@                ",
"                    OOOO@@@@################@@@@                ",
"                OOOO++++++++++++++++++++++++++++@@@@            ",
"                OOOO++++++++++++++++++++++++++++@@@@            ",
"                OOOO++++++++++++++++++++++++++++@@@@            ",
"                OOOO++++++++++++++++++++++++++++@@@@            ",
"            OOOO++++++++XXXXXXXXXXXXXXXXXXXX++++++++@@@@        ",
"            OOOO++++++++XXXXXXXXXXXXXXXXXXXX++++++++@@@@        ",
"            OOOO++++++++XXXXXXXXXXXXXXXXXXXX++++++++@@@@        ",
"            OOOO++++++++XXXXXXXXXXXXXXXXXXXX++++++++@@@@        ",
"        ....++++XXXXXXXX++++++++++++++++++++XXXX++++++++@@@@    ",
"        ....++++XXXXXXXX++++++++++++++++++++XXXX++++++++@@@@    ",
"        ....++++XXXXXXXX++++++++++++++++++++XXXX++++++++@@@@    ",
"        ....++++XXXXXXXX++++++++++++++++++++XXXX++++++++@@@@    ",
"        ....++++++++++++++++++++++++++++++++++++XXXX++++@@@@    ",
"        ....++++++++++++++++++++++++++++++++++++XXXX++++@@@@    ",
"        ....++++++++++++++++++++++++++++++++++++XXXX++++@@@@    ",
"        ....++++++++++++++++++++++++++++++++++++XXXX++++@@@@    ",
"    ....++++++++OOOO++++++++++++++++++++++++++++XXXX++++++++$$$$",
"    ....++++++++OOOO++++++++++++++++++++++++++++XXXX++++++++$$$$",
"    ....++++++++OOOO++++++++++++++++++++++++++++XXXX++++++++$$$$",
"    ....++++++++OOOO++++++++++++++++++++++++++++XXXX++++++++$$$$",
"    ....++++OOOO++++++++++++++++++++++++++++++++++++XXXX++++$$$$",
"    ....++++OOOO++++++++++++++++++++++++++++++++++++XXXX++++$$$$",
"    ....++++OOOO++++++++++++++++++++++++++++++++++++XXXX++++$$$$",
"    ....++++OOOO++++++++++++++++++++++++++++++++++++XXXX++++$$$$",
"    ....++++OOOO++++++++++++++++++++++++++++++++++++XXXX++++$$$$",
"    ....++++OOOO++++++++++++++++++++++++++++++++++++XXXX++++$$$$",
"    ....++++OOOO++++++++++++++++++++++++++++++++++++XXXX++++$$$$",
"    ....++++OOOO++++++++++++++++++++++++++++++++++++XXXX++++$$$$",
"    ....++++@@@@++++++++++++++++++++++++++++++++++++XXXX++++$$$$",
"    ....++++@@@@++++++++++++++++++++++++++++++++++++XXXX++++$$$$",
"    ....++++@@@@++++++++++++++++++++++++++++++++++++XXXX++++$$$$",
"    ....++++@@@@++++++++++++++++++++++++++++++++++++XXXX++++$$$$",
"    ....++++@@@@++++++++++++++++++++++++++++++++++++XXXX++++$$$$",
"    ....++++@@@@++++++++++++++++++++++++++++++++++++XXXX++++$$$$",
"    ....++++@@@@++++++++++++++++++++++++++++++++++++XXXX++++$$$$",
"    ....++++@@@@++++++++++++++++++++++++++++++++++++XXXX++++$$$$",
"    ....++++++++@@@@++++++++++++++++++++++++++++XXXX++++++++@@@@",
"    ....++++++++@@@@++++++++++++++++++++++++++++XXXX++++++++@@@@",
"    ....++++++++@@@@++++++++++++++++++++++++++++XXXX++++++++@@@@",
"    ....++++++++@@@@++++++++++++++++++++++++++++XXXX++++++++@@@@",
"        ....++++@@@@++++++++++++++++++++++++++++XXXX++++....    ",
"        ....++++@@@@++++++++++++++++++++++++++++XXXX++++....    ",
"        ....++++@@@@++++++++++++++++++++++++++++XXXX++++....    ",
"        ....++++@@@@++++++++++++++++++++++++++++XXXX++++....    ",
"        ....++++++++OOOO++++++++++++++++++++oooo++++++++....    ",
"        ....++++++++OOOO++++++++++++++++++++oooo++++++++....    ",
"        ....++++++++OOOO++++++++++++++++++++oooo++++++++....    ",
"        ....++++++++OOOO++++++++++++++++++++oooo++++++++....    ",
"            ....++++++++OOOOOOOO++++oooooooo++++++++....        ",
"            ....++++++++OOOOOOOO++++oooooooo++++++++....        ",
"            ....++++++++OOOOOOOO++++oooooooo++++++++....        ",
"            ....++++++++OOOOOOOO++++oooooooo++++++++....        ",
"                ....++++++++++++++++++++++++++++....            ",
"                ....++++++++++++++++++++++++++++....            ",
"                ....++++++++++++++++++++++++++++....            ",
"                ....++++++++++++++++++++++++++++....            ",
"                    ............................                ",
"                    ............................                ",
"                    ............................                ",
"                    ............................                ",
}; 