/* XPM */
static char *f685414b097d4c1aa9c56c7fa25c56abNIIhLLLbL8YseMBN[] = {
/* columns rows colors chars-per-pixel */
"64 64 98 2 ",
"   c #6B6664",
".  c #67676B",
"X  c #6E6E6E",
"o  c #726E6C",
"O  c #78706B",
"+  c #6B6C71",
"@  c #727275",
"#  c #797775",
"$  c #7E7A74",
"%  c #74757A",
"&  c #7D7C7B",
"*  c #887771",
"=  c #837A75",
"-  c #827E7C",
";  c #907F77",
":  c #84807E",
">  c #8B827D",
",  c #93867F",
"<  c #7D7E81",
"1  c #848383",
"2  c #8B8582",
"3  c #8D8986",
"4  c #84868A",
"5  c #87898E",
"6  c #8C8B8B",
"7  c #928A86",
"8  c #998C85",
"9  c #938E8B",
"0  c #998F8A",
"q  c #95918E",
"w  c #9B928D",
"e  c #8E8E90",
"r  c #908F90",
"t  c #959392",
"y  c #9B9592",
"u  c #9D9996",
"i  c #969699",
"p  c #9D9C9A",
"a  c #A3958D",
"s  c #A19792",
"d  c #A29A95",
"f  c #AA9E97",
"g  c #A39D9A",
"h  c #A99F9A",
"j  c #A5A19E",
"k  c #AAA29D",
"l  c #B0A49C",
"z  c #9D9EA1",
"x  c #A19FA0",
"c  c #9EA1A6",
"v  c #A5A3A2",
"b  c #AAA5A2",
"n  c #A7A8A7",
"m  c #ACA9A6",
"M  c #A8A7A8",
"N  c #A6A8A9",
"B  c #ADABAA",
"V  c #B0A6A1",
"C  c #B2AAA5",
"Z  c #B2ADAA",
"A  c #AEB0AD",
"S  c #B6B1A7",
"D  c #BAB1A5",
"F  c #B4B1AE",
"G  c #B9B3AE",
"H  c #B5B4B3",
"J  c #B5B5B4",
"K  c #B6B5B5",
"L  c #B8B4B0",
"P  c #BBB7B1",
"I  c #B8B5B2",
"U  c #BBB7B3",
"Y  c #BBB7B4",
"T  c #B7B8B7",
"R  c #BBB8B3",
"E  c #BCB9B3",
"W  c #BBB9B5",
"Q  c #BCB9B5",
"!  c #BFBCB7",
"~  c #BBBAB8",
"^  c #BBBBB9",
"/  c gray73",
"(  c #BEBBB9",
")  c #BFBCB8",
"_  c #BCBCBB",
"`  c #BDBDBC",
"'  c #BEBEBC",
"]  c #C1BCB6",
"[  c #C0BDB8",
"{  c #C0BDB9",
"}  c #C0BFBD",
"|  c #BFC0BE",
" . c #C1C0BD",
".. c #C2C1BE",
"X. c #BFC0C0",
"o. c #C2C2C0",
"O. c #C2C2C1",
"+. c #C8C6C3",
/* pixels */
"F F m Z Z Z F B Z B m b j v j j j j b m m m b g v g b g p v p p v v v b m b v v b m m b Z b n v n B B H H H K B B K B B v v < X ",
"B W R Q Q W W m Z W Q Q Q Q { b Z { Q ) Q { { Z U Q Q ( ) ) Z 6 b Y W W ) { { Z U ) ) } ) )  .B F ) ) ' ' ) | g m  .( ' B c i @ ",
"v { W Q W U W B C ! Q W Q U W g b E G U U W W b G Q W W U Q b < p Q Q Q ! ) Q B Z Q W ) ) ) ) b m ) W ( ) ) O.g b O.) ) ' B 5 @ ",
"v { Q Q R Q W b C Q ! ) { Q ) y j Q S U U U ( j Z W Y Q F Q H 4 t ) Q Q Q Q ) B C ) Q ) ) Q } b b ' W W ~ ) O.b Z O.W ~ ' ~ z @ ",
"v { Q R U R W j k Q Q ! { Q ) 9 f Q G U Q U Q j Z Q U W U U Y e p W Q W U Y Y B Z ) Q Q ) (  .v j ) W ~ ~ ~ O.v Z  .~ ( ~ ) ~ 1 ",
"v { E G G G U d b Q U U Q U Q 7 s R G U Y F U j C Q U U U U Y i g U Q Y U Q W v m ~ W W ( W  .p y ) ~ ~ W ~ ' b Z  .~ ~ ~ Y ~ 2 ",
"g  .{ Q Q Q { g d { R Q ) Q  .w f { Q Q Q U ( w h { Q U U U Y e v U ( ) W W ~ m C ) ~ ~ } ( | g j O.) ' ' ' ' b Z O.' O. .' ' 6 ",
"6 y d w y u d w d j d y 9 w y 7 0 g w d j j b y k m b m b g v 6 9 n v g y y g v j j b g g j g j g v v v g v B n b n g 2 y v j 6 ",
"g b k s y d s y k h h s w 0 y 0 0 w 8 0 s w h j C k f k s w j t y b v j j d g B Z j b j g g g m m g g g v b m b b b g 7 y m g 2 ",
"m  .{ { { E { j f ! ! ) { Q  .d h  .Q { Q Q { d k ) E U E { U 6 g F U W U U ) B F ) ) ) ) ( ( Z Q ' ~ ~ ( ) ' b C } '  .' ' T i ",
"b Q G U E G Q w 8 Q G U U U Q 3 9 Q F U U U Q w f U F Z Z F F 4 y U F Q Y U U q C ( Q W W W ~ b C ) ~ Y Y W ' g b } W ( ~ ~ ~ u ",
"m { U G G G Q w , Q U U U U ( 3 9 { U W U U U d k U U G Z Z F 4 q Q Q ) Q U U b h ) W Y Q ) ' v j ' W W W ~ ' v k } ( ( ( Y ) x ",
"v  .Q U U U Q y w Q E U E U ( y h ) Y U G F Q s k E G G G G U 6 9 { Q Q Q U U m C ( W Q { Q ) v b ' W W W ( ' b h } ( ( ( ~ ' p ",
"u { U ! Q E ( y s Q U E U G U y k W U Z F F Q d l Q G G G G U 1 y U G Q U U Q u y Y Y W Q Y ~ j j ( W W Y Y ) m k  .( ( ) ' } p ",
"g  .W U W Q W u j E Q { { Q Q d k { ( Q E Q { h C { Q E U Q F 6 y Q U { { ) } j g ( ~ W W Q ~ j h ) W ) ) ) ' m d  .) ) } ' O.v ",
"p j u q 3 y 9 q y 9 9 y 0 w g t f j j b k y d w f b g b b b v u g m g g y d y 9 9 y g d g d d g j g g g g g m v d b k Z F v b p ",
"y m j g d j h y w k s w w s h w d k f d w w s w d k f f k k b g m C C Z h g s 0 0 w d h b h j g j b h s j k Z j f Z V G Z g b u ",
"j  .{ Q { ] { p d Q F E U Q { d s E Q Q U G E d C { ] ] ] ] F p w { Q ! { { } F G { { ( { ( ) g k { { { { }  .m k O.) ( ' O.O.M ",
"g { U R U U Q d w W F U F F Y y d U G G U G G f k G G U G G F 6 * U U U Q U Q m C U U U Q Q Q g f } U Q { Q ' b f  .~ W W ~ } g ",
"b ) Q Q Y Y ( d d ( Q Q W U W y s { D D E G G s d U U U Z G Z 6 g Y U Q Q Q { b b Q Q U U Q ) j l  .U U { { O.j 0  .W W Q ' ' n ",
"m ( ( Q W W W g h W Q ) Q U W u f E D G G Z U d b Q U U G G F 6 b F U { Q U { j h { U Q { Q } j C { U W Q )  .C C ) W ) ) ' ' n ",
"d W W Q W Y W g g Z F W W U U u g U G U G F Q g b U U G G U F 6 j Q W ( { Q { b Z ( Q { Q Q ) j l { Q U Q Q ' m C ' W ~ ~ ~ X.v ",
"j ) Q Q W )  .g f W U ( ~ ( ) u y { Q Q Q U ( u b Q U Q Q W H e g { ( ) ) { } Z F  .{ { }  .O.C C } }  . .) O.m a O.' ' X.X.O.v ",
"q 9 q = 3 g p y y y q w 9 w y y y y d d d u b d v F F j j t 4 e j j s f w 7 d b m g j g y 9 t g d b j j g g m j ; j g u g g B p ",
"y j d d d j m g h d u y y y s s s w w w 9 s k g j Z Z b b j u 4 g g h f d w f g h f h j f w d d f b b g j j m b k k f y y w C p ",
"y W W ) Q Q ) g a { { ) ) W ) g w  .Q Q ! ! ) j b Q Q Q { ( B : 7 Z }  .) Q { Z C  .{  . . .+.m b  .{  .} ) O.m k } '  .' O.B p ",
"y U U U W W W j > W Q Q Q U W p y ) G U U W Q v b U G U Q Q F q 9 F Y  .Q G Q C k { Q Q Q Q ) b j { U Q Q Y ) j s } ( W W ( B u ",
"u F U U W Q ( m Z ! Q Q Q U W p y { Q Q Q ( ) j b G G U W { F 3 w F U Q { Q { Z k ] Q ! Q Q ) b j { U U Y Y ) b j } ) ( ( ' K i ",
"u B Q ( Q Q ) Z k ) R Q U W Q g u { E U W Q Q b b U E U U Q U 9 d m F F W U ( m h { Q Q Q Q ) m b { U U H Y ( v j ' ~ ~ ~ ' A i ",
"q F U W W Q ) p s Q Q Q W U Q v b Q U F W Q Q g j U U U U Q F y d Z B B H H F v g ] Q U U U W m j W Y W U U ~ n j ) W ~ ~ ' K e ",
"p K U F H W H t b W F B m B K u j Q U B B { ) u u Q U F U Q U t 9 G Z B U H W Z m ) { Q U U ' A b Y U U K K ~ v g ' K H K ~ K 5 ",
"6 t u u 9 t u 9 p t q 3 y t t u u q 9 u 9 t p y 9 q q u p u p t 2 y 6 6 t p v u 9 u g p j g i p u 6 2 6 u t r 6 i i i 6 6 5 6 4 ",
"  - 9 6 y u g y y u y 7 w y y 3 q w q u g u u y w y y d g v q $ - u d d u p p 1 g j b u v p y 6 g g v g 6 9 u 9 y q 6 9 3 - 4 < ",
"1 m U W K K  .j d ' |  .) U } v j ( B B F H ) g v ( H U U B g o 2 F m b H H n p U  .{ { W U W q Z ( W ) U Y ~ y m F B v u @ % & ",
"9 F U U W Y W j y W W Q W W ) j d ) F F U U W y y U U Y U B B # 2 F F F U W W 7 b U U U Y W W y Z Y U W ( ( ~ y F ' ' K B p < . ",
"q F Q Q W U ( g w ) W W W W ) d w ) W W Q W ) y d W U Y U H U & 3 Q U H U ~ W 2 j Q U U Y W Y 7 b Y U U ~ W ~ 7 C ~ K ' K H z % ",
"p F F W U U ) u w ) U W W W ) j y } W Y W U ) p g ) U F U U F : d } Y U U U W > j Q Y W U U Y > C Q U U K W K 9 Z Y K ' K A B & ",
"o v H Y H U W y 0 ) Y W W Y ) p 9 ) W W W U W p g ( U H U H Y & 6 O.U U U Y U 7 C Q W Q Y U W 3 m W H U H U K 9 Z ~ W ) U H N 4 ",
"  B Q ( W Y  .b u  .) '  .~ | i - } W Q ( ) } j g ) W U Q U U : y ( Q U H ( ) d Z ( W W ~ W ~ 2 b  .) ~ ) ' O.y H | ' ' W B N & ",
"3 7 2 2 : > 9 w w q 9 7 > 2 9 9 2 y q q j u d q 0 w y 9 7 g g 3 q m y 9 7 9 w w w w 9 7 y u y 3 q 9 9 9 y u u 9 9 q p p i u p & ",
"q g y g u w s w 9 j d j d d d u u j g k Z b C y s b b b j C m 2 y U Z m C C m w f C C C Z Z C 9 g j j k C b j t v m Z m Z Z B & ",
"7 W ) ( ~ ~  .u 9 O.W ) ) ) ) j b U F Q Q U { u y { W ( ( Q W & 9 } Q Y W ~ ~ y C W W Y W W W 2 b ) W ) ) ~ ' t U ) ) ) W K B X ",
"y U U K K U U g w { W W U R F t d F m U Q U Q y d { W ( W Q F 1 u { F F H U W w j ( Y U Y Y K 3 j ~ U H W ~ ~ 6 m ~ Y Y U H n & ",
"u v B ~ W W U j y { ) ) ! W Z u d m Z U U U { u g { W W Q Q F 1 y Q Z Z U W ) w j ) W Y Y W K 2 g ) H H ~ ( ' 6 v W Y W U F B 1 ",
"g H K ( ( ( U p g { { { { Q ) j g B B F Q U W g d Q U U Q Q F - 9 U b b Z W W u b ( Y Z W W W 6 m ) F U W W ' i j W W U U U B 1 ",
"g W ( W ~ ) W u y { Q ) ) Q Q p y F v B W W W v g U U U W ) U 1 2 U Z Z F U U g j K W U W W ~ y b W F W W Y ~ p B ) W Y U U m & ",
"q (  . .'  . .m y +.O.O. .) ) g y H B U ) Q ) m Z U F ) ) ) H 4 9 ( Y U W W ' u b ' W ' ' ' O.t n | U )  .' X.p U  .~ Y ~ K m & ",
"t u 3 3 7 w y 9 9 y 9 w 3 y j d g b j j j p p m g q 7 9 q u b 6 3 j v j u 3 y y w w u y 9 6 q 6 u y y y q y g p u t p p p v B = ",
"t v j g d k k y y b k k j C C j m Z Z F F Z m b b b j g b m B 3 2 j H F U Z Z y y C C m m j b t j C b m j Z m y g b B B B B B = ",
"g ( { ) ) W | j y O.) ) ' ) ( b b Q Q { ) W U g j Q Y W Q ( F 9 y ' Y ~ Q ) | d g O.' )  . . .y g | W ~ ~ ~ ' p b ~ ~ ) ~ H F : ",
"p ( Y W Y K ) b g ) Y W W W ) j d { W ) W Y W u g ! U U U Q U t 9 H ) U U Q ) d g ) ) ) ( ( ' g b ) W Y U K ~ B F W ~ ~ T H U 6 ",
"u W U Y Y Y ' j s ' W W ) W ) j d { W ) W W ) u y W U U R W U 6 9 K W ~ ( U Q j b ) ~ ~ ~ ( ' p b ) W ( K K K B U W ) ) ~ H H 6 ",
"9 U Y W Y Y ~ b d ' ~ W W U Q j d ) W ) W U ) u y W W U U Y ' 1 2 Q ) ( Q Y ) g k ) ) ' ' ) ' y g ' ~ ~ U K ~ p B ) ~ ~ ' K B 6 ",
"p W W Y W Y W k 8 ~ ~ K U W ( g d ( W W W W ' g d ( U U U W ) 6 2 m = b { W ) v v ) ~ ~ ) ( ' g j ' ~ T K K ~ j b ( W ~ ' K H 6 ",
"t ' ~ ' ~ ~ ' m g ~ X.' ' ' O.v g  .| A m | ' v g ) ( ) ~ ( K 6 p H q F ) W | B m ' ' ' ' ' ' m F ' ~ ~ ~ ~ ~ g u } ~ | O.' ) 5 ",
"9 g : = w d d u w d d d y t u u g u y t d g d u j g g p g j B t u B B m b b b g m 9 2 9 6 u g B b u 9 9 6 u g u u p v j p n B i ",
"- 2 3 O k k k g f k k b j d j y d j j d d k k g u j b j j b H 6 2 B Z Z C C C m C b j j j m F v b m j b v j B v v Z F Z B m B t ",
"9 K ~ ~ ~ ' ' m k ' ~ ' X.X.X.m b ~ ~ U B ' ) v j ~ ~ ) ) ( ~ 4 9 U T H K ~ ~ m C W ' ' ' ~ ' g v ) ~ T W W ~ n B  .) ' } K H 6 ",
"p K H K T T ~ m g ' ~ ~ W ~ ' B Z K U F v ~ W v v ( W ( W W ~ t 3 U ~ K K ~ ' m j W ~ ) ) W W v m ~ K H K T ~ v B ) ~ ) ~ K ~ 6 ",
"v H K W T K ' b g ' ~ ) ~ ~ ' B Z ~ K H B ~ W j j ) W ) ( U ( p q Q W H K ~ ' B Z ) ~ ' ~ ~ ~ B B W K K ~ K ~ m B ) ' ) ~ U W t ",
"p H K W ~ W ' n g X.~ ~ ~ ~ ' B B W K H K ~ ~ n v ~ W ) W Y ) 5 9 ) ~ U T K ~ B B ) ~ W ~ U ( n m ~ K T ~ T ~ n B ( ) ' ~ H A 6 ",
"u B K K K ~ ' n p ) ~ T ~ T ~ H U ~ K K H K W B b ~ Y W W W F 1 9 ) K Y ~ K ~ n m ( W W W W K B v Y T ~ ~ ~ ~ n B W W U U H B 6 ",
"6 A K H H H K v v ~ K K K K H v p n H H B H U B B Y U W K m v & X K W K K ~ ' x B W W W W H T n v U H A F H U N B H B B n H H 6 ",
"% i i v B n B u v v n v v i p % + 1 5 5 v n p v B v m v v n p 1 & p v u u p u u p u g j n i t t v v p t $ 1 p v v i u i p v p 3 "
};
