/* XPM */
static char *entry_level_job_xpm[] = {
/* width height num_colors chars_per_pixel */
"64 64 4 1",
/* colors */
"  c #071821",
". c None",
"X c #e0d5d5",
"o c #fcfcfc",
/* pixels */
"................................................................",
"................................................................",
"................................................................",
"................................................................",
"....................                        ....................",
"....................                        ....................",
"....................                        ....................",
"....................                        ....................",
"................    XXXXXXXXXXXXXXXXXXXXXXXX    ................",
"................    XXXXXXXXXXXXXXXXXXXXXXXX    ................",
"................    XXXXXXXXXXXXXXXXXXXXXXXX    ................",
"................    XXXXXXXXXXXXXXXXXXXXXXXX    ................",
"............    XXXXXXXXXXXXXXXXXXXXXXXXXXXXXXXX    ............",
"............    XXXXXXXXXXXXXXXXXXXXXXXXXXXXXXXX    ............",
"............    XXXXXXXXXXXXXXXXXXXXXXXXXXXXXXXX    ............",
"............    XXXXXXXXXXXXXXXXXXXXXXXXXXXXXXXX    ............",
"............    XXXX        XXXXXXXX        XXXX    ............",
"............    XXXX        XXXXXXXX        XXXX    ............",
"............    XXXX        XXXXXXXX        XXXX    ............",
"............    XXXX        XXXXXXXX        XXXX    ............",
"........    oooo    ooooooooXXXXXXXXoooooooo    oooo    ........",
"........    oooo    ooooooooXXXXXXXXoooooooo    oooo    ........",
"........    oooo    ooooooooXXXXXXXXoooooooo    oooo    ........",
"........    oooo    ooooooooXXXXXXXXoooooooo    oooo    ........",
"........    ooooXXXXoooo    oooooooo    ooooXXXXoooo    ........",
"........    ooooXXXXoooo    oooooooo    ooooXXXXoooo    ........",
"........    ooooXXXXoooo    oooooooo    ooooXXXXoooo    ........",
"........    ooooXXXXoooo    oooooooo    ooooXXXXoooo    ........",
"............    XXXXoooo    oooooooo    ooooXXXX    ............",
"............    XXXXoooo    oooooooo    ooooXXXX    ............",
"............    XXXXoooo    oooooooo    ooooXXXX    ............",
"............    XXXXoooo    oooooooo    ooooXXXX    ............",
"................    XXXXooooooooooooooooXXXX    ................",
"................    XXXXooooooooooooooooXXXX    ................",
"................    XXXXooooooooooooooooXXXX    ................",
"................    XXXXooooooooooooooooXXXX    ................",
"............    XXXX                        XXXX    ............",
"............    XXXX                        XXXX    ............",
"............    XXXX                        XXXX    ............",
"............    XXXX                        XXXX    ............",
"........    XXXXXXXXXXXXooooooooooooooooXXXXXXXXXXXX    ........",
"........    XXXXXXXXXXXXooooooooooooooooXXXXXXXXXXXX    ........",
"........    XXXXXXXXXXXXooooooooooooooooXXXXXXXXXXXX    ........",
"........    XXXXXXXXXXXXooooooooooooooooXXXXXXXXXXXX    ........",
"....    XXXXXXXX    XXXXXXXXooooooooXXXXXXXX    XXXXXXXX    ....",
"....    XXXXXXXX    XXXXXXXXooooooooXXXXXXXX    XXXXXXXX    ....",
"....    XXXXXXXX    XXXXXXXXooooooooXXXXXXXX    XXXXXXXX    ....",
"....    XXXXXXXX    XXXXXXXXooooooooXXXXXXXX    XXXXXXXX    ....",
"....    XXXXoooo    XXXXXXXXXXXXXXXXXXXXXXXX    ooooXXXX    ....",
"....    XXXXoooo    XXXXXXXXXXXXXXXXXXXXXXXX    ooooXXXX    ....",
"....    XXXXoooo    XXXXXXXXXXXXXXXXXXXXXXXX    ooooXXXX    ....",
"....    XXXXoooo    XXXXXXXXXXXXXXXXXXXXXXXX    ooooXXXX    ....",
"........            XXXXXXXXXXXXXXXXXXXXXXXX            ........",
"........            XXXXXXXXXXXXXXXXXXXXXXXX            ........",
"........            XXXXXXXXXXXXXXXXXXXXXXXX            ........",
"........            XXXXXXXXXXXXXXXXXXXXXXXX            ........",
"................    XXXXXXXX        XXXXXXXX    ................",
"................    XXXXXXXX        XXXXXXXX    ................",
"................    XXXXXXXX        XXXXXXXX    ................",
"................    XXXXXXXX        XXXXXXXX    ................",
"................    oooooooo        oooooooo    ................",
"................    oooooooo        oooooooo    ................",
"................    oooooooo        oooooooo    ................",
"................    oooooooo        oooooooo    ................",
}; 