/* XPM */
static char *map_11_64x641745259706[] = {
/* columns rows colors chars-per-pixel */
"64 64 38 1 ",
"  c #241417",
". c #241319",
"X c #29151E",
"o c #2B1722",
"O c #2D1925",
"+ c #2F1B29",
"@ c #301A27",
"# c #311C2A",
"$ c #351E31",
"% c #35202F",
"& c #372032",
"* c #392234",
"= c #3C243A",
"- c #41273D",
"; c #41283D",
": c #442A43",
"> c #4A2D46",
", c #4B2F48",
"< c #4C3046",
"1 c #4C3049",
"2 c #543547",
"3 c #5F3E47",
"4 c #523449",
"5 c #58374A",
"6 c #57384A",
"7 c #5B3B49",
"8 c #603F4B",
"9 c #5F4048",
"0 c #614047",
"q c #6B4747",
"w c #6E4B47",
"e c #64424A",
"r c #69464B",
"t c #6E4B49",
"y c #734C4C",
"u c #76504F",
"i c #724C50",
"p c #785050",
/* pixels */
":;;;------;;;;;;:--;;;=:=;;;;;;=:=:=;;;;;;;=:=;;;;;;:=:--------;",
">>>>>>>>><<><<<<11<<<<111<<<111<<<111<<<,,11<111<<<<>1<>>>>>>>><",
",,>,,,,45555655555556665666666665666666666555666666666644>>,,,,,",
"11111114588eeeeeee880eeeeeeeeee7eee99eeeeeeeeee9ee9e888624<1,,11",
"11,,11458rrtriritiiritrtritrirtiitrtiitritirrityritrirr8541,>111",
"11,,4458ryiyiiyiyytiiiyytiyyiiyyyiiyitiiyytiyyiyiiyyyiie74411111",
"11144578iypuyuyuuyypyyyuuiuuyyuuyiyuyuyuypypiyyyyuyyyyyr87544111",
"114458eiiipuyyyyyyyyyyyyyyyyyuyyyyuyyyyyyyyyyyyyyyyuyuttr8855111",
"1145eriyiipyyyyyyyyyyyyyyyyyyyyyyyyyyyyyyyyyyyyyyyyyyyytyir854,,",
"1145eiyyupuyyywwwyqwtwttyqwywytwtyytytwwwywqywwwwwwywwytyiy854,,",
",148eippuuyyytwyttwytyqwwwttwwyqttwwwtttttywttttttttwtyyyyqr74,,",
",145ripyyyyytywwttwtttwytwttttttttttwytttttwtttwttttwtttyyq854,1",
"1145riiyyyytwtttttwtttytttttywwtwtttwttwtwywwtttwttttttttyr05411",
"1118eyuyytwtttwttttttwwttttwttttttttttttttttttttywtttttwtwr054,1",
"1119rtyytttttwttttyqtwttwtttttttttwttwttttttttwtttwttwttttr05411",
"1148etyttyttwytttwwyttttttttwtttttttttttttwtttttwttttttttwr05411",
"1118ettitywwttttttttttttttttywttwwttwtttytttwwqyttttywtttwr97111",
"11169rtttttttttttwttwttttwtwttwttyttttttwtwtywwwttwtttwtwrq02411",
"11180rtuqwwwtwttyttttttwwwwwttttttwtttwtttttwyyqttttwttttwr05411",
",116rtutywywttttwtwtttttyywwwttttttttttwwttwtwwwwttttttwtwq95111",
"11450ruywwwwwwwwwwwwwwtqwwwqqwwwwwtqwwwywqttwwqwwtwtwwywwwq07<11",
"1145etitqqqqqqqqqqqwwqqqqwqqqqqqqqqqqqqqqqqqqqqqqqqqqqqqqq096211",
"11469rrr8q8888q8000ee0eeq8q08888000e00q0q00e808800r0e000e09761<1",
"111657e7883738773777377388;8388537737777777788853573773737564111",
"1,1116666222422222224545222255452222252255452222222254222224<>,1",
",,111111<>><,>>1>>>4>>>>><4>>>>>4>>>>1<>>>>>>>>><>>>>1,,<>1>>,>>",
"::>>,:::>:>>>>:>>:>>>:>>:>>>:>>>>:>>>>>>:>>:>>>>>>>>>>>:>>>:>:>>",
"::::::::::::::::::::::::::::::::::::::::::::::::::::::::::::::::",
";:;;;;:--=------------::---------:::=:-----:-:-:-------===:=-;;;",
"==;;=-==========*===$=$==$===$==$-$$=$====$-$-$=$===============",
"======-==$&$#$$$$$$$$$$$$$$$$$$$$$$$$$$$$$$$$$$$$$$$$$$$****==-=",
"**==-==&$###########$#####$#$####$###########$#############&*=-=",
"*======*#+oooooooooooooXoooooooooooooooooooooOooooooooooooO#&===",
"$====**#+o..o.X.XXX.XXX.XXX.XX..XXX.oXXooXXXX.XXXXXX..o..ooO$===",
"$*=***##oX........................XXooooX.........  .....o.O$===",
"&*=*$+#oo.........................Xoo@#oo.........   .....oO$=-=",
"$=*&#ooXX.........................Xo#$$#OX............ ...o+#===",
"$**&+oX...........................X+#$*#OX....... ........oO#&==",
"$==++o............................X@$*=$OX.................O+$$=",
"%*=$oX........................... X+$=$$OX.................oO++$",
"#=*%+.........  ..................X+%*&$OX.............X....ooO+",
"+&&%Oo...XX..Xo...Xo...ooo.......XX+%**$Ooo..XX..o..o.......ooO+",
"+#%+O..XooOOOOOOooooo+oooooXo...XO+O#&%#++ooOOooOOOOOoooo..oo+O+",
"+++oo.oo+++++++$###########@o.ooOO##@###+##+###%#####+OO..ooo+++",
"ooooo.ooO%&*&&&&&$&&*$$*$$$#oXXo#%&#O+O@%&&&&&&&&&&&*&$+oooo+&&+",
"oo.o..oo#&***=***=**=***$$$$@XX@#%&#OXX++&********=***&+o.oo+&&%",
"ooooo..O##&&&&&$*$$&$$$*$$$@oXXX+##@OXXO+%&&*&&&&&&&**$+oooo+&&+",
"oO+ooX.oO@@@###@#######+@@@oXXXX++O+oX.oOO++++##++++++Ooo..oOO++",
"+%#+oX.oooooooooXXooooXXooXX....oXXXX...ooXXooXXoooooooo...XXoo+",
"+&&#Oo....o..oo.X.XXXXXXXXXX....XXX.....XXXXXXX.XXXX...o.....Xo+",
"+&&+o...............X.....X. .......... X...X....... .........Xo",
"O++oo.................................. .... ..................o",
"ooo.o.....  ........... ..  ... .... ............ ..... .......X",
"..o....... ..... ............ ......  ............... ..........",
".................. . ......... ...... ............. ............",
"... ............................................ ..... .........",
".. ....... ... .X  .. .   . ...............  .......  ..........",
".... ...........  .......  .. ............. ... . ..  ..........",
"..  ........ ...X   .. ....... ........... X...... ...X.........",
"..  ...X.... . .    ........ .  ........... . ........  ........",
"....    .... ...X  X   X...  X X...X....    ..... ..    .  X....",
"XXXXXXXXXXXX..XXXXXXXXXXXXXXXXXXXXXX..XXXXXXXXXXXXXXXXXXXXXX..X.",
"@o@@@@@@#@@@@#O@@@@@@@@@@@@@@@@@@@@@@@@@@@@@@@@@@@@@@@@@@@@@##@@",
"****$****$**$$$$$$***$***$$$$$***$$**$$$$***$****&&$*****$*$$$$$"
};
