/* XPM */
static char *map_8_64x641745259705[] = {
/* columns rows colors chars-per-pixel */
"64 64 55 1 ",
"  c #231218",
". c #241319",
"X c #24131B",
"o c #231419",
"O c #25141A",
"+ c #27131C",
"@ c #25141C",
"# c #26151D",
"$ c #28141D",
"% c #29151E",
"& c #2B161F",
"* c #291520",
"= c #2B1521",
"- c #2A1621",
"; c #2B1722",
": c #2C1622",
"> c #2C1823",
", c #2D1924",
"< c #2D1925",
"1 c #2E1824",
"2 c #2F1B27",
"3 c #301C28",
"4 c #321C29",
"5 c #331D2A",
"6 c #341C2C",
"7 c #341D2D",
"8 c #351D2D",
"9 c #351E2E",
"0 c #361F2F",
"q c #361F31",
"w c #36202D",
"e c #372030",
"r c #372032",
"t c #372034",
"y c #382131",
"u c #382133",
"i c #382135",
"p c #392234",
"a c #3A2335",
"s c #382036",
"d c #392137",
"f c #392236",
"g c #3A2337",
"h c #3B2436",
"j c #3A2238",
"k c #3B2339",
"l c #3B2438",
"z c #3C2539",
"x c #3D2638",
"c c #3C243A",
"v c #3D253B",
"b c #3D263A",
"n c #3C243C",
"m c #3D253D",
"M c #3E263C",
/* pixels */
"8& .o OO OoO O Oo.....oo....oO O OoO O Ooo....oo....o...  oo....",
"8= .@@OOOOooOOOOoo@OOOOoOOOOooOOOOooOOOOOoOOOOOoOOOOooOOOOOoOOOO",
"5=o@@*=*===;;===*;====;==;==*;====;==;========;==;==*;====;==;==",
"8=.&;<<<<<<<<<<<<<<<<<<<<<<<<<<<<<<<<<<<<<<<<<<<<<<<<<<<<<<<<<<<",
"6=o=<25535553535553555355355335555553553553355355355355335355355",
"8:&;256eqw6w6e66e8888888w6ew8888666ww6e6w88q8888e66ee6qw6e6e6wq6",
"6:@<36eeettttttpfeefetppttgetfeftpettettfeefetfptttettettteeteqe",
"6=@<36etffppggpgffffffffgtgtffffgpggggtgffffffffppggtglptggtteet",
"6=@;36wptllllvgljlllllfljllgllxgllllgvggvggvfxffgvllgvlllljffetf",
"6<@<36epfllvvjlvvlvljvvvvlvvlvlvnllnlvvllvvlvvvvvjvlvjvvmllgpwwe",
"6;@<3wegjlmvvvmvvvvvmvvvvvvvmvvvvvmmvvvvvvvvvvvvvvvvvvvvvvlgfepp",
"8:@<36eeglmvvvvvvvvvvvvvvvvvvvvvvvvvvvvvvvvvvvvvvmvvvvvvvvvjpewp",
"6:@<36eggjvvvvvvvvvvvvvvvvvvmvvvvbvvvvvvvvmvvvmvvvvvvvvvvmvfpp8f",
"6=@>36eggvvvvvvvvvvvvvvvvvvvvvvbllmlvvvbvllvlvjvvvvvmjvlvjxfpwep",
"8:@<56wpgvvvvvvvvvvvvvvvvvvvvvvvlllllxvvglllllllgvxgkxgjgxfppqep",
"6>@><6ppfvvvvvvvvvvvvvvvvvvvvvgglffjlvlgffffffffxvlxffffffpfepep",
"6:&;26epfvvvvvvvvvvvvvvvvvvvvvvffftffvvgfepfffffgvllfftfeffeeqef",
"6:@>56epjvvvvvvvvvvvvvvvvvvvvvvgfepfjvlgfpqeweefglljfewewweeteff",
"6:@>36epllvvvvvvvvvvvvvvvvvvvvvgftffgvlgfffepeffllvjffefefetpepf",
"6:@<3wepjlvvvvvvvvvvvvvvvvvvvvlgjjfjllvgjffffffjjvlljffffffjffff",
"6=@;36epfvvvvvvvvvvvvvvvvvvvvvvvllljvvxxjllllllkvvblllllllljgllj",
"6<@<36epjvvvvvvvvvvvvvvvbvvvvvvvlmlvvvvbvljvvjvjbvvvlvlvvlvnvlvv",
"6;@<36epllvvvvvvvvvvvvvvvvvvvvvvvvmvvvvmvvmmvvvvvvvvmvvvvvvvvvvv",
"6=@<3wepjlvvvvvvvvvvvvvvvvvvvvmlvvvmvvvvvvvvvvvvvvvvvvvvvvvvvvvv",
"6=@<36egglmvvvvvvvvvvvvvvvvvvvvvvvvvvvvvvvvvvvvvvvvvvvvvvvvvvvvv",
"6;@<36egglvvvvvvvvvvvvvvvvvvvvvvvvvvvvvvvvvvvvvvvvvvvvvvvvvvvvvv",
"8>@<36wplvvvvvvvvvvvvvvvvvvvvvvvvvvvvvvvvvvvvvvvvvvvvvvvvvvvvvvv",
"6>@;38epflvvvvvvvvvvvvvvvvvvvvvvvvvvvvvvvvvvvvvvvvvvvvvvvvvvvvvv",
"6:@<38efllvvvvvvvvvvvvvvvvvvvvvvvvvvvvvvvvvvvvvvvvvvvvvvvvvvvvvv",
"6:@>38wpjlvvvvvvvvvvvvvvvvvvvvvvvvvvvvvvvvvvvvvvvvvvvvvvvvvvvvvv",
"6:@>36eplmvvvvvvvvvvvvvvvvvvvvvvvvvvvvvvvvvvvvvvvvvvvvvvvvvvvvvv",
"6:@<38egjlvvvvvvvvvvvvvvvvvvvvvvvvvvvvvvvvvvvvvvvvvvvvvvvvvvvvvv",
"8>@;36wpfvvvvvvvvvvvvvvvvvvvvvvvvvvvvvvvvvvvvvvvvvvvvvvvvvvvvvvv",
"6;@<36epjlvvvvvvvvvvvvvvvvvvvvvvvvvvvvvvvvvvvvvvvvvvvvvvvvvvvvvv",
"6=@<36eggvvvvvvvvvvvvvvvvvvvvvvvvvvvvvvvvvvvvvvvvvvvvvvvvvvvvvvv",
"8:@<3wwpjlvvvvvvvvvvvvvvvvvvvvvvvvvvvvvvvvvvvvvvvvvvvvvvvvvvvvvv",
"6:@<36epglmvvvvvvvvvvvvvvvvvvvvvvvvvvvvvvvvvvvvvvvvvvvvvvvvvvvvv",
"6=@>36eggvvvvvvvvvvvvvvvvvvvvvvvvvvvvvvvvvvvvvvvvvvvvvvvvvvvvvvv",
"8:@<38epflvvvvvvvvvvvvvvvvvvvvvvvvvvvvvvvvvvvvvvvvvvvvvvvvvvvvvv",
"8>@>38efjvvvvvvvvvvvvvvvvvvvvvvvvvvvvvvvvvvvvvvvvvvvvvvvvvvvvvvv",
"6:&;36eggvvvvvvvvvvvvvvvvvvvvvvvvvvvvvvvvvvvvvvvvvvvvvvvvvvvvvvv",
"6:@>36wgjlvvvvvvvvvvvvvvvvvvvvvvvvvvvvvvvvvvvvvvvvvvvvvvvvvvvvvv",
"6:@>36efgvvvvvvvvvvvvvvvvvvvvvvvvvvvvvvvvvvvvvvvvvvvvvvvvvvvvvvv",
"6:@>36wpfvvvvvvvvvvvvvvvvvvvvvvvvvvvvvvvvvvvvvvvvvvvvvvvvvvvvvvv",
"8>@<3wetglmvvvvvvvvvvvvvvvvvvvvvvvvvvvvvvvvvvvvvvvvvvvvvvvvvvvvv",
"6;@;36egjvvvvvvvvvvvvvvvvvvvvvvvvvvvvvvvvvvvvvvvvvvvvvvvvvvvvvvv",
"6=@<3wegglvvvvvvvvvvvvvvvvvvvvvvvvvvvvvvvvvvvvvvvvvvvvvvvvvvvvvv",
"8:@<36eellvvvvvvvvvvvvvvvvvvvvvvvvvvvvvvvvvvvvvvvvvvvvvvvvvvvvvv",
"6:@<36epgnvvvvvvvvvvvvvvvvvvvvvvvvvvvvvvvvvvvvvvvvvvvvvvvvvvvvvv",
"6=@>36epllvvvvvvvvvvvvvvvvvvvvvvvvvvvvvvvvvvvvvvvvvvvvvvvvvvvvvv",
"8:@<3wepglnmvvvvvvvvvvvvvvvvvvvvvvvvvvvvvvvvvvvvvvvvvvvvvvvvvvvv",
"6>@>36epgnnbvvvvvvvvvvvvvvvvvvvvvvvvvvvvvvvvvvvvvvvvvvvvvvvvvvvv",
"6:@;56epllvvvvvvvvvvvvvvvvvvvvvvvvvvvvvvvvvvvvvvvvvvvvvvvvvvvvvv",
"6:&>36epllvvvvvvvvvvvvvvvvvvvvvvvvvvvvvvvvvvvvvvvvvvvvvvvvvvvvvv",
"6:@>3wepllvvvvvvvvvvvvvvvvvvvvvvvvvvvvvvvvvvvvvvvvvvvvvvvvvvvvvv",
"6:@>36etjnvvvvvvvvvvvvvvvvvvvvvvvvvvvvvvvvvvvvvvvvvvvvvvvvvvvvvv",
"8>@;36wfglmmvmvvmvvvvvvvvvvvvvvvvvvvvvvvvvvvvvvvvvvvvvvvvvvvvvvv",
"6;#<38efjlllvllvlvvlvvvblvlvvvvvvvvvvvvvvvvvvvvvvvvvvvvvvvvvvvvv",
"6=#<36etfjllllllllljvvxvllgvgbvvvvvvvvvvvvvvvvvvvvvvvvvvvvvvvvvx",
"8:@<36eftlgfffffffffgvlljfgggvvvvvvvvvvvvvvvvvvvvvvvvvvvvvvvvvvg",
"6:@<36qtqeeppfpeeftffvvgftffgvvvvvvvvvvvvvvvvvvvvvvvvvvvvvvvvvlg",
"6=@>368eqpqqqwpqeepfjlvgfpefglvvvvvvvvvvvvvvvvvvvvvvvvvvvvvvlvlg",
"8:@<38qqfeefpeepptffjvvfgtffgvvvvvvvvvvvvvvvvvvvvvvvvvvvvvlvlggg",
"8>@>38pfqffffffffffjllllgffjllvvvvvvvvvvvvvvvvvvvvvvvvvvvvvlgffg"
};
