/* XPM */
static char *map_1_64x641745259704[] = {
/* columns rows colors chars-per-pixel */
"64 64 197 2 ",
"   c #241319",
".  c #25141A",
"X  c #27131C",
"o  c #25141C",
"O  c #28141D",
"+  c #29151E",
"@  c #291520",
"#  c #2B1521",
"$  c #2A1621",
"%  c #2B1722",
"&  c #2C1622",
"*  c #2D1724",
"=  c #2D1924",
"-  c #2E1824",
";  c #311B27",
":  c #321C28",
">  c #341E2B",
",  c #331C2C",
"<  c #341D2D",
"1  c #361F2F",
"2  c #371F2F",
"3  c #372030",
"4  c #3F2433",
"5  c #3A2335",
"6  c #3F2435",
"7  c #3C2338",
"8  c #3E2238",
"9  c #3B2438",
"0  c #3D2439",
"q  c #3E2538",
"w  c #3E253A",
"e  c #3F263B",
"r  c #412639",
"t  c #41283D",
"y  c #41283E",
"u  c #42293E",
"i  c #42293F",
"p  c #482C3B",
"a  c #492C3E",
"s  c #432A40",
"d  c #452940",
"f  c #472941",
"g  c #442B41",
"h  c #462A41",
"j  c #472B41",
"k  c #442A43",
"l  c #472B42",
"z  c #452C42",
"x  c #452B44",
"c  c #492C42",
"v  c #482C43",
"b  c #482C45",
"n  c #4B2D45",
"m  c #492D46",
"M  c #4B2D47",
"N  c #4A2E47",
"B  c #4D2F47",
"V  c #4A2D49",
"C  c #4B2F48",
"Z  c #4B2E4A",
"A  c #4D2F49",
"S  c #4C2F4B",
"D  c #4A3147",
"F  c #4C3047",
"G  c #4E3147",
"H  c #4A3049",
"J  c #4D3148",
"K  c #4C3049",
"L  c #4E3048",
"P  c #4F3149",
"I  c #4D314A",
"U  c #4E304A",
"Y  c #4F314B",
"T  c #523342",
"R  c #533446",
"E  c #543544",
"W  c #5D3C47",
"Q  c #513148",
"!  c #513149",
"~  c #503349",
"^  c #533348",
"/  c #50324A",
"(  c #51334B",
")  c #53334A",
"_  c #513448",
"`  c #523549",
"'  c #533648",
"]  c #51344A",
"[  c #52354B",
"{  c #53364A",
"}  c #553449",
"|  c #553648",
" . c #573649",
".. c #563749",
"X. c #55354A",
"o. c #56364B",
"O. c #55354C",
"+. c #583748",
"@. c #55384A",
"#. c #57384A",
"$. c #593948",
"%. c #593849",
"&. c #5B3B48",
"*. c #5A3A49",
"=. c #59384B",
"-. c #58394B",
";. c #5A394A",
":. c #5B3B4A",
">. c #5B3A4B",
",. c #5D3B4B",
"<. c #5C3C49",
"1. c #5E3D48",
"2. c #5F3E49",
"3. c #5D3D4A",
"4. c #5C3C4B",
"5. c #5E3C4A",
"6. c #5F3D4B",
"7. c #5E3E4B",
"8. c #5A394C",
"9. c #5C3B4C",
"0. c #603F46",
"q. c #603F48",
"w. c #603F4A",
"e. c #603E4C",
"r. c #613F4D",
"t. c #614047",
"y. c #624148",
"u. c #634249",
"i. c #61404B",
"p. c #63424B",
"a. c #644148",
"s. c #654249",
"d. c #674249",
"f. c #664349",
"g. c #66434A",
"h. c #63444A",
"j. c #67444B",
"k. c #61414C",
"l. c #62414C",
"z. c #64434C",
"x. c #66424C",
"c. c #67434D",
"v. c #68434A",
"b. c #684549",
"n. c #69444B",
"m. c #68454B",
"M. c #6A464A",
"N. c #6B474B",
"B. c #6D464B",
"V. c #68424D",
"C. c #69444C",
"Z. c #68454C",
"A. c #69464C",
"S. c #6B464D",
"D. c #6B4948",
"F. c #6A4849",
"G. c #6C4848",
"H. c #6D4949",
"J. c #6D4A48",
"K. c #6E4B49",
"L. c #6C484A",
"P. c #6D494B",
"I. c #6C4A4B",
"U. c #6E4A4A",
"Y. c #6F4B4B",
"T. c #6F4C4A",
"R. c #6B484C",
"E. c #6C484C",
"W. c #6D494D",
"Q. c #6E4A4C",
"!. c #6F4B4D",
"~. c #6F4B4F",
"^. c #6F4D4C",
"/. c #714B4A",
"(. c #704D4B",
"). c #724C4B",
"_. c #754D4B",
"`. c #744E4B",
"'. c #724B4E",
"]. c #704C4C",
"[. c #714D4D",
"{. c #734D4C",
"}. c #734C4D",
"|. c #714E4C",
" X c #704C4E",
".X c #714D4F",
"XX c #744C4C",
"oX c #744E4D",
"OX c #764E4C",
"+X c #774F4D",
"@X c #744D4E",
"#X c #754F4E",
"$X c #764E4E",
"%X c #784F4D",
"&X c #76504F",
"*X c #78504E",
"=X c #785050",
/* pixels */
"                                                                            & < 0 v A Z P H H P I H P Z A H P Z H P H P Z H H P ",
"                                                                    . X o X ; < r b P A B P P P P A F P P F B P B F P I H P H Z ",
"                                                                    o @ % = > 4 a E  . . . ._ _ @. . .@. .@. . . .@. ._ P P P H ",
"                                                                    O * : < 6 p E <.i.w.1.<.1.1.1.i.i.i.i.i.e.w.i.i.1.8._ F Z P ",
"                                                                  . O ; 3 r v T W M.R.M.j.a.j.j.M.K.W.W.S.W.W.W.R.R.S.7.@.P H P ",
"                                                                  . @ , 5 h ! *.i.W.{. XK.K.J.K. X X@XoXoX{.oXXXoX&X~.z.1.[ H H ",
"                                                                    & < 9 l ! 7.a.{.oX{.(.K.T.T._.{.oXoXoXoXoX%X*X*X!.c.7._ P Z ",
"                                                                    @ < 7 l ! *.i.K.{.).(.K.T.T.).{.oX{.oXoXoX_.%XoX{.c.9.! P H ",
"                                                                    @ < 0 l P *.i.F.(.T.T.J.T.J.K.K.(.(.(.T.(.oXoX*X!.c.7.O.A H ",
"                                                                    @ < 0 l _ *.0.F.K.T.J.T.J.T.K.K.K.K.K.K.).(.oX%X~.c.8._ Z P ",
"                                                                  . @ 1 0 l P  .0.F.K.K.T.J.T.J.K.K.K.K.K.K.K.oXoX*X{.c.7._ H P ",
"                                                                  . @ < 0 l _ *.t.M.K.K.J.T.J.T.K.K.K.K.K.K.).(.oXoXW.S.8.! P H ",
"                                                                    = < 0 h P *.t.F.T.J.T.J.T.J.K.K.K.K.K.K.T.oXoX&X~.c.7.( Z P ",
"                                                                    @ < 0 b P *.t.F.J.T.J.T.J.T.K.K.K.K.K.K.T.(.oX&X~.c.8. .H Z ",
"                                                                    @ < 0 v ! *.t.F.T.J.T.J.T.J.K.K.K.K.K.K.T._.oX%X{.c.4.O.D b ",
"                                                                    @ < 0 h P *.t.F.J.T.J.T.J.T.K.K.K.K.K.T.T._.oXoX!.c.4.! P b ",
"                                                                    @ < 0 l P 8.t.F.K.K.K.K.K.K.K.K.K.K.K.K.K.{.{.&X.Xc.7.[ Z l ",
"                                                                  . % < 0 l P +.t.M.K.K.K.K.K.K.K.K.K.K.K.K.T.{.oX%XW.c.8._ Z x ",
"                                                                    % < 0 l _ *.t.F.K.K.K.K.K.K.K.K.K.K.K.K.K._.oX*X{.c.4._ m k ",
"                                                                    @ < 0 l P +.t.F.K.K.K.K.K.K.K.K.K.K.K.K.).oXoXoXW.S.4.P D x ",
"                                                                    @ < 0 l _ *.t.F.K.K.K.K.K.K.K.K.K.K.K.K.K.(.&X&X!.c.4._ Z x ",
"                                                                    @ < 0 l P *.t.F.K.K.K.K.K.K.K.K.K.K.K.K.).oX(.&X!.c.4.[ Z x ",
"                                                                  . % < 0 l P +.t.F.K.K.K.K.K.K.K.K.K.K.K.K.(.(.oX&X&Xc.4.P b m ",
"                                                                  . @ < 0 h _ *.t.F.K.K.K.K.K.K.K.K.K.K.K.K.K.oX_.*X!.c.4.P D k ",
"                                                                    @ < 0 l _ *.0.F.T.K.K.K.K.K.K.K.J.J.K.K.T.T.{.&X~.V.9.( Z h ",
"                                                                    % < 0 b P  .0.j.D.D.G.J.G.K.G.G.J.M.K.F.K.T.{.(.~.c.9.! Z k ",
"                                                                    @ < 9 m P | <.t.j.a.a.a.M.a.a.j.a.M.a.a.a.S.M.W.M.7.-.P b u ",
"                                                                    @ < 0 h P E  .&.W <.W W W W W W W W W 1.W 1.i.1.1.8.O.P h u ",
"                                                                . . & < 0 h P P P _  . . . ._  . . . .O. . ._  .@._ -.P P P l 0 ",
"                                                                  . @ < 0 h H P A P P P A A P B F F B A P F A P F P P P P H l 0 ",
"                                                                    @ < 0 h H P H H H Z Z H H P Z P P Z P Z H Z P P P Z P P l e ",
"                                                                    @ < 0 v H Z P H P P H P H P H H P H H H P P H Z D H H H l i ",
"                                                                    % < 0 l P H Z H P P H A P Z H P Z H H P Z b P H Z H H P m s ",
"                                                                    @ < 0 v H P P P F F B P A P P F ! F A P F P P P P P I H Z k ",
"                                                                    @ < 0 l F !  .O.R  ._  ._  . .@.@.*.-.@. . .@. . .[ P H b m ",
"                                                                    @ < 0 h P  .8.1.l.w.w.1.7.1.i.i.l.e.l.l.l.c.l.i.1.8.@.P m k ",
"                                                                    % < 0 l P 8.w.M.S.M.M.a.a.j.M.F.W.W.W.W.W.W.R.R.S.1.@.P Z l ",
"                                                                  . @ < 0 l _ *.c.W.{.!.K.K.K.K.W.oXoXoX@X@XXXoX&X&X~.c.,._ Z s ",
"                                                                    % , 0 l [ 8.j.K._.XX XK.).T.oXoXoXoX@XoX%XoX&X&X!.c.4._ m s ",
"                                                                .   @ , 0 m P *.w.K.(.).(.K.T.T.(.(.oX_.oXoXoX_._.%X.Xc.4.P m u ",
"                                                                    @ < 0 v ! *.i.F.(.T.T.J.T.J.J.T.!.T.T.{.T.{.&X*X~.c.7.[ l e ",
"                                                                    % < 0 h P *.t.F.T.T.J.T.J.T.T.T.T.K.T.K.T.{.&XoX!.c.4.P m 0 ",
"                                                                    @ < 0 h P  .0.F.J.J.T.J.T.J.J.T.K.K.K.K.T.{._.oX{.c.7._ h 0 ",
"                                                                    % < 9 m _ *.t.F.J.T.J.T.J.T.T.J.K.K.K.K.T._.oX*X{.c.4._ l u ",
"                                                                    @ < 0 l P *.t.F.T.J.T.J.T.J.J.T.J.T.K.K.T.oXoX&X{.c.4._ Z s ",
"                                                                    % < 0 l P *.t.F.J.T.J.T.J.T.T.J.T.J.K.K.T.(.oX&X~.c.4.Y D k ",
"                                                                    @ < 0 l _ *.t.F.T.J.T.J.T.J.J.T.J.T.K.K.T._.oX&X~.c.4._ m u ",
"                                                                    % , 0 l P *.t.F.J.T.J.T.J.T.T.J.T.J.K.T.T.(._.*X!.c.4.P m u ",
"                                                                    % , 0 l P +.0.F.K.K.K.K.K.K.J.T.J.T.K.K.T.{.{.oX!.c.7.[ m 0 ",
"                                                                  . @ , 0 l ! *.0.F.K.K.K.K.K.K.T.J.T.J.K.K.T.{.oX*X~.c.4.P l 0 ",
"                                                                    @ < 0 l P *.i.D.K.K.K.K.K.K.T.J.J.T.K.K.).).oX%X{.c.1.P h 7 ",
"                                                                    % , 0 l P *.0.F.K.K.K.K.K.K.J.T.J.T.T.K.K.oXoX%X!.c.4.! h 7 ",
"                                                                    @ < 0 v ! *.t.F.T.T.K.K.K.K.T.J.K.K.K.K.).(.oX&X~.c.4.P l 0 ",
"                                                                    % < 7 v P *.t.F.T.J.K.K.K.K.J.T.K.K.K.K.K.oXoXoX{.c.4.P h 9 ",
"                                                                    @ < 0 v _ 8.t.B.(.).K.K.K.T.T.(.(.(.(.(.(.oXoX%X~.c.4.P v 6 ",
"                                                                    % < 0 x _ 1.a.K.(.).T.K.K.T.(.(._.(._.{.oXoX%XoX{.c.4.P f 7 ",
"                                                                  . @ < 0 l _ 9.a.!.&X{.!.T.T.{.oXoX@X@X=X@XoXoX%X=X!.V.7._ h 7 ",
"                                                                    % < 0 m _ ,.z.W.{.!.T.F.F.K.{.oX@XXXoXoXoX@X@X@X.Xl.8.P v 7 ",
"                                                                    @ < 0 h P 8.1.S.M.S.j.j.a.c.S.S.W.W.W.W.W.R.W.W.S.7.+.! f 7 ",
"                                                                    % , 0 x P  .*.<.l.1.1.1.1.7.w.7.e.e.e.e.e.e.e.e.1.*. .A h 7 ",
"                                                                  . & < 0 v P P _ O.@. . . .O. . .@.@.@. .-.@.-.*.@.O._ ! P h 7 ",
"                                                                  . @ < 0 h H P P P ! P P B P P P P P ! P P P I A P P P I H h 7 ",
"                                                                    @ < 0 x P H Z H P H H H P H P H H P H P P I Z P H H H P s 7 ",
"                                                                    @ < 0 h P H P H H Z P I H A Z H P H H P H b Z H P H Z H h 0 "
};
