/* XPM */
static char *map_5_64x641745259705[] = {
/* columns rows colors chars-per-pixel */
"64 64 245 2 ",
"   c #241417",
".  c #231218",
"X  c #241319",
"o  c #261319",
"O  c #24131B",
"+  c #23141B",
"@  c #25141A",
"#  c #27131C",
"$  c #25141C",
"%  c #24151C",
"&  c #26151D",
"*  c #25161D",
"=  c #26151F",
"-  c #27161E",
";  c #28141D",
":  c #29151E",
">  c #2A151E",
",  c #28171F",
"<  c #2A161F",
"1  c #2B161F",
"2  c #291520",
"3  c #2A1621",
"4  c #291723",
"5  c #2B1722",
"6  c #2B1723",
"7  c #2C1622",
"8  c #2C1623",
"9  c #2D1724",
"0  c #2C1821",
"q  c #2C1823",
"w  c #2C1824",
"e  c #2D1924",
"r  c #2D1925",
"t  c #2E1824",
"y  c #2E1825",
"u  c #2F1926",
"i  c #2D1B27",
"p  c #2E1A26",
"a  c #2F1B27",
"s  c #2E1928",
"d  c #2E1C28",
"f  c #301A27",
"g  c #301929",
"h  c #311B28",
"j  c #311A2A",
"k  c #301B2A",
"l  c #321B2B",
"z  c #301C28",
"x  c #311D29",
"c  c #321C29",
"v  c #311C2B",
"b  c #341E2B",
"n  c #321B2D",
"m  c #311C2D",
"M  c #331C2C",
"N  c #321D2C",
"B  c #331E2D",
"V  c #341D2D",
"C  c #341D2F",
"Z  c #341F2E",
"A  c #351E30",
"S  c #341F30",
"D  c #361F31",
"F  c #351E32",
"G  c #39212F",
"H  c #352031",
"J  c #372032",
"K  c #362132",
"L  c #372233",
"P  c #372235",
"I  c #392131",
"U  c #392033",
"Y  c #382133",
"T  c #392234",
"R  c #3B2235",
"E  c #392137",
"W  c #392236",
"Q  c #382336",
"!  c #3A2337",
"~  c #3C2336",
"^  c #392437",
"/  c #3D2437",
"(  c #3A2238",
")  c #3B2339",
"_  c #3B233B",
"`  c #3B2438",
"'  c #3D2439",
"]  c #3C2539",
"[  c #3E253A",
"{  c #3D263A",
"}  c #40273C",
"|  c #40273D",
" . c #41283B",
".. c #41283E",
"X. c #42293E",
"o. c #42293F",
"O. c #442B41",
"+. c #462A41",
"@. c #472B41",
"#. c #442A43",
"$. c #472B42",
"%. c #482D40",
"&. c #492C42",
"*. c #482C43",
"=. c #482B47",
"-. c #482C45",
";. c #4B2D45",
":. c #492D46",
">. c #4A2E47",
",. c #4C2F45",
"<. c #4C2E46",
"1. c #4D2F47",
"2. c #4B2F48",
"3. c #4D2F49",
"4. c #4C2F4B",
"5. c #4D3245",
"6. c #4D3046",
"7. c #4C3047",
"8. c #4E3147",
"9. c #4A3049",
"0. c #4C3049",
"q. c #4E3048",
"w. c #4F3149",
"e. c #4F3248",
"r. c #4F3349",
"t. c #4D314A",
"y. c #503347",
"u. c #523247",
"i. c #523547",
"p. c #543545",
"a. c #553447",
"s. c #543547",
"d. c #5A3A47",
"f. c #5C3C47",
"g. c #5F3E47",
"h. c #503349",
"j. c #523249",
"k. c #53334A",
"l. c #53334B",
"z. c #513448",
"x. c #51344A",
"c. c #543449",
"v. c #553648",
"b. c #563749",
"n. c #55354A",
"m. c #50324C",
"M. c #58374A",
"N. c #5A374B",
"B. c #573848",
"V. c #583948",
"C. c #593849",
"Z. c #5A3849",
"A. c #5B3B48",
"S. c #5A3A49",
"D. c #59384B",
"F. c #5A394A",
"G. c #5B3B4A",
"H. c #5D3B49",
"J. c #5A3C48",
"K. c #5B3C4B",
"L. c #5C3C49",
"P. c #5E3D48",
"I. c #5F3E49",
"U. c #5C3C4B",
"Y. c #5D3D4C",
"T. c #603F48",
"R. c #603F4A",
"E. c #5F4048",
"W. c #614047",
"Q. c #644147",
"!. c #694746",
"~. c #6A4646",
"^. c #6B4747",
"/. c #6E4B47",
"(. c #614049",
"). c #624148",
"_. c #634249",
"`. c #61404B",
"'. c #644148",
"]. c #654248",
"[. c #664349",
"{. c #64434A",
"}. c #66434A",
"|. c #654548",
" X c #674448",
".X c #664649",
"XX c #67444B",
"oX c #62414C",
"OX c #66424C",
"+X c #694748",
"@X c #6A4648",
"#X c #6B4749",
"$X c #68454B",
"%X c #69464A",
"&X c #6A464A",
"*X c #68454C",
"=X c #6A474D",
"-X c #6A4849",
";X c #6C4848",
":X c #6D4949",
">X c #6D4A48",
",X c #6D4B49",
"<X c #6E4B49",
"1X c #6C484A",
"2X c #6D494B",
"3X c #6F484B",
"4X c #6E4A4A",
"5X c #6F4B4B",
"6X c #6F4C48",
"7X c #6E4C4A",
"8X c #6F4C4A",
"9X c #6B484C",
"0X c #6C484C",
"qX c #6D494D",
"wX c #6E4A4C",
"eX c #6F4B4D",
"rX c #704A49",
"tX c #70494A",
"yX c #714B4A",
"uX c #714A4B",
"iX c #734B4B",
"pX c #704D4B",
"aX c #734D4A",
"sX c #724C4B",
"dX c #754D4B",
"fX c #714A4D",
"gX c #724B4C",
"hX c #704C4C",
"jX c #714D4D",
"kX c #734D4C",
"lX c #734C4D",
"zX c #714E4C",
"xX c #704C4E",
"cX c #754D4D",
"vX c #754F4C",
"bX c #744E4D",
"nX c #764E4C",
"mX c #774F4D",
"MX c #744D4E",
"NX c #754F4E",
"BX c #764E4E",
"VX c #774F4F",
"CX c #76504F",
"ZX c #79504E",
"AX c #785050",
/* pixels */
"X X X X X X X X X X X X X X X X X X X X X X X X X X X X X X X X X X 3 V ' $.0.0.0.0.0.3.3.>.3.0.0.0.0.0.0.0.4.4.3.3.3.3.0.0.2.*.",
"X X X X X X X X X X X X X X X X X X X X X X X X X X X X X X X X X X 3 V ' $.2.3.0.h.h.h.h.0.h.0.h.h.h.h.z.0.h.h.h.0.h.0.8.3.2.2.",
"X X X X X X X X X X X X X X X X X X X X X X X X X X X X X X X X X X 3 V ' @.0.0.c.c.c.c.C.N.C.K.N.N.C.K.C.K.N.d.c.c.c.c.h.3.0.0.",
"X X X X X X X X X X X X X X X X X X X X X X X X X X X X X X X X X X 3 V ' @.h.u.c.f.T.R.R.oXoXoXoXoXoXR.oX_.U.R.R.U.U.C.c.0.0.0.",
"X X X X X X X X X X X X X X X X X X X X X X X X X X X X X X X X X X 3 V ' @.h.c.f.T.Q.%X=X9XqX2X2XqX2XqXqXqX=X%X}.}.W.H.c.0.0.0.",
"X X X X X X X X X X X X X X X X X X X X X X X X X X X X X X X X X . 3 V ' @.h.N.R.%X<X<XfXfXMXnXxXMXnXhXMXMXnXfX7X/.}.T.d.z.0.0.",
"X X X X X X X X X X X X X X X X X X X X X X X X X X X X X X X X X X 3 M ' $.h.C.R.;XpXfXhXnXnXhXnXnXMXCXnXAXMXhXpX/.-XT.C.z.0.0.",
"X X X X X X X X X X X X X X X X X X X X X X X X X X X X X X X X X X 3 M ' $.z.C._.<XnXnXhXnXaXaXMXhXnXMXnXAXAXnXaXpX%XR.C.z.0.0.",
"X X X X X X X X X X X X X X X X X X X X X X X X X X X X X X X X X X 3 V ' @.l.K.}.5XnXhXnXyXfXyXaXpXfXaXCXAXAXnXnX<X%Xg.C.h.2.0.",
"X X X X X X X X X X X X X X X X X X X X X X X X X X X X X X X X X X 3 V ' @.z.Y.OXhXnXnXpXyXyXyXyX<XpXpXhXMXNXnXhX<X~.R.C.h.0.0.",
"X X X X X X X X X X X X X X X X X X X X X X X X X X X X X X X X X X 3 V ' @.l.Y.=XhXZXnXhXpX<X<X<X<XpXpXhXCXnXhXnXpX;X_.C.h.0.0.",
"X X X X X X X X X X X X X X X X X X X X X X X X X X X X X X X X X X 3 V ' @.l.Y.=XhXZXhXnX<X<X<X<X<X7X7X7XnXhXnXhXnX3X}.C.h.0.0.",
"X X X X X X X X X X X X X X X X X X X X X X X X X X X X X X X X X X 3 V ' $.l.Y.*XhXCXnXhX7X<X<XyX<X<X<X<XyXpXaXhXCX2X{.U.z.0.0.",
"X X X X X X X X X X X X X X X X X X X X X X X X X X X X X X X X X X 3 V ' $.z.U.OXxXCXhXnX7X<X<X<X<X<X<X<X<X7XpXCXMX5XOXK.h.0.0.",
"X X X X X X X X X X X X X X X X X X X X X X X X X X X X X X X X X X 3 V ' $.h.U.}.fXhXnX7XpX<X<X<X<X<X<X<XyXpXhXnXnX2X}.H.l.0.0.",
"X X X X X X X X X X X X X X X X X X X X X X X X X X X X X X X X X X 3 V ' $.h.C._.2XnXhX7X7X<X<X<X<X<X<X/.7X7X7X7XfX2X_.C.h.9.3.",
"X X X X X X X X X X X X X X X X X X X X X X X X X X X X X X X X X X 3 V ' $.0.C.Q.%X<X<X<X<X<X<X<X<X<X<X<X<X<X<X<XyX<XW.N.h.0.0.",
"X X X X X X X X X X X X X X X X X X X X X X X X X X X X X X X X @ X 3 V ' *.z.C.W.%X<X<X<X<X<X<X<X<X<X<X<X<X<X<X<X<X%XW.C.h.0.0.",
"X X X X X X X X X X X X X X X X X X X X X X X X X X X X X X X X X X 3 V ' $.z.C.W.-X<X<X<X<X<X<X<X<X<X<X<X<X<X<X<X<X~.U.C.h.0.0.",
"X X X X X X X X X X X X X X X X X X X X X X X X X X X X X X X X X X 3 V / $.z.C.W.-X<X<X<X<X<X<X<X<X<X<X<X<X<X<X<X<X~.g.C.h.0.0.",
"X X X X X X X X X X X X X X X X X X X X X X X X X X X X X X X X X X 3 V  .o.u.C.W.!./.<X<X<X<X<X/.<X<X/.-X/./.<X/./.~.E.C.h.0.0.",
"X X X X X X X X X X X X X X X X X X X X X X X X X X X X X X X X X X 3 b / o.u.a.U. X!.~.~.~.~.~.~.~.~.~.-X~.^.^.~.-X}.g.C.h.0.0.",
"X X X X X X X X X X X X X X X X X X X X X X X X X X X X X X X X . . < c R o.6.i.d.g.}.Q.}.Q.}.Q.}.Q.}.}.Q.Q.Q.Q.}.W.W.f.a.0.0.0.",
"X X X X X X X X X X X X X X X X X X X X X X X X X X X X X X X X X X < k T  .o.8.i.d.f.U.f.d.d.f.d.C.g.d.U.f.U.f.C.f.K.C.z.8.0.0.",
"X X X X X X X X X X X X X X X X X X X X X X X X X X X X X X X X X X < p K ' ..*.8.a.a.a.a.i.l.a.a.c.a.i.a.a.a.u.z.a.u.u.8.7.2.2.",
"X X X X X X X X X X X X X X X X X X X X X X X X X X X X X X X X @ X < s k ! ' o.o.>.<.8.<.8.<.3.8.<.<.3.8.<.8.<.8.8.3.>.>.8.>.>.",
"X X X X X X X X X X X X X X X X X X X X X X X X X X X X X X X X @ X < 3 a H T ' ' $.-.-.>.-.=.-.>.-.-.-.-.-.=.=.>.-.-.-.-.>.-.-.",
"X X X X X X X X X X X X X X X X X X X X X X X X X X X X X X X X . X X 3 0 p b T _ O.O.$.O.O.#.#.O.O.#.#.O.O.#.#.O.O.O.#.#.#.#.O.",
"X X X X X X X X X X X X X X X X X X X X X X X X X X X X X X X X X X X = < 3 p c T ' ..| | | | | [ | | | | | | | } } O.| [ [ ..| ",
"X X X X X X X X X X X X X X X X X X X X X X X X X X X X X X X X X X X = < < 4 c V ! _ ! _ ' ' ' _ _ _ _ ' ' ' _ _ _ _ ' _ _ _ ` ",
"X X X X X X X X X X X X X X X X X X X X X X X X X X X X X X X X X X X = 3 4 p p M K F F D D D D D D K D D D D D D D D D D K K T ",
"X X X X X X X X X X X X X X X X X X X X X X X X X X X X X X X X X X @ 3 p d M c c c b j j j l l l k k k j l l j k k k k k k M D ",
"X X X X X X X X X X X X X X X X X X X X X X X X X X X X X X X X @ X = 4 z H K c f p 3 3 9 3 3 3 3 3 3 3 3 3 3 3 3 7 3 3 3 3 9 k ",
"X X X X X X X X X X X X X X X X X X X X X X X X X X X X X X X X X X < 0 c ! ^ M p 3 ; ; # < # < < < # < # < < < # < # < < < 3 k ",
"X X X X X X X X X X X X X X X X X X X X X X X X X X X X X X X X X X < w V ^ ^ D p ; X X X X X X X X X X X X X X . X X X X X < p ",
"X X X X X X X X X X X X X X X X X X X X X X X X X X X X X X X X X X < p D ! _ M p < X X X X X X X X X X X X X X X X X X X X 2 p ",
"X X X X X X X X X X X X X X X X X X X X X X X X X X X X X X X X X X < p V ! ! D s ; X X . @ . @ X X X X X X X X X X X X X X 2 p ",
"X X X X X X X X X X X X X X X X X X X X X X X X X X X X X X X X X X # p D ^ ! D p < X X @ . @ . X X X X X X X X X X X X X X 2 p ",
"X X X X X X X X X X X X X X X X X X X X X X X X X X X X X X X X X X < p V ! ! M p = . @ . @ . @ X X X X X X X X X X X X X X 2 9 ",
"X X X X X X X X X X X X X X X X X X X X X X X X X X X X X X X X . X < s D ^ _ D p < . . @ . @ + X X X X X X X X X X X X X X 3 p ",
"X X X X X X X X X X X X X X X X X X X X X X X X X X X X X X X X X X < p H P ! V p < . X X X X X X X X X X X X X X X X X X X 3 p ",
"X X X X X X X X X X X X X X X X X X X X X X X X X X X X X X X X . X # p M T P k p ; X X X X X X X X X X X X X X X X X X X X 2 p ",
"X X X X X X X X X X X X X X X X X X X X X X X X X X X X X X X X X X # 3 k M V s 3 < X X X X X X X X X X X X X X X X X X X X ; 7 ",
"X X X X X X X X X X X X X X X X X X X X X X X X X X X X X X X X X . = 3 0 p d p 3 # X X X X X X X X X X X X X X X X X X X X = < ",
"X X X X X X X X X X X X X X X X X X X X X X X X X X X X X X X X X X # + 3 3 3 3 2 . X X X X X X X X X X X X X X X . X X X X X = ",
"X X X X X X X X X X X X X X X X X X X X X X X X X X X X X X X X X X . + < 4 < < = O X X X X X X X X X X X X X X X X X X X X X @ ",
"X X X X X X X X X X X X X X X X X X X X X X X X X X X X X X X X X @ X # 3 3 w < = # . X X X X X X X X X X X X X X X X X X . + = ",
"X X X X X X X X X X X X X X X X X X X X X X X X X X X X X X X X . X < 3 0 d s p < . X X X X X X X X X X X X X X X X X X X . < 3 ",
"X X X X X X X X X X X X X X X X X X X X X X X X X X X X X X X X X X = p a H H s 7 ; X X X X X X X X X X X X X X X X X X X X < 3 ",
"X X X X X X X X X X X X X X X X X X X X X X X X X X X X X X X X X . < 0 c T T M p < X X X X X X X X X X X X X X X X X X X X ; p ",
"X X X X X X X X X X X X X X X X X X X X X X X X X X X X X X X X X X < p M ` Q D p ; X X X X X X X X X X X X X X X X X X X X ; 7 ",
"X X X X X X X X X X X X X X X X X X X X X X X X X X X X X X X X X X = w H ` ! D p < X X X X X X X X X X X X X X X X X X X . = 3 ",
"X X X X X X X X X X X X X X X X X X X X X X X X X X X X X X X X X X < f M ^ ! V 7 < . X X X X X X X X X X X X X X X X X X X X = ",
"X X X X X X X X X X X X X X X X X X X X X X X X X X X X X X X X X X = 7 c ! K c p < X X X X X X X X X X X X X X X X X X X X X X ",
"X X X X X X X X X X X X X X X X X X X X X X X X X X X X X X X X   X ; 0 s V M k 9 ; X X X X X X X X X X X X X X X X X X X X X . ",
"X X X X X X X X X X X X X X X X X X X X X X X X X X X X X X X X X X @ < 0 f p p 3 X X X X X X X X X X X X X X X X X X X X X X X ",
"X X X X X X X X X X X X X X X X X X X X X X X X X X X X X X X X @ X # + = < < = = X = X X X X X X X X X X X X X X X X X X X X X ",
"X X X X X X X X X X X X X X X X X X X X X X X X X X X X X X X X X X # X = < < @ X X X X X X X X X X X X X X X X X X X X X X X X ",
"X X X X X X X X X X X X X X X X X X X X X X X X X X X X X X X X X X X X X X . X X X X X X X X X X X X X X X X X X X X X X X X X ",
"X X X X X X X . X X X X X X X X X X X . X X X X X X X X X X X . X X X X X X X X X X X . X X X X X X X X X X X . X X X X X X X X ",
"X . . X X X X . . . X X X . . X X X X . . . X X X . . X X X X . . . X X X . . X X X X . . . X X X . . X X X X . . . X . X . . X ",
"< < < < > > < < < < < > < < < < > > < < < < < > < < < < > > < < < < < > < < < < > > < < < < < > < < < < > > < < < < < ; < < < < ",
"f f f f f f f f f f f f f f f f f f f f f f f f f f f f f f f f f f f f f f p k f f f f f f f f f f f f f f f f f f f f f f p f ",
"I I G D I I G D T G I I I I G D I I G D T G I I I I G D I I G D T G I G D T G D I I G D T G I G I I G D I I G D T G T G G T D T "
};
