/* XPM */
static char *map_35_64x641745259708[] = {
/* columns rows colors chars-per-pixel */
"64 64 48 1 ",
"  c #241417",
". c #241319",
"X c #29151E",
"o c #2B181E",
"O c #2A1722",
"+ c #2D1B25",
"@ c #2F1A29",
"# c #301A27",
"$ c #321C2B",
"% c #361F31",
"& c #39222F",
"* c #372032",
"= c #3A2233",
"- c #3C2439",
"; c #40273D",
": c #42293E",
"> c #413239",
", c #48393E",
"< c #452A42",
"1 c #4A2D46",
"2 c #4C2F48",
"3 c #4E3146",
"4 c #4B3C41",
"5 c #4D3149",
"6 c #543547",
"7 c #523449",
"8 c #583749",
"9 c #573848",
"0 c #5B3A49",
"q c #613D47",
"w c #603F48",
"e c #54434D",
"r c #5F4048",
"t c #5D4857",
"y c #624147",
"u c #6B4747",
"i c #6E4946",
"p c #64424A",
"a c #6A4649",
"s c #6E4B49",
"d c #734D4C",
"f c #76504E",
"g c #64595D",
"h c #756A6E",
"j c #7D7276",
"k c #7E7379",
"l c #83767F",
"z c #8A7A84",
/* pixels */
"115555525555555522222222221-$OX......... ..... ..............X:g",
"15555557565775757877277722<-$OX....................... .......,h",
"555566696088008088qq887722<%$O.. ...... .....................o,l",
"5556000ryppwwwwtqqqq0008721-$O. .............................#,h",
"25580ppadwdwdtddidqqqqqq72:-$OX..............................#,l",
"5558ypasddfdffddddfdilqq82<-$O.............. ... ............#,j",
"2560pasdfffffdddddddiiqq821-$OX..... ................. . ... +,l",
"5578yasfdfffdddddddddddqq2<=%O.......... ... .............   o,j",
"5550rasddfffdffdiiiifddqq6:=$OX...................... . .....+4j",
"5570pasddffddwddiiidfffq88:;$O.......... ....................#4j",
"5570psdddfddddqdiiidifdq87:=$O .... ............ ........... +4j",
"5570psddddddsaddlqddffdq87:;%O........................ ..... +4j",
"5570pdddddddssssdiddillqq71-$O ............................. +ej",
"558easdddssssssdiiidiquq87<-%OX........ .............. ......+,j",
"5570psddsssissssididiifq87<=$O... ........................ . +,j",
"5570piddsssiisssdiidiiqq87<=$O........... ................   +4j",
"5570pasdsssssssssdsssiiy03:=$O.... ..........................+4j",
"5570tasissssssississssir83<;$OX........... ..... ............O4j",
"5570yaaisssssssssisssiur83:;$O............. ................ +4j",
"5570yadssssssssssdsssiur87<=$# ....... ..................... +4j",
"5560waaiiiiisiiissiisuae96:=$OX............................. +ej",
"5559wauuuuuuaaiiiuuiuuyr91:=$O.......................... ....+,j",
"55390ypppuyappppyyuypyr071<%+O.............................. o,j",
"5236000000000000000000967<-%@O........... ................   oej",
"225557666666776666666673::-&@O.................. ...... .... +4j",
"22212222521222223313221<:-=$OO.......... ..... ..............+4j",
"1<111<1<<111<<111<111<<<-*$+OO.............................. +4j",
"<<<<<<<<<<<<<<<<<<<<<<--*$++O................................+4j",
";;;;;;;;;;;;;;<--;;;;--%$+OX..... ......................... .+eh",
"----------------------%%@+OXX.......... ................... .+ej",
"-*%%***%*%%%%%%%***%*%%%@+++X....... ..................... o +-j",
"$$@$@@$$@$$$$@%@@@$$$$@@$$++O.......... . ...... ...... ..   +4j",
"@@OXOXOOOOOOOOOOOOOOO@@+$%$$O.X... ...........................>k",
"@OXXXXX.XXXXO...XXXX..X$%%%%OXX...............................,k",
"@XX...................O+$%%%OO...............................+,k",
"@XX...................O+%%%$@XX......... ...... .............+,k",
"OXX...................@$%-%%@.X..............................+ej",
"OX....................X+%;*%@............................ ...+,j",
"OO.. ............. ...O+%-=%OO.............................. +,k",
"O.....................O#%-*$@XX............ .................+,k",
"..................... O+%%%%+O...............................+4k",
"X........ ............X+%%%%+X....... .................... ..+,j",
"X....................XX++$@@OX.............................. +4k",
"O.....................XO++@+O........ . .................... +,j",
"OX.....................XOOO.O......................... ..... +ej",
"@X................. .....OOO........... ................. .. +,j",
"O.....................XXOOOOO........ .................... . +,k",
"O........ ............XO@+@OO.............................   +,k",
"......................XO$%$$OO............... ....... ...... +,k",
"......................X#$%%$OX...............................+,k",
"......................X#%*%%+XX.............. .............. +4j",
"................. ....O#%-*%+XX........... ..................+4j",
"......................OO%*%$+OX..............................+4j",
"......................O#$*%$@X............. .................+4j",
".....................XXO@%$@O............................... +4j",
"......................XX++++O........................ .....  +4j",
"......................XXXOXXX...... ............ ......... ..+4k",
".........................XXX....................X............+4j",
"..................  ........................................ +4j",
"................    ................ . ..................... +4j",
"................  XX........................... ....  .....  +4k",
"XXXXXXXXXXXX..XXXXXXXXXXXXXXXXXXXXXX.XXXXXXXXXXX.OXXOOO.O.OOo+ek",
"#############$@@oo#######$########$##$############+$+++++++@+*ek",
";$;%=&=%&==%%%%%;%%;%&==%%%%&==&&&=&%%%%%&=%&==%&==%======**->tz"
};
