/* XPM */
static char *map_31_64x641745259708[] = {
/* columns rows colors chars-per-pixel */
"64 64 242 2 ",
"   c #231218",
".  c #241319",
"X  c #24131B",
"o  c #231419",
"O  c #25141A",
"+  c #24151A",
"@  c #26151B",
"#  c #27131C",
"$  c #25141C",
"%  c #26151D",
"&  c #27161E",
"*  c #29161C",
"=  c #29151E",
"-  c #28141F",
";  c #2A161F",
":  c #291520",
">  c #281721",
",  c #2A1621",
"<  c #2B1722",
"1  c #2D1723",
"2  c #2C1823",
"3  c #2C1824",
"4  c #2D1924",
"5  c #2D1925",
"6  c #2F1925",
"7  c #2E1A26",
"8  c #2F1B27",
"9  c #301A26",
"0  c #311B27",
"q  c #321B2B",
"w  c #331D2A",
"e  c #331C2C",
"r  c #351F2C",
"t  c #341F2E",
"y  c #361F2F",
"u  c #3C2432",
"i  c #3A2134",
"p  c #3B2235",
"a  c #3C2336",
"s  c #3B2436",
"d  c #3F2435",
"f  c #3D2437",
"g  c #3E2538",
"h  c #3F2639",
"j  c #3E2739",
"k  c #3E253A",
"l  c #3F263B",
"z  c #402538",
"x  c #43273E",
"c  c #45273F",
"v  c #41283E",
"b  c #472A3C",
"n  c #482C3B",
"m  c #482B3F",
"M  c #432A40",
"N  c #452940",
"B  c #472941",
"V  c #462A41",
"C  c #452942",
"Z  c #472B42",
"A  c #462A43",
"S  c #462D42",
"D  c #472E43",
"F  c #472B44",
"G  c #462C45",
"H  c #472E44",
"J  c #482A42",
"K  c #482C43",
"L  c #492D43",
"P  c #492D44",
"I  c #482C45",
"U  c #4A2E45",
"Y  c #492D46",
"T  c #4A2C46",
"R  c #4B2F46",
"E  c #4A2E47",
"W  c #4C2E46",
"Q  c #4D2F47",
"!  c #4F2F47",
"~  c #4B2F48",
"^  c #4B2E4A",
"/  c #4D2F49",
"(  c #4C2F4B",
")  c #4D3046",
"_  c #4C3047",
"`  c #4E3147",
"'  c #4F3246",
"]  c #4A3049",
"[  c #4B314A",
"{  c #4A304B",
"}  c #4D3148",
"|  c #4C3049",
" . c #4E3048",
".. c #4F3149",
"X. c #4F3248",
"o. c #4D314A",
"O. c #4E324B",
"+. c #4D304C",
"@. c #523343",
"#. c #523440",
"$. c #503045",
"%. c #513244",
"&. c #503347",
"*. c #523247",
"=. c #543547",
"-. c #5A3A47",
";. c #5C3B46",
":. c #5D3C45",
">. c #5D3C47",
",. c #5E3D46",
"<. c #5F3E47",
"1. c #503048",
"2. c #513148",
"3. c #503349",
"4. c #533348",
"5. c #523249",
"6. c #53334A",
"7. c #513448",
"8. c #523549",
"9. c #533648",
"0. c #51344A",
"q. c #543449",
"w. c #553648",
"e. c #543749",
"r. c #563749",
"t. c #55354A",
"y. c #54344B",
"u. c #54374B",
"i. c #56364B",
"p. c #55354C",
"a. c #56364D",
"s. c #58374A",
"d. c #57384A",
"f. c #593849",
"g. c #583949",
"h. c #5B3949",
"j. c #5B3B48",
"k. c #5A3A49",
"l. c #59384B",
"z. c #58394B",
"x. c #5A394A",
"c. c #593A4A",
"v. c #5B3B4A",
"b. c #5B3A4B",
"n. c #5A3C48",
"m. c #5D3D48",
"M. c #5C3C49",
"N. c #5E3D48",
"B. c #5F3E49",
"V. c #5D3D4A",
"C. c #5C3C4B",
"Z. c #5F3D4B",
"A. c #5F3F4A",
"S. c #5E3E4B",
"D. c #5C3D4C",
"F. c #5D3D4C",
"G. c #5F3F4C",
"H. c #5E3E4D",
"J. c #603F48",
"K. c #603F4A",
"L. c #613F4D",
"P. c #633F4D",
"I. c #684647",
"U. c #614049",
"Y. c #61404B",
"T. c #62414A",
"R. c #63424B",
"E. c #654249",
"W. c #664349",
"Q. c #64404A",
"!. c #65414B",
"~. c #64434A",
"^. c #66434A",
"/. c #674448",
"(. c #67444A",
"). c #67444B",
"_. c #62414C",
"`. c #66424C",
"'. c #67434D",
"]. c #66454C",
"[. c #68434A",
"{. c #694748",
"}. c #68454B",
"|. c #69464A",
" X c #6A464A",
".X c #6B474B",
"XX c #68454C",
"oX c #6A454C",
"OX c #69464C",
"+X c #69464D",
"@X c #6B464D",
"#X c #68444E",
"$X c #6C474E",
"%X c #6A4849",
"&X c #6C4848",
"*X c #6D4949",
"=X c #6F4849",
"-X c #6D4A48",
";X c #6D4B49",
":X c #6E4B49",
">X c #6C484A",
",X c #6D494B",
"<X c #6D4B4A",
"1X c #6E4A4A",
"2X c #6F4B4B",
"3X c #6F4C48",
"4X c #6E4C4A",
"5X c #6F4C4A",
"6X c #6F4D4B",
"7X c #6B484C",
"8X c #6B484E",
"9X c #6C484C",
"0X c #6D494D",
"qX c #6E4A4C",
"wX c #6F4B4D",
"eX c #6F4B4F",
"rX c #704A49",
"tX c #714B4A",
"yX c #734B4B",
"uX c #704D4B",
"iX c #724C4B",
"pX c #754D4B",
"aX c #724B4C",
"sX c #724B4E",
"dX c #704C4C",
"fX c #714D4D",
"gX c #734D4C",
"hX c #734C4D",
"jX c #704C4E",
"kX c #714D4F",
"lX c #754D4D",
"zX c #754F4C",
"xX c #744E4D",
"cX c #764E4C",
"vX c #774E4C",
"bX c #774F4D",
"nX c #744D4E",
"mX c #754F4E",
"MX c #764E4E",
"NX c #774F4F",
"BX c #76504F",
"VX c #785050",
/* pixels */
"| ] ~ _ | | | | | | / | | | | | / | | / / ~ b s e < O . O .   . . . . . . . . . . . . . . . . . . . . . . . . . . . . . . O < 3 ",
"| | | | O.2.| 2.| | &._ _ | | 2./ &.&./ / R ) z t 3 = $ O O . . . . . . . . . . . . . . . . . . . . . . . . . . . . . . . O < 0 ",
"| { _ 0.2.t.d.u.b.t.r.r.r.=.t.b.d.t.=.=.s.t.%.n u w 9 < = O . . . . . . . . . . . . . . . . . . . . . . . . . . . . . . o X < 3 ",
"| ] 2.t.b.S.Y.Y.K.Y.Y.Y.Y.Y.Y.S.:.S.:.S.K.K.-.m n z r 9 3 $ . . . . . . . . . . . . . . . . . . . . . . . . . . . . . . o X < w ",
"| | 0.b.Y.].7X9X$X$X%X%X,X>X.X.X.X^.^..X.XXX].:.%.m a y 9 : $ . . . . . . . . . . . . . . . . . . . . . . . . . . . . .   O = 0 ",
"| | 2.S.`.jXfXNXNXfXNXNXNXfXNX,X,X,X%X,X,XiX.XY.s.%.c u q : X # . . . . . . . . . . . . . . . . . . . . . . . . . . . . . O < 8 ",
"| | 0.S.XXfXVXcXcXcXBXfXNXNXfXcX6X6X6X3XNXiX,X^.C.&.m a e < . . . . . . . . . . . . . . . . . . . . . . . . . . . . . . o X < 3 ",
"| O.0.G.XXjXNXNXtXcXNXiXiXfXiXtX3X3X,X3XiX3X,XY.b.) c a e < #   . . . . . . . . . . . . . . . . . . . . . . . . . . .   o X < w ",
"| | 0.b.XX6XiXBXcXtXiX3X6X6X6X,X3X%X3X3X3X3X%XY.b._ b a e < O . . . . . . . . . . . . . . . . .   O   O   O   O . . . . . O = 0 ",
"| | 0.G.XX6XBXNXiXtX3X,X3X3X3X3X3X,X6X,X3X%XI.J.-._ A a e < O . . . . . . . . . . . . . . . . . O   O   O   O   . . . . . O < 8 ",
"| | 0.G.XXeXNXiXiXiX-X3X,X3X,X3X3X3X3X,X6X-XI.J.s._ A a e < O . . . . . . . . . . . . . . . . .   O   O   O   O . . . . X O < 3 ",
"| O.0.G.XXfXBXfXNX,X3X-X3X3X,X3X3X%X3X3X,X,X-X:.s.&.J a e < O . . . . . . . . . . . . . . . . . O   O   O   O   . . . . o O < 0 ",
"| | t.G.XXeXNXNXiXjX3X7X3X3X3X9X,X3X3X3X,X-XI.J.h._ J a e < O . . . . . . . . . . . . . . . . .   O   O   O   O   O   O o O < 3 ",
"| | 0.G.].fXNXfXfX6X3X3X%X3X3X3X3X3X%X3X-X-XI.J.h.R b a e < O . . . . . . . . . . . . . . . . . O   O   O   O   O   O     O < 0 ",
"~ | 0.G.].6XNXfXcXtX3X3X3X7X3X7X3X,X3X,XiX-XI.J.s.&.A a e < O . . . . . . . . . . . . . . . . .   O   O   O   O   O   O   O < 8 ",
"Y ] X.G..X9XNXNXiXtX7X3X3X3X3X3X3X,X3X3X-X-XI.J.-._ A a e < O . . . . . . . . . . . . . . . . . O   O   O   O   O   O   O O < 8 ",
"G _ 0.S.].jXNXfXiXiX3X3X,X3X3X3X3X,X3X3X6X3XI.J.h.R m a q < O . . . . . . . . . . . . . . . . .   O   O   O   O   O   O   O = 8 ",
"L Y 0.G.].fXNXNXiXiX,X3X,X3X%X3X3X3X%X3X,X%XI.J.b._ A a q < O . . . . . . . . . . . . . . . . . O   O   O   O   O   O   O O < 8 ",
"Y Y 0.S.XX6XfXcXiXiX,X3X3X3X3X3X%X,X3X3X3X-XI.J.h.R A a e < O . . . . . . . . . . . . . . . . .   O   O   O   O   O   O O O < 3 ",
"L | t.S.XXfXBXfXiXiX3X3X3X%X3X,X3X6X3X,X3X,XI.J.h.R A a e < O . . . . . . . . . . . . . . . . . O   O   O   O   O   O     O < 8 ",
"] | 0.b.XXjXNXfXfXiX,X,X3X3X3X,X3X3X3X3X,X-XI.<.s.&.b a e < O   . . . . . . . . . . . . . . . .   O   O   O   O . . . . O O < 3 ",
"_ | 0.G.XXjXNXNXiX3X3X3X,X,X3X3X3X9X3X%X3X-XI.<.-._ A a e < O O . . . . . . . . . . . . . . . . O   O   O   O   . . . .   O < w ",
"Y | 0.G.XX6XfXNXcXiX3X,X3X3X,X3X7X3X3X3X3X%XI.J.b._ A p e < O   . . . . . . . . . . . . . . . .   O   O   O   O . . . . X O < 3 ",
"Y | 0.G.XX3XBXiXiX,X3X3X3X,X3X-X3X3X,X3X3X3XI.J.-._ A f e < O O . . . . . . . . . . . . . . . . O   O   O   O   . . . . o X < 8 ",
"G R 7.G.XXjXNXBXiX3X3X,X,X-X3X,X7X,X3X3X-X-XI.K.b._ J a e < O   . . . . . . . . . . . . . . . . . . . . . . . . . . . . . O = 8 ",
"L Y 2.C.^.jXfX9X3X,X-X%X&X&X-X&X%X,XI.-X&X,XI.:.s._ A a e < O O . . . . . . . . . . . . . . . . . . . . . . . . . . . . . O < 8 ",
"L Y 0.b.K.XX>X.X.X^.^.^.^.^.^.[.^.^.]./.^.^.Y.n.=._ b a e < O   . . . . . . . . . . . . . . . . . . . . . . . . . . . . X O < 3 ",
"F _ | t.-.S.K.Y.S.S.:.:.:.S.:.:.:.:.:.:.:.:.-.s.t.R A a e < O O . . . . . . . . . . . . . . . . . . . . . . . . . . . . o O < 0 ",
"A Y | 0.t.t.s.t.t.t.t.t.t.t.t.t.t.t.t.p.t.t.t.2.! R A p e < O   . . . . . . . . . . . . . . . . . . . . . . . . . . . . . O = 8 ",
"F ~ | | 2.| _ | R R / 2.2._ _ | R / / 2.&.| | / | / b a e < O O . . . . . . . . . . . . . . . . . . . . . . . . . . . . . O < 8 ",
"F ~ | | | | | | | | | | / | | | | | | | / ] | | | ~ A a e < O   . . . . . . . . . . . . . . . . . . . . . . . . . . . . o X < 3 ",
"F Y | | | | | | | | | | | | | | | | | | / / | | | ~ A a e < O O . . . . . . . . . . . . . . . . . . . . . . . . . . . . . X < w ",
"I Y | | | | | | | | | | | | | | / / | | | | | | ~ ~ A u e < O . . . . . . . . . . . . . . . . . . . . . . . . . . . . . . O = 0 ",
"A / | / | 2.| | &.| | | &.| 2.| R &.2._ 2.| | | | ~ b a e < O . . . . . . . . . . . . . . . . . . . . . . . . . . . . . . . < 8 ",
"A Y R 6.0.t.t.b.s.d.b.d.s.t.t.t.t.t.=.=.d.d.p.0.| R A a e < O . . . . . . . . . . . . . . . . . . . . . . . . . . . . . X O < 8 ",
"x L &.t.b.K.Y.Y.Y.Y.Y.Y.`.Y.K.K.S.C.n.S.K.Y.:.b.t./ J a e < @ . . . . . . . . . . . . . . . . . . . . . . . . . . . . . X O = 8 ",
"k Y 7.b.L.XX$X9X9X9X9XeX%X9X.X.X[././.[..X.X^.S.b._ J f e < @ . . . . . . . . . . . . . . . . . . . . . . . . . . . . . o O = 8 ",
"k D 0.n.`.6XNXfXMXMXeXMXNXfXfXjX,X-X,X,X,XtX9X`.b._ J a e < O . . . . . . . . . . . . . . . . . . . . . . . . . . . . . . O < 8 ",
"z L 7.S.XXfXVXcXcXNXBXNXNXNXNXfX6X6X3XiXyXNXtXP.C.&.b a e < O . . . . . . . . . . . . . . . . . . . . . . . . . . . . . X O < 3 ",
"v Y 0.S.XXiXBXcXiXiXcXfXfXfXiX3X,X3X3X3XtXtX&XP.h.2.A a e < O . . . . . . . . . . . . . . . . . . . . . . . . . . . . . o O < 0 ",
"A Y t.G.`.eXNXNXiXiXiX3X3XfX6X,X3X3X6X,X3X3X%XY.h.R m a q < O . . . . . . . . . . . . . . . . . . . . . . . . . . . . . . O = 8 ",
"A Y 2.G.XXfXBXfXcXtX3X,X3X3X3X3X3X,X3X3X3X%XI.Y.b._ A a q < O . . . . . . . . . . . . . . . . . . . . . . . . . . . . . . O < 8 ",
"A Y 6.C..XfXNXfXfXiX,X3X3X7X3X7X3X3X,X%X,X-XI.J.h.R b a e < O . . . . . . . . . . . . . . . . . . . . . . . . . . . . . o X < 3 ",
"b D t.S.].fXfXNXiX3X3X3X<X3X3X3X,X3X3X3X3X-X%XJ.b._ A a e < O . . . . . . . . . . . . . . . . . . . . . . . . . . . . . . X < w ",
"k L | G.].fXNXNXiXtX,X,X7X3X7X3X3X,X3X%X3X-XI.<.-._ J a e < O . . . . . . . . . . . . . . . . . . . . . . . . . . . . . . O = 0 ",
"k L 7.D.XX9XNXfXcXtX3X3X3X3X3X3X,X6X3X3X,X-X-X<.s.&.A a e < O . . . . . . . . . . . . . . . . . . . . . . . . . . . . . . . < 8 ",
"z Y 0.G.].fXNXiXNX,X7X3X3X3X9X3X3X3X,X3X3X%XI.:.s._ A a e < O . . . . . . . . . . . . . . . . . . . . . . . . . . . . . X O < 8 ",
"v Y 2.G.XXfXBXfXfX6X3X3X3X7X3X3X3X%X3X3X3X;XI.J.-._ A a e < # . . . . . . . . . . . . . . . . . . . . . . . . . . . . o X O = 8 ",
"A Y =.S.XXjXNXNXiX,X3X,X3X3X3X3XiX3X,X%X3X,XI.J.b._ m f e < . . O   O   O   O   O   O   O   O   . . . . . . . . . . . . . O = 8 ",
"A ) 2.G.].fXNXfXiXiX3X,X3X%X3X,X,X6X3X3X3X3XI.J.d._ b f e < . .   O   O   O   O   O   O   O   O . . . . . . . . . . . . . O < 8 ",
"b Y t.G.XXfXBXiXcXtX,X3X3X,X3X%X%X3X3X3X%X3XI.<.b._ A p e < O . O   O   O   O   O   O   O   O   . . . . . . . . . . . . X O < 3 ",
"v Y 2.D.].6XBXNXiXiX3X3X3X6X3X3X3X3X,X3X3X,XI.<.-._ A s r < O .   O   O   O   O   O   O   O   O . . . . . . . . . . . . o O < 0 ",
"l G 7.S.].fXBXiXiXiX3X,X,X%X3X6X3X3X,X%X3X-XI.:.s._ b a e < O . O   O   O   O   O   O   O   O   . . . . . . . . . . . . . O = 8 ",
"k L 0.D.XX9XBXiXfX,X3X3X3X3X3X,X3X,X3X3XtX-XI.J.s.&.A a e < $ .   O   O   O   O   O   O   O   O . . . . . . . . . . . . . O < 8 ",
"k L 7.S.XXeXBXNXcXiX3XfXiXiX3X3X3X,X3X3XtXtXI.U.-._ A a e < . . O   O   O   O   O   O   O   O   . . . . . . . . . . . . o X < 3 ",
"f Y 7.S.XXfXVXNXNXNXcXfXfXfXfXfX3X,X6XiXtXtX-XY.b.R m a e < . .   O   O   O   O   O   O   O   O . . . . . . . . . . . . . X < w ",
"k L 2.S.^.jXNXcXcXcXcXfXNXNXcXtXiX3X3XiXiXiX,XY.b.2.b a w < O . O   O   O   O   O   O   O   O   O   O   O   O   . . . . . O = 0 ",
"z A 0.b.`.jXjXNXNXfXNXfXNXjXiX,X,X&X,X,XjXfX$X^.s.2.A a w < O .   O   O   O   O   O   O   O   O   O   O   O   O . . . . . . & 8 ",
"f L 2.b.Y.XX$X$X.X$X>X$X.X,X,X.X.X^.^..X.X[.'.S.d._ A a e < O . O   O   O   O   O   O   O   O   O   O   O   O   . . . . O O & 3 ",
"f L _ 0.b.S.K.L.K.L.L.L.L.Y.K.S.S.C.-.S.S.K.C.h.0._ A a e < O o   O   O   O   O   O   O   O   O   O   O   O   O . . . . O O & 3 ",
"f J | 2.t.u.b.b.d.d.d.d.d.d.t.d.t.t.t.-.t.b.t.0.0.R J a e < O X O   O   O   O   O   O   O   O   O   O   O   O   O   O   O O = 2 ",
"j L ] | 2._ | | | 2.| 2.| 2.2.| | 2._ | _ | 2.| _ _ A a e < O X   O   O   O   O   O   O   O   O   O   O   O   O   O   O o O = 2 ",
"k A | | | | | | | | | | | | | | | | _ | _ | | / | | b a e < O   O   O   O   O   O   O   O   O   O   O   O   O   O   O   O O = 2 ",
"z A ~ | | | | | | | | | | | | | | | | | | | | | | Y A a e < O O   O   O   O   O   O   O   O   O   O   O   O   O   O   O O O & 3 "
};
