/* XPM */
static char *map_7_64x641745259705[] = {
/* columns rows colors chars-per-pixel */
"64 64 52 1 ",
"  c #241417",
". c #24131A",
"X c #28151E",
"o c #29181E",
"O c #2B1721",
"+ c #2D1923",
"@ c #2F1D28",
"# c #301C24",
"$ c #331E2B",
"% c #361F31",
"& c #36212C",
"* c #3A242D",
"= c #3D282F",
"- c #372031",
"; c #3A2433",
": c #3E2933",
"> c #3E263A",
", c #3F283B",
"< c #442D36",
"1 c #482E37",
"2 c #40273C",
"3 c #432B3B",
"4 c #482D3C",
"5 c #46303B",
"6 c #4C343E",
"7 c #51363F",
"8 c #452A42",
"9 c #4A2E43",
"0 c #4C2F49",
"q c #4D3441",
"w c #4F3840",
"e c #4D3049",
"r c #553741",
"t c #563840",
"y c #5C3D44",
"u c #53344A",
"i c #573848",
"p c #5A3A4A",
"a c #563552",
"s c #5A3755",
"d c #5C3A54",
"f c #613F4C",
"g c #643F50",
"h c #634347",
"j c #694746",
"k c #6B4947",
"l c #654349",
"z c #69464A",
"x c #6E4A49",
"c c #734E4D",
"v c #75504F",
"b c #624050",
/* pixels */
"eeeeeeeeee00000000uuassa000000uuaassssssssssssssssss0000ee0eeeue",
"ee00eeeeeeeeu0ue000uaaaaa00u000uaasassssddsssssssssaaueeue0e0e0a",
"ee0eeuiuiiuiuuuuruifagappiiuuirfpsgfgsgsddddddgddddspuuiuiu0u00e",
"eeeuipyfypypffyyftffgffgftfftfffggggggggbbbgbbbblbbffypyyppiue0e",
"e9epphhhjffjfjfjjfjfjgkjffjjffjfzzzzgzzzzzlzzzzkzzzzzlllllhpuue0",
"eeepfzxkkxxxkkkkxkjxkkjxgkxxkkkkzkkkzzzzxkxkkkkxkzxxkzxxkklyieee",
"00epyzxxxxxxxxxxxxxxxxxxcxxxckxxxxxxxxcxxxkcckxxxxxxxxxxxxkhpu0e",
"00ephzxxxxxxxxxxxcxxxxxxxxxxkcxxxxxcxxxxxxxxxxxxxxxxxxxxxxkyieee",
"00upfjxcxxxxxxxxxxxxxcxxxxxxxxxxcxxxxxxxxxxxxxxxxxxxkkkcxxjfiu0e",
"e0epfjxxxxxxxxxcxxxxxxxkcxxxxxxcxxxxxxxxxxxxxxxxxxxxcckkxxjfiue9",
"0eutfkcccxxcxccccxcccxxcxcxcccccxxvxxcccxccxcxccccckckccckjfpuee",
"0euyfkccccccccxccccccccccccccxccvccvccccccccxcccccccccccccklpe0e",
"eeepjccvvvccccccccvvvvccccccccccvvvvvvcvccvvcvvcccvcvvvvvvzliuee",
"9eepfxccvvvcccvvcccvvcccccvccccvvvccvvvcvccvvccccvcvcvvvvvxlpe9e",
"99epfxxxxxkxxxcxxxkkcckkxxcxxxxxxckxcxxxxxxxcxxxcxcxxxczzckfp099",
"889r7fjkfjhfjhjjjffjjfjfjjjfjjffhhhhhhhhjjhhfjfjhhhhhhhhhhhte888",
"8,3qrtyyfyyhyyyyyyfyyyyyfyyyyytyyyyyyyffyyyyyyyf7jf7fyyyyytr9822",
"8,>94rtt7r7777tttttt7tttttttttttttttt77ttttt777t77y7tt77tt774222",
",>234wttrrrr7t7t7tttttttrirrttttttrrttrr7t77ttrr7y77rrrr7t778822",
"8>296rrrrrrry7y7ttt7t7ttrrrrt7ttttr7ttrrttf7ttrry77yrrrrtt779882",
"82244qrrrrrrrrrrrrrrttttrrrtrrrrtrrrrrrtttttrrrr77rrtrrrrr7q0498",
"22236rrrrrrrrrrrirrtt77trtrrrtrrrrrrrrrr7trtrrrtttrtrrrr777r9098",
"822346rr7rrrrrrrrrrrrrttrrrrrrrrrrrrrtrrrrrtrrrr777ttrr7rr790988",
"8>2399q67rrrrrrrrrrrrtttrrrtrrtrrrrrrrrtrrrrrrrrf7ttrr7779994882",
"2>2835qq77rrrrrrrtrr7rrrrtrr7rrrrrrrrrrrrrrrrrrrrrrrrrr7r459832>",
"2>>>399667777r777777777777777777777r777r7777r777r777777694383,>>",
"2%;>23444966666q747747777477477774747477666q6477744766q44483>>>>",
"%%$$>233444444444444444444444444144444444444444444444493333>2>>%",
"%$+%%>223332232422222222222224224222222223243224323232338>,>>>>%",
"%@O#%>222222222222222222222222222222222222222222222222>>>>>22>;%",
"%#@$%>222332322322244224222422242224224222422332233238,,,,,22>%%",
"%%%%>23334444444444444444444444441444444444444444444535888,2222%",
"2%%:2244447474777477474747477477777477477747474774774744444222%2",
"82222947777777777777r7r777r77777777777777777777r777777770442222%",
"2222444r7rrrrrrtrrrrrrtrrrrrrrrr7rrrrrrrrrrtrrtrrrrrrrrr74422;%%",
"822279977rrrrrrrrrrrrrrrrrrrrrrrrrrrrrrrtrrrrrrrrrrrrrr47744;%%%",
"2>2847777rrrrrrrrrrrtrrrrrrrtttrrrrrrrrrrrtrrrttrrrrrr7rr61<*##$",
"8>>844rrrrrrrrtrrrrrrrrtrrrr7tttrrrrrrrrrrrrrrttrrrrrrrrr71<&++#",
"2%%227rrr7rrrrrrrrrtirrrrrrr77ttrrrrrrrrrrrrrrttrrrrrrrrrq6<-+++",
"%%%*1704rrrrrrrrrrrrrrrrrrrr7ft7rrrrrrrrrtrrrrttrrrrrrrrr643;%@%",
"%%#%<44r7rrrrr77rrrrrrrr7777y77trrrttttttrrtttttt7t7rrrwq443:;%$",
"%++%*49477777777777177r171777771r77717771777t1717777r7664943>;%%",
"%#+%:334744411111111111111111111111111111111111111111qq94332%%%@",
";%%%>33344112*%***********************************%<<493422>%%$@",
">%%%>>>2222;*#######O#####+###++OO######OO#########*:>232>>%%@+@",
"2>>>>>>>:2;%#O#XXOXOXOXXOoXXoooXXOOOXXOXOOXXOXOOOX+$-:2>>>;%$O++",
">>%>>;>,222%*#####O#####@OOX...XOO#O###############*;>>8>>>%%O+@",
"%$$%;>3341211=**********&$$@oXXO##*%***************:<33332>%%%@$",
"%++%;,,,555555:5:55=<5<====@@oXO@=::=:5:<=5=5:::1<<155959,:,;;-@",
"%+O$*,55qwwww566665www6555:&#oo@;::5ww56www5www54766qw55555,,;-$",
"$OO#*:5q56w66w66w6w6www555:*$oo@;:556w6www5wwwww66665ww5q,,,>%%@",
"$Oo$;5556w6www67ww6ww5w5w5,:#oo@:,565wwwwwwwwww67777wwwq5q5:;@@+",
"$O+$<<666wwwwww6ww6wwwwww55=&oO&:5666wwwwwwww6www6ww6wwwq65:&#OO",
"%OX$<<66w6w66w5w6w66w5w5ww5=&oo&=56w6w6ww<www56ww66w665www5:$+XO",
"%XO$*666666666w6q55q5wwwq55:&OO#:56w6w665w<wwq5w6w6w6wwq56<;$O..",
"%XO$*344555555555q55q555855*#oo&=,55555555555q565555555555<*@X..",
"&Oo@=5,5,5,5,5,w555555555<:;@OO@::55,5555555,5,5555,555553,*@o  ",
"$Oo@&:,,:,,:,5:::,,:,,,,,,:&+OO@&::,,::,,:,:,,:,,:,,,,:,:,:&@o. ",
"$O++@=;;:=;=;=::&;;;::=***;&+O.+@;:*=:::&;;;=*=::=*;=*;*;*&&+X..",
"%O.o+@@@&&@@@&&@&@&$@@@@-@@+O.OO@@@&@&@@&&@&&&@@&@&&@@$$&&@@oX. ",
"$O..OO+O++++oo@o+O+O+O+O++Oo...OO+OO@@++OO+O+O++++++OO@++OOXX...",
"%O.....OO.O.oo.oX.XXXO.O.O. ......XO...oXXXXXXX.o.o.X.X.XX......",
"$O.. ....... .......   . ....... ....   ....  .... ..... .......",
"%X....  .. .................... ........... ....... ....... ...."
};
