/* XPM */
static char *Resize_image_project__1__11_64x611745331372[] = {
/* columns rows colors chars-per-pixel */
"64 61 68 1 ",
"  c #4739A8",
". c #4739AA",
"X c #473BAB",
"o c #483AA9",
"O c #4938AA",
"+ c #483AAB",
"@ c #4C3BAB",
"# c #4B3EAA",
"$ c #483AAC",
"% c #493BAC",
"& c #493BAD",
"* c #483CAC",
"= c #493DAD",
"- c #4B3DAC",
"; c #4B3DAE",
": c #4C3EAD",
"> c #4D3FAE",
", c #4D3FB0",
"< c #4E41AD",
"1 c #4F42AC",
"2 c #4C40AE",
"3 c #4E40AF",
"4 c #4F42AE",
"5 c #5043AF",
"6 c #5245AF",
"7 c #5346AF",
"8 c #5346B0",
"9 c #5346B2",
"0 c #5447B1",
"q c #5348B1",
"w c #584CB2",
"e c #594DB3",
"r c #5C4DB4",
"t c #5D4EB5",
"y c #5C50B4",
"u c #5E52B6",
"i c #C8C2E4",
"p c #C9C3E5",
"a c #D0CBE9",
"s c #D1CCEC",
"d c #D6D4EC",
"f c #D9D5EC",
"g c #E3E2F2",
"h c #E4E1F2",
"j c #E5E2F3",
"k c #ECEAF5",
"l c #EDEBF6",
"z c #EEECF7",
"x c #EDEBF8",
"c c #EFEDF8",
"v c #EFEDFA",
"b c #F0EEF9",
"n c #F2F1F9",
"m c #F4F3F9",
"M c #F4F3FB",
"N c #F6F5FB",
"B c #F5F6FB",
"V c #F9F9FB",
"C c #FAFAFC",
"Z c #FBFBFD",
"A c gray99",
"S c #FDFDFD",
"D c #FFFFFD",
"F c #FCFCFE",
"G c #FEFEFE",
"H c #FFFEFF",
"J c #FEFFFF",
"K c white",
/* pixels */
"++++++++++++++++++++++++++++++++++++++++++++++++++++++++++++++++",
"++++++++++++++++++++++++++++++++++++++++++++++++++++++++++++++++",
"++++++++++++++++++++++++++++++++++++++++++++++++++++++++++++++++",
"++++++++++++++++++++++++++++++++++++++++++++++++++++++++++++++++",
"++++++++++++++++++++++++++++++++++++++++++++++++++++++++++++++++",
"++++++++++++++++++++++++++++++++++++++++++++++++++++++++++++++++",
"++++++++++++++++++++++++++++++++++++++++++++++++++++++++++++++++",
"++++++++++++++++++++++++++++++++++++++++++++++++++++++++++++++++",
"++++++++++++++++++++++++++++++++++++++++++++++++++++++++++++++++",
"++++++++++++++++++++++++++++++++++++++++++++++++++++++++++++++++",
"++++++++++++++++++++++++++++++++++++++++++++++++++++++++++++++++",
"++++++++++++++++++++++++++++++++++++++++++++++++++++++++++++++++",
"++++++++++++++++++++++++++++++++++++++++++++++++++++++++++++++++",
"++++++++++++++++*+++$++++++++++++++++++%+%++++++++++++++++++++++",
"++++++++++++++++$+O+++++++++++++++++++++++++X$++++++++++++++++++",
"++++++++++++++%+5dghhhhhhhhhhhhhhhhhhhhhhhhhhf5X++++++++++++++++",
"++++++++++++++++0lKKKKKKKKKKKKKKKKKKKKKKKKKKKl0+++++++++++++++++",
"++++++++++++%++$8lKKKKKKKKKKKKKKKKKKKKKKKKKKKl8X++++++++++++++++",
"+++++++++++o+++$8lKKKKKKKKKKKKKKKKKKKKKKKKKKKc0+++++++++++++++++",
"++++++++++++++%$0zKKKKKKKKKKKKKKKKKKKSKKKKKKKc0+++++++++++++++++",
"++++++++++++++++7zKKKKCaiiiiiiiiiiiippiaVKKKKb0+++++++++++++++++",
"++++++++++++++++8zKKKKNu555511111351151emKKKKc0+++++++++++++++++",
"++++++++++++++++8zKKKKmw+++++$$++$$++++wmKKKKc0+++++++++++++++++",
"++++++++++++++++8zKKKKmw*++++$+++++++++wmKKKKc0+++++++++++++++++",
"++++++++++++++++8zKKKKmw+++++++++++++++wmKKKKc0+++++++++++++++++",
"++++++++++++++++8zKKKKmw+++++++++++++$.wmKKKKc0+++++++++++++++++",
"++++++++++++++++8zKKKKmw++++++++++++$$.wbKKKKc0+++++++++++++++++",
"++++++++++++++++8zKKKKmw+++++++++++++XOwmKKKKc0+++++++++++++++++",
"++++++++++++++++8zKKKKme$++++++++++++XXwbKKKKc0+++++++++++++++++",
"++++++++++++++++8lKKKKmw+++++++++++++++wbKKKKz0+++++++++++++++++",
"++++++++++++++++8cKKKKmw+++++++++++++++wmKKKKb0+++++++++++++++++",
"++++++++++++++++8cKKKKme*++++++++++++++wmKKKKz0+++++++++++++++++",
"++++++++++++++++8lKKKKNw+++++++++++++++wmKKKKb0+++++++++++++++++",
"++++++++++++++++8lKKKKmr%++++++++++++$.wmKKKKz0+++++++++++++++++",
"++++++++++++++++8cKKKKmw++++++++++++$$.wbKKKKb0+++++++++++++++++",
"++++++++++++++++8lKKKKmw*++++++++++++XOwmKKKKb0+++++++++++++++++",
"++++++++++++++++8cKKKKmw+++++++++++++XXwbKKKKc7+++++++++++++++++",
"+++++++++++++o++7cKKKKNr%-1*:----:%:*:@rmKKKKl0+++++++++++++++++",
"++++++++++++++++7lKSKKKAVVVCCVZZVCVCCZVCKKKKKb0+++++++++++++++++",
"+++++++++++++X++8lKKKKKKKKKKKKKKKKKKKKKKKKKKKc0+$+++++++++++++++",
"++++++++++++++++7lKKKKKKKKKKKKKKKKKKKKKKKKKKKc0+$+++++++++++++++",
"++++++++++++++++8lKKKKKKKKKKKKKKKKKKKKKKKKKKKb0+++++++++++++++++",
"++++++++++++++++8cKKKKKKKKKKKKKKKKKKKKKKKKKKKb0+++++++++++++++++",
"+++++++++++X++++7lCCCCKCKAAKCCKKCKCCZZKCKCKZKl0+++++++++++++++++",
"+++++++++++X+++X$*1,31:,:,3::,3:::::1:3:,:,::**+++++++++++++++++",
"++++++++++++++++++++++++++++++++++++++++++++++++++++++++++++++++",
"++++++++++++++++++++++++++++++++++++++++++++++++++++++++++++++++",
"++++++++++++++++++++++++++++++++++++++++++++++++++++++++++++++++",
"++++++++++++++++++++++++++++++++++++++++++++++++++++++++++++++++",
"++++++++++++++++++++++++++++++++++++++++++++++++++++++++++++++++",
"++++++++++++++++++++++++++++++++++++++++++++++++++++++++++++++++",
"++++++++++++++++++++++++++++++++++++++++++++++++++++++++++++++++",
"++++++++++++++++++++++++++++++++++++++++++++++++++++++++++++++++",
"++++++++++++++++++++++++++++++++++++++++++++++++++++++++++++++++",
"++++++++++++++++++++++++++++++++++++++++++++++++++++++++++++++++",
"++++++++++++++++++++++++++++++++++++++++++++++++++++++++++++++++",
"++++++++++++++++++++++++++++++++++++++++++++++++++++++++++++++++",
"++++++++++++++++++++++++++++++++++++++++++++++++++++++++++++++++",
"++++++++++++++++++++++++++++++++++++++++++++++++++++++++++++++++",
"++++++++++++++++++++++++++++++++++++++++++++++++++++++++++++++++",
"++++++++++++++++++++++++++++++++++++++++++++++++++++++++++++++++",
};
