/* XPM */
static char *Resize_image_project__1__2_64x611745331371[] = {
/* columns rows colors chars-per-pixel */
"64 61 85 1 ",
"  c #4739AA",
". c #4739AB",
"X c #473BAB",
"o c #4A39A9",
"O c #483AA9",
"+ c #493BAA",
"@ c #483AAB",
"# c #483AAC",
"$ c #493BAC",
"% c #493BAD",
"& c #493DAD",
"* c #4B3DAC",
"= c #4B3FAD",
"- c #4C3EAD",
"; c #4D3FAE",
": c #4F42AC",
"> c #4F42AE",
", c #5043AF",
"< c #5343AE",
"1 c #5144AE",
"2 c #5245AF",
"3 c #5042B1",
"4 c #5245B1",
"5 c #5346B0",
"6 c #5247B0",
"7 c #5548B1",
"8 c #5449B1",
"9 c #574DB0",
"0 c #584CB0",
"q c #584CB2",
"w c #5A4EB2",
"e c #584BB4",
"r c #5A4EB4",
"t c #5D51B3",
"y c #5D53B3",
"u c #5E53B3",
"i c #5E52B4",
"p c #6157B7",
"a c #6257B7",
"s c #6158B5",
"d c #655AB8",
"f c #675EBB",
"g c #685DBB",
"h c #6B5EBA",
"j c #685DBD",
"k c #6D63BA",
"l c #6D63BC",
"z c #6E63BF",
"x c #6E64BD",
"c c #7167BE",
"v c #7268BF",
"b c #7268C1",
"n c #746AC0",
"m c #7A6EC2",
"M c #7B6FC3",
"N c #7B6FC5",
"B c #7B72C5",
"V c #7C70C4",
"C c #857AC6",
"Z c #958BD0",
"A c #C7C1E3",
"S c #C7C3E4",
"D c #C5C4E4",
"F c #C8C4E5",
"G c #D2CFEA",
"H c #D2D2EA",
"J c #D4D2EA",
"K c #D6D4EC",
"L c #D9D6EB",
"P c #DCD9EE",
"I c #DEDDEF",
"U c #DEDCF1",
"Y c #DFDEF0",
"T c #F2F1F9",
"R c #F3F2FA",
"E c #F4F3F8",
"W c #F4F3F9",
"Q c #F6F3FA",
"! c #F5F4FA",
"~ c #F6F5FB",
"^ c #FFFFFD",
"/ c #FEFEFE",
"( c #FFFEFF",
") c #FEFFFF",
"_ c white",
/* pixels */
"@@@@@@@@@@@@@@@@@@@@@@@@@@@@@@@@@@@@@@@@@@@@@@@@@@@@@@@@@@@@@@@@",
"@@@@@@@@@@@@@@@@@@@@@@@@@@@@@@@@@@@@@@@@@@@@@@@@@@@@@@@@@@@@@@@@",
"@@@@@@@@@@@@@@@@@@@@@@@@@@@@@@@@@@@@@@@@@@@@@@@@@@@@@@@@@@@@@@@@",
"@@@@@@@@@@@@@@@@@@@@@@@@@@@@@@@@@@@@@@@@@@@@@@@@@@@@@@@@@@@@@@@@",
"@@@@@@@@@@@@@@@@@@@@@@@@@@@@@@@@@@@@@@@@@@@@@@@@@@@@@@@@@@@@@@@@",
"@@@@@@@@@@@@@@@@@@@@@@@@@@@@@@@@@@@@@@@@@@@@@@@@@@@@@@@@@@@@@@@@",
"@@@@@@@@@@@@@@@@@@@@@@@@@@@@@@@@@@@@@@@@@@@@@@@@@@@@@@@@@@@@@@@@",
"@@@@@@@@@@@@@@@@@@@@@@@@@@@@@@@@@@@@@@@@@@@@@@@@@@@@@@@@@@@@@@@@",
"@@@@@@@@@@@@@@@@@@@@@@@@@@@@@@@@@@@@@@@@@@@@@@@@@@@@@@@@@@@@@@@@",
"@@@@@@@@@@@@@@@@@@@@@@@@@@@@@@@@@@@@@@@@@@@@@@@@@@@@@@@@@@@@@@@@",
"@@@@@@@@@@@@@@@@@@@@@@@@@@@@@@@@@@@@@@@@@@@@@@@@@@@@@@@@@@@@@@@@",
"@@@@@@@@@@@@@@@@@@@@@@@@@@@@@@@@@@@@@@@@@@@@@@@@@@@@@@@@@@@@@@@@",
"@@@@@@@@@@@@@@@@@@@@@@@@@@@@@@@@@@@@@@@@@@@@@@@@@@@@@@@@@@@@@@@@",
"@@@@@@@@@@@@@@@@@@@@@@@@@@@@@@@@@@@@@@@@@@@@@@@@@@@@@@@@@@@@@@@@",
"@@@@@@@@@@@@@@@@@@@@@@@@@@@@@@ #@@@@@@@@@@@@@@@@@@@@@@@@@@@@@@@@",
"@@@@@@@@@@@@@@@@@@@@@@@@@@@@@@# @@@@@@@@@@@@@@@@@@@@@@@@@@@@@@@@",
"@@@@@@@@@@@@@@@@@#@@@@@@@@@X @##@@##@ #@@@@@@@@@@@@@@@@@@@@@@@@@",
"@@@@@@@@@@@@@@@@@@@@@@@@@@<qiiiiuuiiy;@@@@@@@@@@@@@@@@@@@@@@@@@@",
"@@@@@@@@@@@@@@@@@@@@@@@@@@jE^^^^^^^^^e#@@@@@@@@@@@@@@@@@@@@@@@@@",
"@@@@@@@@@@@@@@@@@@@@@@@ @@gE^^^^^^^^^qX @@@@@@@@@@@@@@@@@@@@@@@@",
"@@@@@@@@@@@@@@@@@@@@@@@@@@gE^^^^^^^^^r  @@@@@@@@@@@@@@@@@@@@@@@@",
"@@@@@@@@@@@@@@@@@@@@@@@@@@g!^^^^^^^^^q# @@@@@@@@@@@@@@@@@@@@@@@@",
"@@@@@@@@@@@@@@@@@@@@;dbvcbBGJJJY^^^^^q@ @@@@@@@@@@@@@@@@@@@@@@@@",
"@@@@@@@@@@@@@@@@@@@@<L!!!!Pr361v^^^^^q@@@@@@@@@@@@@@@@@@@@@@@@@@",
"@@@@@@@@@@@@@@@@@#@@6U^^^^U6 @@l^^^^^9##@@@@@@@@@@@@@@@@@@@@@@@@",
"@@@@@@@@@@@@@@@@@@@@6U^^^^U6@@ l^^^^^e@#@@@@@@@@@@@@@@@@@@@@@@@@",
"@@@@@@@@@@@@@@@@@@@@6U^^^^U6@@@l^^^^^q@@@@@@@@@@@@@@@@@@@@@@@@@@",
"@@@@@@@@@@@@@@@@@@@@1KTTRTK1@@@l^^^^^q@@@@@@@@@@@@@@@@@@@@@@@@@@",
"@@@@@@@@@@@@@@@@@@@+:qaappq: #@l^^^^^9##@@@@@@@@@@@@@@@@@@@@@@@@",
"@@@@@@@@@@@@@@@@@@@@@#@@##@@# @l^^^^^r #@@@@@@@@@@@@@@@@@@@@@@@@",
"@@@@@@@@@@@@@@@@@@@@@@ @# @@ #@l^^^^^q#@@@@@@@@@@@@@@@@@@@@@@@@@",
"@@@@@@@@@@@@@@@@@@@+@@@@##@@# @l^^^^^q@@@@@@@@@@@@@@@@@@@@@@@@@@",
"@@@@@@@@@@@@@@@@@@@@@@ @#@@@@##l^^^^^9##@@ @@@#@*@ #@@@@@@@@@@@@",
"@@@@@@@@@@@@@@@@@@@@@@#@@@@@@@#l^^^^^e  #@@@##@@@@@@@@@@@@@@@@@@",
"@@@@@@@@@@@@@@@@@@@@@@@@@@@@@@@l^^^^^q##@#@@@@@#@@@@ @@@@@@@@@@@",
"@@@@@@@@@@@@@@@@# @@@@@@*@#@@@@l^^^^^q@@@@@@@@@@@@@@@@@@@@@@@@@@",
"@@@@@@@@@@@@@@@@@@@@@@@@#@@@@@@l^^^^^9##@@@@#@@@@@@@@@@@@@@@@@@@",
"@@@@@@@@@@@@@@@@@@@@##@@@@@@@#@k^^^^^e@@# @@@ @@@@@@@@@@@@@@@@@@",
"@@@@@@@@@@@@@@@@@@@@;lNNNNMMNNNZ^^^^^CMMNMNNNNNg+@@@@@@@@@@@@@@@",
"@@@@@@@@@@@@@@@@@@@@6U^^^^^^^^^^^^^^^^^^^^^^^^^A1@@@@@@@@@@@@@@@",
"@@@@@@@@@@@@@@@@@@@@1U^^^^^^^^^^^^^^^^^^^^^^^^^D1@@@@@@@@@@@@@@@",
"@@@@@@@@@@@@@@@@@ @O6U^^^^^^^^^^^^^^^^^^^^^^^^^D<@@@@@@@@@@@@@@@",
"@@@@@@@@@@@@@@@@@@@@6U^^^^^^^^^^^^^^^^^^^^^^^^^S:#@@@@@@@@@@@@@@",
"@@@@@@@@@@@@@@@@@@@@6U^^^^^^^^^^^^^^^^^^^^^^^^^A3*@@@@@@@@@@@@@@",
"@@@@@@@@@@@@@@@@@@@@*39677777779677777777797777<  #@@@@@@@@@@@@@",
"@@@@@@@@@@@@@@@@#@@@####@@@@# #@##@@@@@@# @@..@###@ @@@@@@@@@@@@",
"@@@@@@@@@@@@@@@@@@@@@  #@@@@ #@@#@@@@@@@#@###@@@@@@@@@@@@@@@@@@@",
"@@@@@@@@@@@@@@@@@#@@@# @@@@@@@@@#@@@@@@@@@@@@@@@@@@@@@@@@@@@@@@@",
"@@@@@@@@@@@@@@@@@@@@@@@@@@@@@@@@@@@@@@@@@@@@@@@@@@@@@@@@@@@@@@@@",
"@@@@@@@@@@@@@@@@@@@@@@@@@@@@@@@@@@@@@@@@@@@@@@@@@@@@@@@@@@@@@@@@",
"@@@@@@@@@@@@@@@@@@@@@@@@@@@@@@@@@@@@@@@@@@@@@@@@@@@@@@@@@@@@@@@@",
"@@@@@@@@@@@@@@@@@@@@@@@@@@@@@@@@@@@@@@@@@@@@@@@@@@@@@@@@@@@@@@@@",
"@@@@@@@@@@@@@@@@@@@@@@@@@@@@@@@@@@@@@@@@@@@@@@@@@@@@@@@@@@@@@@@@",
"@@@@@@@@@@@@@@@@@@@@@@@@@@@@@@@@@@@@@@@@@@@@@@@@@@@@@@@@@@@@@@@@",
"@@@@@@@@@@@@@@@@@@@@@@@@@@@@@@@@@@@@@@@@@@@@@@@@@@@@@@@@@@@@@@@@",
"@@@@@@@@@@@@@@@@@@@@@@@@@@@@@@@@@@@@@@@@@@@@@@@@@@@@@@@@@@@@@@@@",
"@@@@@@@@@@@@@@@@@@@@@@@@@@@@@@@@@@@@@@@@@@@@@@@@@@@@@@@@@@@@@@@@",
"@@@@@@@@@@@@@@@@@@@@@@@@@@@@@@@@@@@@@@@@@@@@@@@@@@@@@@@@@@@@@@@@",
"@@@@@@@@@@@@@@@@@@@@@@@@@@@@@@@@@@@@@@@@@@@@@@@@@@@@@@@@@@@@@@@@",
"@@@@@@@@@@@@@@@@@@@@@@@@@@@@@@@@@@@@@@@@@@@@@@@@@@@@@@@@@@@@@@@@",
"@@@@@@@@@@@@@@@@@@@@@@@@@@@@@@@@@@@@@@@@@@@@@@@@@@@@@@@@@@@@@@@@"
};
