/* XPM */
static char *Resize_image_project__1__3_64x611745331371[] = {
/* columns rows colors chars-per-pixel */
"64 61 81 1 ",
"  c #473BA9",
". c #4739AA",
"X c #463AAA",
"o c #473BAB",
"O c #483AA9",
"+ c #4A39AB",
"@ c #493BAA",
"# c #483AAB",
"$ c #483AAC",
"% c #493BAC",
"& c #4B3DAC",
"* c #4B3FAD",
"= c #4C3EAD",
"- c #4D3FAE",
"; c #4A41AE",
": c #4D40AC",
"> c #4F42AE",
", c #5343AE",
"< c #5144AE",
"1 c #5245AF",
"2 c #5346B0",
"3 c #5447B1",
"4 c #5548B1",
"5 c #5548B2",
"6 c #5649B2",
"7 c #5A4EB4",
"8 c #5E4FB4",
"9 c #5D51B3",
"0 c #5C50B4",
"q c #5E52B4",
"w c #5E52B6",
"e c #6054B6",
"r c #6156B6",
"t c #6257B7",
"y c #6358B8",
"u c #6E64BD",
"i c #7467BF",
"p c #7268BF",
"a c #7268C1",
"s c #786CC0",
"d c #7A6EC2",
"f c #7B6FC3",
"g c #7B72C3",
"h c #867BC7",
"j c #897FC6",
"k c #877FC8",
"l c #897FC8",
"z c #8E84C9",
"x c #9086CB",
"c c #938ACD",
"v c #A29DD5",
"b c #A49CD5",
"n c #BDB8E0",
"m c #BDB8E1",
"M c #BEB9E1",
"N c #BFBAE2",
"B c #D3D1E9",
"V c #D4D2EA",
"C c #D5D3EB",
"Z c #DBD9EF",
"A c #E5E2F3",
"S c #EAE8F5",
"D c #EAEAF6",
"F c #EEEDF5",
"G c #EEECF7",
"H c #EDEBF8",
"J c #EFEDF8",
"K c #F2F1F7",
"L c #F2F1F9",
"P c #F2F0FB",
"I c #F6F3FA",
"U c #F5F4F9",
"Y c #F5F4FA",
"T c #F6F5FB",
"R c #FDFDFD",
"E c #FFFFFD",
"W c #FCFCFE",
"Q c #FEFEFE",
"! c #FFFEFF",
"~ c #FEFFFF",
"^ c white",
/* pixels */
"################################################################",
"################################################################",
"################################################################",
"################################################################",
"################################################################",
"################################################################",
"################################################################",
"################################################################",
"################################################################",
"################################################################",
"################################################################",
"################################################################",
"################################################################",
"################################################################",
"################################################################",
"################################################################",
"####################.#########################.#################",
"####################1wqqqqqqqqqqqqqqqqqwq1###$##################",
"###################$b^^^^^^^^^^^^^^^^^^^^j$#####################",
"###################$b^^^^^^^^^^^^^^^^^^^^j######################",
"####################v^E^^^^^^^^^^^^^^^^^^k.$####################",
"################$###b^^E^^^^^^^^^^^^^^^^^l#$$.##################",
"###################.xVVBVVVVVVVVVVVVBVVBBcippau#################",
"####################-11111111111111111211MUUUIJ$################",
"###########################$#############N^^^^U%################",
"#########################################M^^^^U#################",
"##########################$##############M^^^^U#################",
"##############################-,444444444nPPPPD#################",
"##############################3ZAAAAAAAAAzryyrq#################",
"##############################qG^^^^^^^^^l$#####################",
"##############################qG^^^^^^^^^l######################",
"##############################7G^^^^^^^^^j##.###################",
"########################%%..#.qG^^^^^^^^^j######################",
"########################X@GKPKAq444444441=######################",
"#####################O##X;WE^^S7################################",
"########################$;R^^^S7########.#######################",
"####################.####-^^^^S7#########O######################",
"#########################;W^^^S7###############.################",
"####################qffffgR^^^Khffffffffffffgff.################",
"####################b^^^^^^^^^^^^^^^^^^^^^^^^^U#################",
"####################b^^^^^^^^^^^^^^^^^^^^^^^^^U$################",
"####################b^^E^^^^^^^^^^^^^^^^^^E^^^T$################",
"####################b^^^^^^^^^^^^^^^^^^^^^^^^^U#################",
"###################Ob^E^^^^^^^^^^^^^^^^^^^^^^^T#################",
"####################;64444444444444444444444441@################",
"################################################################",
"################################################################",
"###########################################.####################",
"################################################################",
"################################################################",
"################################################################",
"################################################################",
"################################################################",
"################################################################",
"################################################################",
"################################################################",
"################################################################",
"################################################################",
"################################################################",
"################################################################",
"################################################################"
};
