/* XPM */
static char *Resize_image_project__1__4_64x611745331371[] = {
/* columns rows colors chars-per-pixel */
"64 61 53 1 ",
"  c #4739AA",
". c #4739AB",
"X c #473BAB",
"o c #483AA9",
"O c #4938AB",
"+ c #4A39AB",
"@ c #483AAB",
"# c #483AAC",
"$ c #493BAC",
"% c #4B3DAC",
"& c #4F42AE",
"* c #5144AE",
"= c #5245AF",
"- c #5346B0",
"; c #5447B0",
": c #5647B0",
"> c #5747B2",
", c #5548B1",
"< c #5449B1",
"1 c #5748B1",
"2 c #5548B2",
"3 c #574CB4",
"4 c #584CB2",
"5 c #5D51B3",
"6 c #5E52B4",
"7 c #5F53B5",
"8 c #7063BD",
"9 c #7B6FC3",
"0 c #7B6FC5",
"q c #7C70C4",
"w c #B9B3DF",
"e c #D4D2E8",
"r c #D4D2EA",
"t c #D9D5EC",
"y c #DAD7EC",
"u c #DAD6ED",
"i c #DBD7EE",
"p c #DAD6EF",
"a c #E5E3F1",
"s c #E5E2F3",
"d c #E4E3F3",
"f c #E6E3F4",
"g c #EFEDF8",
"h c #F1F0F6",
"j c #F2F1F9",
"k c #F5F4FA",
"l c #F8F7FC",
"z c #F9F9FB",
"x c #FFFFFD",
"c c #FEFEFE",
"v c #FFFEFF",
"b c #FEFFFF",
"n c white",
/* pixels */
"@@@@@@@@@@@@@@@@@@@@@@@@@@@@@@@@@@@@@@@@@@@@@@@@@@@@@@@@@@@@@@@@",
"@@@@@@@@@@@@@@@@@@@@@@@@@@@@@@@@@@@@@@@@@@@@@@@@@@@@@@@@@@@@@@@@",
"@@@@@@@@@@@@@@@@@@@@@@@@@@@@@@@@@@@@@@@@@@@@@@@@@@@@@@@@@@@@@@@@",
"@@@@@@@@@@@@@@@@@@@@@@@@@@@@@@@@@@@@@@@@@@@@@@@@@@@@@@@@@@@@@@@@",
"@@@@@@@@@@@@@@@@@@@@@@@@@@@@@@@@@@@@@@@@@@@@@@@@@@@@@@@@@@@@@@@@",
"@@@@@@@@@@@@@@@@@@@@@@@@@@@@@@@@@@@@@@@@@@@@@@@@@@@@@@@@@@@@@@@@",
"@@@@@@@@@@@@@@@@@@@@@@@@@@@@@@@@@@@@@@@@@@@@@@@@@@@@@@@@@@@@@@@@",
"@@@@@@@@@@@@@@@@@@@@@@@@@@@@@@@@@@@@@@@@@@@@@@@@@@@@@@@@@@@@@@@@",
"@@@@@@@@@@@@@@@@@@@@@@@@@@@@@@@@@@@@@@@@@@@@@@@@@@@@@@@@@@@@@@@@",
"@@@@@@@@@@@@@@@@@@@@@@@@@@@@@@@@@@@@@@@@@@@@@@@@@@@@@@@@@@@@@@@@",
"@@@@@@@@@@@@@@@@@@@@@@@@@@@@@@@@@@@@@@@@@@@@@@@@@@@@@@@@@@@@@@@@",
"@@@@@@@@@@@@@@@@@@@@@@@@@@@@@@@@@@@@@@@@@@@@@@@@@@@@@@@@@@@@@@@@",
"@@@@@@@@@@@@@@@@@@@@@@@@@@@@@@@@@@@@@@@@@@@@@@@@@@@@@@@@@@@@@@@@",
"@@@@@@@@@@@@@@@@@@@@@@@@@@@@@@@@@@@@@@@@@@@@@@@@@@@@@@@@@@@@@@@@",
"@@@@@@@@@@@@@@@@@@@@@@@@@@@@@@@@@@@@@@@@@@@@@@@@@@@@@@@@@@@@@@@@",
"@@@@@@@@@@@@@@@@@@@@@@@@@@@@@@@#@@@@@@@@@@@@@@@@@@@@@@@@@@@@@@@@",
"@@@@@@@@@@@@@@@@@@@@@@@@XX###@##@###@####X##@@@@@@@@@@@@@@@@@@@@",
"@@@@@@@@@@@@@@@@ #@@466666666666666666666666664@@@@@@@@@@@@@@@@@",
"@@@@@@@@@@@@@@@@@@ @uxxxxxxxxxxxxxxxxxxxxxxxxxu#@@@@@@@@@@@@@@@@",
"@@@@@@@@@@@@@@@@@#@#uxxxxxxxxxxxxxxxxxxxxxxxxxu#@@@@@@@@@@@@@@@@",
"@@@@@@@@@@@@@@@@@@@@uxxxxxxxxxxxxxxxxxxxxxxxxxu#@@@@@@@@@@@@@@@@",
"@@@@@@@@@@@@@@@@@@@@uxxxxxxxxxxxxxxxxxxxxxxxxxu#@@@@@@@@@@@@@@@@",
"@@@@@@@@@@@@@@@@@@#@wrrrrrrrrrrrrrrrrrrrrlxxxxu @@@@@@@@@@@@@@@@",
"@@@@@@@@@@@@@@@@@#XX&&--*-*---==*---=====gxxxxu@@@@@@@@@@@@@@@@@",
"@@@@@@@@@@@@@@@@@@@@@@@@@@@@@#@@XX@@@@@@@gxxxxu#@@@@@@@@@@@@@@@@",
"@@@@@@@@@@@@@@@@@@@@@@@@@@@@@##@@#@#@@@@@gxxxxu#@@@@@@@@@@@@@@@@",
"@@@@@@@@@@@@@@@@@@@@@@@@@@@@###X@###X @@#gxxxxu @@@@@@@@@@@@@@@@",
"@@@@@@@@@@@@@@@@@@@@@@@@@%;;;;;2;;;;11112jxxxxu#@@@@@@@@@@@@@@@@",
"@@@@@@@@@@@@@@@@@@@@@@@@@=sfssssssssssssslxxxxu@@@@@@@@@@@@@@@@@",
"@@@@@@@@@@@@@@@@@@@@@@@@@4xxxxxxxxxxxxxxxxxxxxu@@@@@@@@@@@@@@@@@",
"@@@@@@@@@@@@@@@@@@@@@@@@@4xxxxxxxxxxxxxxxxxxxxi@@@@@@@@@@@@@@@@@",
"@@@@@@@@@@@@@@@@@@@@@@@@@3xxxxxxxxxxxxxxxxxxxxu#@@@@@@@@@@@@@@@@",
"@@@@@@@@@@@@@@@@ @@@@@@@X3xxxxxxxxxxxxxxxxxxxxu @@@@@@@@@@@@@@@@",
"@@@@@@@@@@@@@@@@@@@@#@@@X$21-22121;;;;11;jxxxxu#@@@@@@@@@@@@@@@@",
"@@@@@@@@@@@@@@@@@@@@@@@@@#@@X#@@XX#@##XX#gxxxxu#@@@@@@@@@@@@@@@@",
"@@@@@@@@@@@@@@@@@@@@@@@@@@@###@@XX#@@##X#gxxxxu#@@@@@@@@@@@@@@@@",
"@@@@@@@@@@@@@@@@@@@@#@@@@@@@ #@@@@@@@@@@#gxxxxu#@@@@@@@@@@@@@@@@",
"@@@@@@@@@@@@@@@@@@@@X @@@@@   @@@@@@@@@@#gxxxxu@@@@@@@@@@@@@@@@@",
"@@@@@@@@@@@@@@@@@@@@8000q0q00000990000990kxxxxu#@@@@@@@@@@@@@@@@",
"@@@@@@@@@@@@@@@@@@@@uxxxxxxxxxxxxxxxxxxxxxxxxxu#@@@@@@@@@@@@@@@@",
"@@@@@@@@@@@@@@@@@@@@uxxxxxxxxxxxxxxxxxxxxxxxxxu#@@@@@@@@@@@@@@@@",
"@@@@@@@@@@@@@@@@@@@@yxxxxxxxxxxxxxxxxxxxxxxxxxp.@@@@@@@@@@@@@@@@",
"@@@@@@@@@@@@@@@@@@@@pxxxxxxxxxxxxxxxxxxxxxxxxxy@@@@@@@@@@@@@@@@@",
"@@@@@@@@@@@@@@@@@@@@pxxxxxxxxxxxxxxxxxxxxxxxxxy@@@@@@@@@@@@@@@@@",
"@@@@@@@@@@@@@@@@@@#@*;;;122111;;;2;;11;112;;;;=@@@@@@@@@@@@@@@@@",
"@@@@@@@@@@@@@@@@@@@@ @##@@   ##@##@@#X@@XX@@##@@@@@@@@@@@@@@@@@@",
"@@@@@@@@@@@@@@@@@@@@#@#@@@@@X#@@#@@@#@@@X@@@#@@@@@@@@@@@@@@@@@@@",
"@@@@@@@@@@@@@@@@@@@@@@@@@@@@@@@@@@@@@@@@## @@@@@@@@@@@@@@@@@@@@@",
"@@@@@@@@@@@@@@@@@@@@@@@@@@@@@@@@@@@@@@@@@@@@@@@@@@@@@@@@@@@@@@@@",
"@@@@@@@@@@@@@@@@@@@@@@@@@@@@@@@@@@@@@@@@@@@@@@@@@@@@@@@@@@@@@@@@",
"@@@@@@@@@@@@@@@@@@@@@@@@@@@@@@@@@@@@@@@@@@@@@@@@@@@@@@@@@@@@@@@@",
"@@@@@@@@@@@@@@@@@@@@@@@@@@@@@@@@@@@@@@@@@@@@@@@@@@@@@@@@@@@@@@@@",
"@@@@@@@@@@@@@@@@@@@@@@@@@@@@@@@@@@@@@@@@@@@@@@@@@@@@@@@@@@@@@@@@",
"@@@@@@@@@@@@@@@@@@@@@@@@@@@@@@@@@@@@@@@@@@@@@@@@@@@@@@@@@@@@@@@@",
"@@@@@@@@@@@@@@@@@@@@@@@@@@@@@@@@@@@@@@@@@@@@@@@@@@@@@@@@@@@@@@@@",
"@@@@@@@@@@@@@@@@@@@@@@@@@@@@@@@@@@@@@@@@@@@@@@@@@@@@@@@@@@@@@@@@",
"@@@@@@@@@@@@@@@@@@@@@@@@@@@@@@@@@@@@@@@@@@@@@@@@@@@@@@@@@@@@@@@@",
"@@@@@@@@@@@@@@@@@@@@@@@@@@@@@@@@@@@@@@@@@@@@@@@@@@@@@@@@@@@@@@@@",
"@@@@@@@@@@@@@@@@@@@@@@@@@@@@@@@@@@@@@@@@@@@@@@@@@@@@@@@@@@@@@@@@",
"@@@@@@@@@@@@@@@@@@@@@@@@@@@@@@@@@@@@@@@@@@@@@@@@@@@@@@@@@@@@@@@@",
"@@@@@@@@@@@@@@@@@@@@@@@@@@@@@@@@@@@@@@@@@@@@@@@@@@@@@@@@@@@@@@@@"
};
