/* XPM */
static char *Resize_image_project__1__5_64x611745331371[] = {
/* columns rows colors chars-per-pixel */
"64 61 75 1 ",
"  c #4739A8",
". c #4739AA",
"X c #473BAB",
"o c #483AA9",
"O c #483AAB",
"+ c #4A3CAB",
"@ c #483AAC",
"# c #493BAC",
"$ c #493BAD",
"% c #4C3BAD",
"& c #4A3CAD",
"* c #4B3FAD",
"= c #4A3CAE",
"- c #4C3EAD",
"; c #4D3FAE",
": c #4D40AC",
"> c #4E41AD",
", c #4F42AC",
"< c #4C40AE",
"1 c #4E40AF",
"2 c #5144AE",
"3 c #5245AF",
"4 c #5447B0",
"5 c #5447B1",
"6 c #5548B1",
"7 c #5649B2",
"8 c #594DB3",
"9 c #5A4EB2",
"0 c #5A4EB4",
"q c #5B4FB5",
"w c #5C50B4",
"e c #5D53B4",
"r c #5E52B4",
"t c #5D51B7",
"y c #6459B7",
"u c #9990CF",
"i c #988FD0",
"p c #9990D1",
"a c #AFA9D7",
"s c #AEA7DA",
"d c #AEA8D8",
"f c #AFA9D9",
"g c #ADAAD9",
"h c #AFA8DB",
"j c #B0AADA",
"k c #B5AFDF",
"l c #B6B0DE",
"z c #E4E1F2",
"x c #E5E2F3",
"c c #E7E5F3",
"v c #E9E7F4",
"b c #EAE8F3",
"n c #EBE9F4",
"m c #EAE8F5",
"M c #EBE9F6",
"N c #EEECF7",
"B c #EFECF7",
"V c #EEEEF6",
"C c #EFEFF7",
"Z c #EEECF9",
"A c #F3F2F8",
"S c #F9F7FC",
"D c gray98",
"F c #FAFAFC",
"G c #FBFBFD",
"H c gray99",
"J c #FDFDFD",
"K c #FEFCFD",
"L c #FEFEFC",
"P c #FFFFFD",
"I c #FEFEFE",
"U c #FEFEFF",
"Y c #FFFEFF",
"T c #FEFFFF",
"R c white",
/* pixels */
"OOOOOOOOOOOOOOOO#.#.#.#.#.#.#.#.#.#.#.#.#.#.#.#.#.#.#.#.#.#.#.#.",
"OOOOOOOOOOOOOOOO.#.#.#.#.#.#.#.#.#.#.#.#.#.#.#.#.#.#.#.#.#.#.#.#",
"OOOOOOOOOOOOOOOO#.#.#.#.#.#.#.#.#.#.#.#.#.#.#.#.#.#.#.#.#.#.#.#.",
"OOOOOOOOOOOOOOOO.#.#.#.#.#.#.#.#.#.#.#.#.#.#.#.#.#.#.#.#.#.#.#.#",
"OOOOOOOOOOOOOOOO#.#.#.#.#.#.#.#.#.#.#.#.#.#.#.#.#.#.#.#.#.#.#.#.",
"OOOOOOOOOOOOOOOO.#.#.#.#.#.#.#.#.#.#.#.#.#.#.#.#.#.#.#.#.#.#.#.#",
"OOOOOOOOOOOOOOOO#.#.#.#.#.#.#.#.#.#.#.#.#.#.#.#.#.#.#.#.#.#.#.#.",
"OOOOOOOOOOOOOOOO.#.#.#.#.#.#.#.#.#.#.#.#.#.#.#.#.#.#.#.#.#.#.#.#",
"OOOOOOOOOOOOOOOO#.#.#.#.#.#.#.#.#.#.#.#.#.#.#.#.#.#.#.#.#.#.#.#.",
"OOOOOOOOOOOOOOOO.#.#.#.#.#.#.#.#.#.#.#.#.#.#.#.#.#.#.#.#.#.#.#.#",
"OOOOOOOOOOOOOOOO#.#.#.#.#.#.#.#.#.#.#.#.#.#.#.#.#.#.#.#.#.#.#.#.",
"OOOOOOOOOOOOOOOO.#.#.#.#.#.#.#.#.#.#.#.#.#.#.#.#.#.#.#.#.#.#.#.#",
"OOOOOOOOOOOOOOOO#.#.#.#.#.#.#.#.#.#.#.#.#.#.#.#.#.#.#.#.#.#.#.#.",
"OOOOOOOOOOOOOOOO.#.#.#.#.#.#.#.#.#.#.#.#.#.#.#.#.#.#.#.#.#.#.#.#",
"OOOOOOOOOOOOOOOO#.#.#.#.#.#.#.#.#.#.#.#.#.#.#.#.#.#.#.#.#.#.#.#.",
"OOOOOOOOOOOOOOOO.#.#.#.#.#.#.#.#.#.#.#.#.#.#.#.#.#.#.#.#.#.#.#.#",
"OOOOOOOOOOOOOOOOO#OOOOOO..@.#.#.OOOOOOOOOOOO.##.#.#.#.#.#.#.#.#.",
"OOOOOOOOOOOOOOOOOOO3tter9;.##..@OOOOOOO+6rtte0<@.#.#.#.#.#.#.#.#",
"OOOOOOOOOOOOOOOOOO&pFPPPNrOO.#.#OOOOOO#&aPPPPm0.#.#.#.#.#.#.#.#.",
"OOOOOOOOOOOOOOOO#O&pFPPPNqOO#.#.OOOOOO.;gGPPPm0@.#.#.#.#.#.#.#.#",
"OOOOOOOOOOOOOOOO@#&pFPPPNr..OOOOOOOO#.#;jKPPPm0@#.#.#.#.#.#.#.#.",
"OOOOOOOOOOOOOOOO.#&pFPPPNtOO OOOOOOO.#.1sPPPPm0@.#.#.#.#.#.#.#.#",
"OOOOOOOOOOOOOOOO#.&pFPPPN9OOOOOOO.OO@.@;sPPPPm0@#.#.#.#.#.#.#.#.",
"OOOOOOOOOOOOOOOO##=pFPPPNrOOOO.OO&.+.@@;gKPPPb0..#.#.#.#.#.#.#.#",
"OOOOOOOOOOOOOOOO.##iFPPPZ9OOOOOOOOOOOOO1gPPPPm0.#.#.#.#.#.#.#.#.",
"OOOOOOOOOOOOOOOO#.&pFPPPZtOOOOOOOOOOOO.:jGPPPm0@.#.#.#.#.#.#.#.#",
"OOOOOOOOOOOOOOOO.#&pFPPPNtOOOO@@OOOOO.O1sGPPPm0@#.#.#.#.#.#.#.#.",
"OOOOOOOOOOOOOOOO##&pFPPPNy66655566666659kPPPPm0@.#.#.#.#.#.#.#.#",
"OOOOOOOOOOOOOOOO.#&pFPPPDZxxxzxxxxxxxxxcAPPPPm0@#.#.#.#.#.#.#.#.",
"OOOOOOOOOOOOOOOO#.&pFPPPPPPPPPPPPPPPPPPPPPPPPm9#.#.#.#.#.#.#.#.#",
"OOOOOOOOOOOOOOOO.##pFPPPPPPPPPPPPPPPPPPPPPPPPm0.#.#.#.#.#.#.#.#.",
"OOOOOOOOOOOOOOOO#.#pFPPPPPPPPPPPPPPPPPPPPPPPPm0#.#.#.#.#.#.#.#.#",
"OOOOOOOOOOOOOOOOOO%iFPPPPPPPPPPPPPPPPPPPPPPPPv0@.#.#.#.#.#.#.#.#",
"OOOOOOOOOOOOOOOOOOO155666666666566665660kPPPPm0@#.#.#.#.#.#.#.#.",
"OOOOOOOOOOOOOOOOOOOO##OO#@#.#@.##.#.@.#;gPPPPv0@.#.#.#.#.#.#.#.#",
"OOOOOOOOOOOOOOOOOOOOOOOO.@.#.@#.@@.#.@#;hFPPPv0@#.#.#.#.#.#.#.#.",
"OOOOOOOOOOOOOOOOOOOOOOOO#.#..#.#OOOO#.#&sPPPPm0..#.#.#.#.#.#.#.#",
"OOOOOOOOOOOOOOOOOOOOOOOO.#.##.#.OOOO.#O1sKPPPm0@#.#.#.#.#.#.#.#.",
"OOOOOOOOOOOOOOOOOOOO#O#.#.#..#.#OOOOOOO;gPPPPm9..#.#.#.#.#.#.#.#",
"OOOOOOOOOOOOOOOO+OOOO.@#.#.##.#.OOOOOOO;sPPPPM0.#.#.#.#.#.#.#.#.",
"OOOOOOOOOOOOOOOOOOOOOOOO.#.#.#.#OOOO.OO:aGPPPm0#.#.#.#.#.#.#.#.#",
"OOOOOOOOOOOOOOOOOOOOOOOO#.#.#.#.OOOOOOO1aPPPPm0@#.#.#.#.#.#.#.#.",
"OOOOOOOOOOOOOOOOOOOOOOOO.#.#.#.#OOOOOOO1gPPPPm0+.#.#.#.#.#.#.#.#",
"OOOOOOOOOOOOOOOOOOOOOOOO#.#.#.#.OOOOOOO;sGPPPm0.#.#.#.#.#.#.#.#.",
"OOOOOOOOOOOOOOOOOOOOOOOO.#.#.#.#OOOOOOO#166663:..#.#.#.#.#.#.#.#",
"OOOOOOOOOOOOOOOOOOOOOOOO#.#.#.#.OOOOOOOOOOOOOOOO#.#.#.#.#.#.#.#.",
"OOOOOOOOOOOOOOOOOOOOOOOO.#.#.#.#OOOOOOOOO.OOOOOO.#.#.#.#.#.#.#.#",
"OOOOOOOOOOOOOOOOOOOOOOOO#.#.#.#.OOOO#OOOOOOO.OOO#.#.#.#.#.#.#.#.",
"OOOOOOOOOOOOOOOO.#.#.#.#.#.#.#.#.#.#.#.#.#.#.#.#.#.#.#.#.#.#.#.#",
"OOOOOOOOOOOOOOOO#.#.#.#.#.#.#.#.#.#.#.#.#.#.#.#.#.#.#.#.#.#.#.#.",
"OOOOOOOOOOOOOOOO.#.#.#.#.#.#.#.#.#.#.#.#.#.#.#.#.#.#.#.#.#.#.#.#",
"OOOOOOOOOOOOOOOO#.#.#.#.#.#.#.#.#.#.#.#.#.#.#.#.#.#.#.#.#.#.#.#.",
"OOOOOOOOOOOOOOOO.#.#.#.#.#.#.#.#.#.#.#.#.#.#.#.#.#.#.#.#.#.#.#.#",
"OOOOOOOOOOOOOOOO#.#.#.#.#.#.#.#.#.#.#.#.#.#.#.#.#.#.#.#.#.#.#.#.",
"OOOOOOOOOOOOOOOO.#.#.#.#.#.#.#.#.#.#.#.#.#.#.#.#.#.#.#.#.#.#.#.#",
"OOOOOOOOOOOOOOOO#.#.#.#.#.#.#.#.#.#.#.#.#.#.#.#.#.#.#.#.#.#.#.#.",
"OOOOOOOOOOOOOOOO.#.#.#.#.#.#.#.#.#.#.#.#.#.#.#.#.#.#.#.#.#.#.#.#",
"OOOOOOOOOOOOOOOO#.#.#.#.#.#.#.#.#.#.#.#.#.#.#.#.#.#.#.#.#.#.#.#.",
"OOOOOOOOOOOOOOOO.#.#.#.#.#.#.#.#.#.#.#.#.#.#.#.#.#.#.#.#.#.#.#.#",
"OOOOOOOOOOOOOOOO#.#.#.#.#.#.#.#.#.#.#.#.#.#.#.#.#.#.#.#.#.#.#.#.",
"OOOOOOOOOOOOOOOO.#.##.#..#.#.#.##.#..#.#.#.##.#..#.#.#.##.#..#.#"
};
