/* XPM */
static char *Resize_image_project__1__6_64x611745331371[] = {
/* columns rows colors chars-per-pixel */
"64 61 53 1 ",
"  c #4739AA",
". c #4739AB",
"X c #473BAB",
"o c #483AA9",
"O c #4A39AB",
"+ c #483AAB",
"@ c #4A39AC",
"# c #483AAC",
"$ c #493BAC",
"% c #4B3DAC",
"& c #4A3CAD",
"* c #4C3EAD",
"= c #4C3EAF",
"- c #4E40AF",
"; c #5144AE",
": c #5245AF",
"> c #5444AF",
", c #5548B1",
"< c #5449B1",
"1 c #574BB1",
"2 c #5548B2",
"3 c #5649B2",
"4 c #574CB2",
"5 c #594AB1",
"6 c #584CB2",
"7 c #584BB4",
"8 c #5A4BB4",
"9 c #5D51B3",
"0 c #5D53B3",
"q c #5E53B3",
"w c #5E52B4",
"e c #5E52B6",
"r c #6D63BA",
"t c #6C62BB",
"y c #6D63BC",
"u c #746AC0",
"i c #766DC0",
"p c #766CC2",
"a c #7B6FC3",
"s c #7C6EC3",
"d c #7C70C4",
"f c #958CCD",
"g c #D4D2EA",
"h c #D5D3EB",
"j c #DFDEF0",
"k c #E4E1F2",
"l c #E5E2F3",
"z c #E6E3F4",
"x c #EEECF7",
"c c #FFFFFD",
"v c #FEFEFE",
"b c #FEFFFF",
"n c white",
/* pixels */
"++++++++++++++++++++++++++++++++++++++++++++++++++++++++++++++++",
"++++++++++++++++++++++++++++++++++++++++++++++++++++++++++++++++",
"++++++++++++++++++++++++++++++++++++++++++++++++++++++++++++++++",
"++++++++++++++++++++++++++++++++++++++++++++++++++++++++++++++++",
"++++++++++++++++++++++++++++++++++++++++++++++++++++++++++++++++",
"++++++++++++++++++++++++++++++++++++++++++++++++++++++++++++++++",
"++++++++++++++++++++++++++++++++++++++++++++++++++++++++++++++++",
"++++++++++++++++++++++++++++++++++++++++++++++++++++++++++++++++",
"++++++++++++++++++++++++++++++++++++++++++++++++++++++++++++++++",
"++++++++++++++++++++++++++++++++++++++++++++++++++++++++++++++++",
"++++++++++++++++++++++++++++++++++++++++++++++++++++++++++++++++",
"++++++++++++++++++++++++++++++++++++++++++++++++++++++++++++++++",
"++++++++++++++++++++++++++++++++++++++++++++++++++++++++++++++++",
"++++++++++++++++++++++++++++++++++++++++++++++++++++++++++++++++",
"++++++++++++++++++++++++++++++++++++++++++++++++++++++++++++++++",
"++++++++++++++++++++++++++++++++++++++++++++++++++++++++++++++++",
"++++++++++++++++++++++++++++++#++++++++++#++++++++++++++++++++++",
"++++++++++++++++++*9wwq999wwwww9wwwwww999ww9w*++++++++++++++++++",
"++++++++++++++++++6nnnnnnnnnnnnnnnnnnnnnnnnnn5X+++++++++++++++++",
"+++++++++++++++++X6nnnnnnnnnnnnnnnnnnnnnnnnnn6++++++++++++++++++",
"+++++++++++++++++X6nnnnnnnnnnnnnnnnnnnnnnnnnn6++++++++++++++++++",
"++++++++++++++++oX6nnnnnnnnnnnnnnnnnnnnnnnnnn5++++++++++++++++++",
"++++++++++++++++oX6nnnnnjhhhhghhhhhghhghghhgh;++++++++++++++++++",
"++++++++++++++++++6nnnnnu;;;;;;;;:;;;;;;;2;;;#++++++++++++++++++",
"++++++++++++++++++5nnnnny#++++++++++++++#+++++++++++++++++++++++",
"++++++++++++++++++1nnnnny+++++X++++++++++++X++++++++++++++++++++",
"++++++++++++++++++5nnnnnrX+++++++++$+X++++##++++++++++++++++++++",
"++++++++++++++++++4nnnnny2212221222>1>2122112%++++++++++++++++++",
"++++++++++++++++++6nnnnnxzkkkkkklklkkkllkkkkk>++++++++++++++++++",
"++++++++++++++++++6nnnnnnnnnnnnnnnnnnnnnnnnnn5++++++++++++++++++",
"++++++++++++++++++6nnnnnnnnnnnnnnnnnnnnnnnnnn6#+++++++++++++++++",
"++++++++++++++++++6nnnnnnnnnnnnnnnnnnnnnnnnnn4++++++++++++++++++",
"++++++++++++++++++5nnnnnnnnnnnnnnnnnnnnnnnnnn6++++++++++++++++++",
"++++++++++++++++#++21:1>21>221>221222>1pnnnnn6++++++++++++++++++",
"++++++++++++++++++##XX++X+++X+++X+++++Xrnnnnn6++++++++++++++++++",
"++++++++++++++++++++++++++++++++X ++++.ynnnnn6++++++++++++++++++",
"++++++++++++++++++++XXX ++++XX++++XX+#+ynnnnn6++++++++++++++++++",
"++++++++++++++++++++XX.X++++XX++++XX+++ynnnnn6++++++++++++++++++",
"++++++++++++++++++*ssdsssssssssssssdsssfnnnnn6++++++++++++++++++",
"++++++++++++++++#+7nnnnnnnnnnnnnnnnnnnnnnnnnn6++++++++++++++++++",
"+++++++++++++++++&4nnnnnnnnnnnnnnnnnnnnnnnnnn1#+++++++++++++++++",
"+++++++++++++++++O7nnnnnnnnnnnnnnnnnnnnnnnnnn7#+++++++++++++++++",
"+++++++++++++++++O5nnnnnnnnnnnnnnnnnnnnnnnnnn1++++++++++++++++++",
"++++++++++++++++++6nnnnnnnnnnnnnnnnnnnnnnnnnn5++++++++++++++++++",
"++++++++++++++++++O212222>122221:1222>1:122>1&++++++++++++++++++",
"++++++++++++++++++++XX++++++ XX+#.+++$+++X++++++++++++++++++++++",
"+++++++++++++++++++ ++++++++++++++++++++++++X+++++++++++++++++++",
"++++++++++++++++++++ ++++++++++++++++++++++.++++++++++++++++++++",
"++++++++++++++++++++++++++++++++++++++++++++++++++++++++++++++++",
"++++++++++++++++++++++++++++++++++++++++++++++++++++++++++++++++",
"++++++++++++++++++++++++++++++++++++++++++++++++++++++++++++++++",
"++++++++++++++++++++++++++++++++++++++++++++++++++++++++++++++++",
"++++++++++++++++++++++++++++++++++++++++++++++++++++++++++++++++",
"++++++++++++++++++++++++++++++++++++++++++++++++++++++++++++++++",
"++++++++++++++++++++++++++++++++++++++++++++++++++++++++++++++++",
"++++++++++++++++++++++++++++++++++++++++++++++++++++++++++++++++",
"++++++++++++++++++++++++++++++++++++++++++++++++++++++++++++++++",
"++++++++++++++++++++++++++++++++++++++++++++++++++++++++++++++++",
"++++++++++++++++++++++++++++++++++++++++++++++++++++++++++++++++",
"++++++++++++++++++++++++++++++++++++++++++++++++++++++++++++++++",
"++++++++++++++++++++++++++++++++++++++++++++++++++++++++++++++++"
};
