/* XPM */
static char *Resize_image_project__1__7_64x611745331371[] = {
/* columns rows colors chars-per-pixel */
"64 61 80 1 ",
"  c #4739AA",
". c #463AAA",
"X c #473BAB",
"o c #483AA9",
"O c #4A39AB",
"+ c #483AAB",
"@ c #483AAC",
"# c #493BAC",
"$ c #4A3CAD",
"% c #4B3FAD",
"& c #4A3CAE",
"* c #4D3FAE",
"= c #4D3FB0",
"- c #4D40AC",
"; c #4E41AD",
": c #4E40AF",
"> c #5144AE",
", c #5245AF",
"< c #5549AF",
"1 c #5447B0",
"2 c #5447B1",
"3 c #5548B1",
"4 c #5649B3",
"5 c #584CB2",
"6 c #594DB3",
"7 c #5A4EB4",
"8 c #5B4FB5",
"9 c #5C50B4",
"0 c #5D51B5",
"q c #5E52B4",
"w c #5C50B6",
"e c #5E52B6",
"r c #655AB8",
"t c #7A6EC2",
"y c #7B6FC3",
"u c #7970C3",
"i c #7E72C4",
"p c #857AC6",
"a c #867EC7",
"s c #8C82C9",
"d c #9990D1",
"f c #9990D3",
"g c #9A91D2",
"h c #AFA9D7",
"j c #AEA8D8",
"k c #AFA9D9",
"l c #ADAAD9",
"z c #B0AADA",
"x c #B4AEDC",
"c c #B6B0DE",
"v c #C5C1E4",
"b c #D2CFEA",
"n c #D5D3E9",
"m c #D4D2EA",
"M c #D4D1EC",
"N c #D6D4EC",
"B c #E3E0F3",
"V c #E5E2F3",
"C c #E7E5F3",
"Z c #EAE8F3",
"A c #EAE8F5",
"S c #EAE8F6",
"D c #EDEBF6",
"F c #EEEDF5",
"G c #EEECF7",
"H c #EDEBF8",
"J c #F1F0F8",
"K c #F3F2F8",
"L c #F4F3F9",
"P c gray98",
"I c #FAFAFC",
"U c #FBFBFD",
"Y c gray99",
"T c #FDFDFD",
"R c #FFFFFD",
"E c #FFFDFE",
"W c #FEFEFE",
"Q c #FFFEFF",
"! c #FEFFFF",
"~ c white",
/* pixels */
"++++++++++++++++++++++++++++++++++++++++++++++++++++++++++++++++",
"++++++++++++++++++++++++++++++++++++++++++++++++++++++++++++++++",
"++++++++++++++++++++++++++++++++++++++++++++++++++++++++++++++++",
"++++++++++++++++++++++++++++++++++++++++++++++++++++++++++++++++",
"++++++++++++++++++++++++++++++++++++++++++++++++++++++++++++++++",
"++++++++++++++++++++++++++++++++++++++++++++++++++++++++++++++++",
"++++++++++++++++++++++++++++++++++++++++++++++++++++++++++++++++",
"++++++++++++++++++++++++++++++++++++++++++++++++++++++++++++++++",
"++++++++++++++++++++++++++++++++++++++++++++++++++++++++++++++++",
"++++++++++++++++++++++++++++++++++++++++++++++++++++++++++++++++",
"++++++++++++++++++++++++++++++++++++++++++++++++++++++++++++++++",
"++++++++++++++++++++++++++++++++++++++++++++++++++++++++++++++++",
"++++++++++++++++++++++++++++++++++++++++++++++++++++++++++++++++",
"++++++++++++++++++++++++++++++++++++++++++++++++++++++++++++++++",
"++++++++++++++++++++++++++++++++++++++++++++++++++++++++++++++++",
"++++++++++++++++++++++++++++++++++++++++++++++++++++++++++++++++",
"++++++++++++++++ #++++++++++++++++++++++++++ ++#++++++++++++++++",
"+++++++++++++++++*5qeeqqqeqqqqqqqqqqqqqeqqee,+++++++++++++++++++",
"++++++++++++++++ 8Z!!!!!!!!!!!!!!!!!!!!!!!!Pd$++++++++++++++++++",
"++++++++++++++++ 8A!!!!!!!!!!!!!!!!!!!!!!!!Ud$ +++++++++++++++++",
"+++++++++++++++++5A!!!!!!!!!!!!!!!!!!!!!!!!Pf#++++++++++++++++++",
"+++++++++++++++++8A!!!!!!!!!!!!!!!!!!!!!!!!If#++++++++++++++++++",
"++++++++++++++++O8Z!!!!DNmmmmmmmmmmmmmmmmmmbp## ++++++++++++++++",
"++++++++++++++++O5Z!!T!x3,,,,,,,,,,,,,,,,,,,*# #++++++++++++++++",
"++++++++++++++++#5D!!!Ej*+++++++++++++++# ## ## ++++++++++++++++",
"+++++++++++++++++8A!!!Pz*+++++++++++++++++   # @++++++++++++++++",
"++++++++++++++++#5A!!!Ek*+++#+++++++++++++++# ##++++++++++++++++",
"+++++++++++++++++8A!!!!x5333331113333333333,*## ++++++++++++++++",
"++++++++++++++++#8A!!!!KZVVVVVVVVVVVVVVVVVVBs#++++++++++++++++++",
"+++++++++++++++++5A!!!!!!!!!!!!!!!!!!!!!!!!Ed$++++++++++++++++++",
"+++++++++++++++++5A!!!!!!!!!!!!!!!!!!!!!!!!Pd$X+++++++++++++++++",
"+++++++++++++++++8A!!!!!!!!!!!!!!!!!!!!!!!!Pd$++++++++++++++++++",
"++++++++++++++++#5A!!!!!!!!!!!!!!!!!!!!!!!!Id$++++++++++++++++++",
"+++++++++++++++++8A!!!!c5333333133<133rJ!!!Id$++++++++++++++++++",
"+++++++++++++++++8A!!!!h*+++++++++++++8J!!!Id$++++++++++++++++++",
"+++++++++++++++++5Z!!TPj=++++++++++#++8Z!!!Id$++++++++++++++++++",
"+++++++++++++++++5D!!!!z=+++++++++++++qF!!!Id$# ++++++++++++++++",
"+++++++++++++++++8A!!!Pz*+++++++++++++8D!!!Id$ #++++++++++++++++",
"++++++++++++++++ 8A!!!!viyyyyyyyytyyyuaL!!!Id$# ++++++++++++++++",
"+++++++++++++++++8A!!!!!!!!!!!!!!!!!!!!!!!!Id$ #++++++++++++++++",
"++++++++++++++++ 8A!!!!!!!!!!!!!!!!!!!!!!!!Pd$  ++++++++++++++++",
"+++++++++++++++++5A!!!!!!!!!!!!!!!!!!!!!!!!Id###++++++++++++++++",
"+++++++++++++++++8A!!!!!!!!!!!!!!!!!!!!!!!!Pf# #++++++++++++++++",
"+++++++++++++++++8A!!!!!!!!!!!!!!!!!!!!!!!!Ef#  ++++++++++++++++",
"+++++++++++++++++*>1,31333333333333333331111>O #++++++++++++++++",
"+++++++++++++++++++++++++++++++++++++++++#++@ # ++++++++++++++++",
"++++++++++++++++++++  #+++++++++++++++++ +++ # @++++++++++++++++",
"+++++++++++++++++++++++#++++++++++++++++++++#  #++++++++++++++++",
"++++++++++++++++++++++++++++++++++++++++++++++++++++++++++++++++",
"++++++++++++++++++++++++++++++++++++++++++++++++++++++++++++++++",
"++++++++++++++++++++++++++++++++++++++++++++++++++++++++++++++++",
"++++++++++++++++++++++++++++++++++++++++++++++++++++++++++++++++",
"++++++++++++++++++++++++++++++++++++++++++++++++++++++++++++++++",
"++++++++++++++++++++++++++++++++++++++++++++++++++++++++++++++++",
"++++++++++++++++++++++++++++++++++++++++++++++++++++++++++++++++",
"++++++++++++++++++++++++++++++++++++++++++++++++++++++++++++++++",
"++++++++++++++++++++++++++++++++++++++++++++++++++++++++++++++++",
"++++++++++++++++++++++++++++++++++++++++++++++++++++++++++++++++",
"++++++++++++++++++++++++++++++++++++++++++++++++++++++++++++++++",
"++++++++++++++++++++++++++++++++++++++++++++++++++++++++++++++++",
"++++++++++++++++++++++++++++++++++++++++++++++++++++++++++++++++"
};
