/* XPM */
static char *Resize_image_project__1__8_64x611745331371[] = {
/* columns rows colors chars-per-pixel */
"64 61 76 1 ",
"  c #4739AA",
". c #4739AB",
"X c #473BAB",
"o c #483AA9",
"O c #4A39AB",
"+ c #493BAA",
"@ c #483AAB",
"# c #4A39AC",
"$ c #483AAC",
"% c #493BAC",
"& c #493BAD",
"* c #4B3DAC",
"= c #4A3CAD",
"- c #493CAE",
"; c #503FAF",
": c #4F42AE",
"> c #5043AF",
", c #5144AE",
"< c #5245AF",
"1 c #5245B1",
"2 c #5346B0",
"3 c #5346B2",
"4 c #5447B1",
"5 c #5548B1",
"6 c #5748B1",
"7 c #574BB1",
"8 c #5548B2",
"9 c #594AB1",
"0 c #584CB2",
"q c #594DB3",
"w c #584BB4",
"e c #5A4EB4",
"r c #5D51B3",
"t c #5D51B5",
"y c #5E52B4",
"u c #6156B6",
"i c #6257B7",
"p c #6358B8",
"a c #655AB8",
"s c #685DBB",
"d c #695EBC",
"f c #6B60BC",
"g c #7B6FC3",
"h c #857AC6",
"j c #B9B4DD",
"k c #C6C2E5",
"l c #CAC6E7",
"z c #CDCAE7",
"x c #CECBE8",
"c c #D2CDEB",
"v c #D4D2EA",
"b c #D4D1EC",
"n c #DAD7EC",
"m c #DAD6ED",
"M c #DBD7EE",
"N c #DEDDEF",
"B c #DEDCF1",
"V c #E5E3F1",
"C c #E5E2F3",
"Z c #E8E6F4",
"A c #EAE8F6",
"S c #EBE9F6",
"D c #EFEDF8",
"F c #F0F0F8",
"G c #F3F0F9",
"H c #F2F1F9",
"J c #F3F2F8",
"K c #F4F3F9",
"L c #F5F4FA",
"P c #F8F7FC",
"I c #FEFEFC",
"U c #FEFFFD",
"Y c #FFFFFD",
"T c #FEFEFE",
"R c #FFFEFF",
"E c white",
/* pixels */
"@@@@@@@@@@@@@@@@@@@@@@@@@@@@@@@@@@@@@@@@@@@@@@@@@@@@@@@@@@@@@@@@",
"@@@@@@@@@@@@@@@@@@@@@@@@@@@@@@@@@@@@@@@@@@@@@@@@@@@@@@@@@@@@@@@@",
"@@@@@@@@@@@@@@@@@@@@@@@@@@@@@@@@@@@@@@@@@@@@@@@@@@@@@@@@@@@@@@@@",
"@@@@@@@@@@@@@@@@@@@@@@@@@@@@@@@@@@@@@@@@@@@@@@@@@@@@@@@@@@@@@@@@",
"@@@@@@@@@@@@@@@@@@@@@@@@@@@@@@@@@@@@@@@@@@@@@@@@@@@@@@@@@@@@@@@@",
"@@@@@@@@@@@@@@@@@@@@@@@@@@@@@@@@@@@@@@@@@@@@@@@@@@@@@@@@@@@@@@@@",
"@@@@@@@@@@@@@@@@@@@@@@@@@@@@@@@@@@@@@@@@@@@@@@@@@@@@@@@@@@@@@@@@",
"@@@@@@@@@@@@@@@@@@@@@@@@@@@@@@@@@@@@@@@@@@@@@@@@@@@@@@@@@@@@@@@@",
"@@@@@@@@@@@@@@@@@@@@@@@@@@@@@@@@@@@@@@@@@@@@@@@@@@@@@@@@@@@@@@@@",
"@@@@@@@@@@@@@@@@@@@@@@@@@@@@@@@@@@@@@@@@@@@@@@@@@@@@@@@@@@@@@@@@",
"@@@@@@@@@@@@@@@@@@@@@@@@@@@@@@@@@@@@@@@@@@@@@@@@@@@@@@@@@@@@@@@@",
"@@@@@@@@@@@@@@@@@@@@@@@@@@@@@@@@@@@@@@@@@@@@@@@@@@@@@@@@@@@@@@@@",
"@@@@@@@@@@@@@@@@@@@@@@@@@@@@@@@@@@@@@@@@@@@@@@@@@@@@@@@@@@@@@@@@",
"@@@@@@@@@@@@@@@@@@@@@@@@@@@@@@@@@@@@@@@@@@@@@@@@@@@@@@@@@@@@@@@@",
"@@@@@@@@@@@@@@@@@@@@@@@@@@@@@@@@@@@@@@@@@@@@@@@@@@@@@@@@@@@@@@@@",
"@@@@@@@@@@@@@@@@@@@@@@@@@@@@@@@@@@@@@@@@@@@@@@@@@@@@@@@@@@@@@@@@",
"@@@@@@@@@@@@@@@@$$@@X@@@@@@@@@@@@@@X$@@@@@@@@@@@@@@@@@@@@@@@@@@@",
"@@@@@@@@@@@@@@@@Xqyyyyyyyyyyyyyyyyyyyyyyyyyq@@@@@@@@@@@@@@@@@@@@",
"@@@@@@@@@@@@@@@@$mRRRRRRRRRRRRRRRRRRRRRRRRRM@@@@@@@@@@@@@@@@@@@@",
"@@@@@@@@@@@@@@@@@MRRRRRRRRRRRRRRRRRRRRRRRRRm@@@@@@@@@@@@@@@@@@@@",
"@@@@@@@@@@@@@@@@XmRRRRRRRRRRRRRRIRIRRRRRRRRm@@@@@@@@@@@@@@@@@@@@",
"@@@@@@@@@@@@@@@@@nRRRRRRRRRRRRRRRRRRRRRRRRRm@@@@@@@@@@@@@@@@@@@@",
"@@@@@@@@@@@@@@@@@jvvvvvvvvvvvvvvvvvvvvPRRRRm@@@@@@@@@@@@@@@@@@@@",
"@@@@@@@@@@@@@@@@@:,22,,,2,2,2,,,2,,,,,FRRRRm$@@@@@@@@@@@@@@@@@@@",
"@@@@@@@@@@@@@@@@@@@@@@@@@@@@@@@@++@@@@DRRRRmXX@=@@@@@@@@@@@@@@@@",
"@@@@@@@@@@@@@@@@@@@@@@@@@@@@@@@@@$@@@@DRRRRm@@@@@@@@@@@@@@@@@@@@",
"@@@@@@@@@@@@@@@@@@@@@@@@@@@@@@@@@XX@@@DRRRRn@$@@@@@@@@@@@@@@@@@@",
"@@@@@@@@@@@@@@@@@@@@@@@@@@@@@@@@=23355ZJJJJc@@@@@@@@@@@@@@@@@@@@",
"@@@@@@@@@@@@@@@@@@@@@@@@@@@@@@@@:zCCCVaiuuuq@@@@@@@@@@@@@@@@@@@@",
"@@@@@@@@@@@@@@@@@@@@@@@@@@@@@@@@,NRRRR5X@@@@@@@@@@@@@@@@@@@@@@@@",
"@@@@@@@@@@@@@@@@@@@@@@@@@@@@@@@@5BRRRRq@@@@@@@@@@@@@@@@@@@@@@@@@",
"@@@@@@@@@@@@@@@@@@@@@@@@@@@@@@@@2BRRRRq@@@@@X@@@@@@@@@@@@@@@@@@@",
"@@@@@@@@@@@@@@@@@@@X@@@o@@@@@$$X2BRRRRq@@@@@@@@@@@@@@@@@@@@@@@@@",
"@@@@@@@@@@@@@@@@@@@@@@ @@@$pZJJJSf5555=@@@@@@@@@@@@@@@@@@@@@@@@@",
"@@@@@@@@@@@@@@@@@@@ @@@@+@@sKRRRLs@@@@@@@@@@@@@@@@@@@@@@@@@@@@@@",
"@@@@@@@@@@@@@@@@@@@@@@@@@@@sKRRRLs@@+@@@@@@@@@@@@@@@@@@@@@@@@@@@",
"@@@@@@@@@@@@@@@@@@@@@@@@=$@dKRRRKs@@X@@+@@@@@@@@@@@@@@@@@@@@@@@@",
"@@@@@@@@@@@@@@@@@@@@@@@@@@@sJRRRKs@@@@$@@@@@@@@@@@@@@@@@@@@@@@@@",
"@@@@@@@@@@@@@@@@@@@@@@>gggghlzzzky@@@@X@@@@@@@@@@@@@@@@@@@@@@@@@",
"@@@@@@@@@@@@@@@@@@@@@@9RRRRB2@@@@@@@@@@@@@@@@@@@@@@@@@@@@@@@@@@@",
"@@@@@@@@@@@@@@@@@@@@@@9RRRRB2$X@@@@@@@@@@@@@@@@@@@@@@@@@@@@@@@@@",
"@@@@@@@@@@@@@@@@@  @@@7RRRRB5$@$@@@@@@@@@@@@@@@@@@@@@@@@@@@@@@@@",
"@@@@@@@@@@@@@@@@@@@@@X9RRRRB2@@@@@@@@@@@@@@@@@@@@@@@@@@@@@@@@@@@",
"@@@@@@@@@@@@@@@@@@@@@=7RRRRN2X@@@@@@@@@@@@@@@@@@@@@@@@@@@@@@@@@@",
"@@@@@@@@@@@@@@@@@X@@@@=5555,=@@@@@@@@@@@@@@@@@@@@@@@@@@@@@@@@@@@",
"@@@@@@@@@@@@@@@@@@@@@@@+@@@@@@@@@@@@@@@@@@@@@@@@@@@@@@@@@@@@@@@@",
"@@@@@@@@@@@@@@@@@@@=@@@@@@@@@@@@@@@@@@@@@@@@@@@@@@@@@@@@@@@@@@@@",
"@@@@@@@@@@@@@@@@@@@@@@$@@@@@@@@@@@@@@@@@@@@@@@@@@@@@@@@@@@@@@@@@",
"@@@@@@@@@@@@@@@@@@@@@@@@@@@@@@@@@@@@@@@@@@@@@@@@@@@@@@@@@@@@@@@@",
"@@@@@@@@@@@@@@@@@@@@@@@@@@@@@@@@@@@@@@@@@@@@@@@@@@@@@@@@@@@@@@@@",
"@@@@@@@@@@@@@@@@@@@@@@@@@@@@@@@@@@@@@@@@@@@@@@@@@@@@@@@@@@@@@@@@",
"@@@@@@@@@@@@@@@@@@@@@@@@@@@@@@@@@@@@@@@@@@@@@@@@@@@@@@@@@@@@@@@@",
"@@@@@@@@@@@@@@@@@@@@@@@@@@@@@@@@@@@@@@@@@@@@@@@@@@@@@@@@@@@@@@@@",
"@@@@@@@@@@@@@@@@@@@@@@@@@@@@@@@@@@@@@@@@@@@@@@@@@@@@@@@@@@@@@@@@",
"@@@@@@@@@@@@@@@@@@@@@@@@@@@@@@@@@@@@@@@@@@@@@@@@@@@@@@@@@@@@@@@@",
"@@@@@@@@@@@@@@@@@@@@@@@@@@@@@@@@@@@@@@@@@@@@@@@@@@@@@@@@@@@@@@@@",
"@@@@@@@@@@@@@@@@@@@@@@@@@@@@@@@@@@@@@@@@@@@@@@@@@@@@@@@@@@@@@@@@",
"@@@@@@@@@@@@@@@@@@@@@@@@@@@@@@@@@@@@@@@@@@@@@@@@@@@@@@@@@@@@@@@@",
"@@@@@@@@@@@@@@@@@@@@@@@@@@@@@@@@@@@@@@@@@@@@@@@@@@@@@@@@@@@@@@@@",
"@@@@@@@@@@@@@@@@@@@@@@@@@@@@@@@@@@@@@@@@@@@@@@@@@@@@@@@@@@@@@@@@",
"@@@@@@@@@@@@@@@@@@@@@@@@@@@@@@@@@@@@@@@@@@@@@@@@@@@@@@@@@@@@@@@@"
};
