/* XPM */
static char *Resize_image_project__1__9_64x611745331372[] = {
/* columns rows colors chars-per-pixel */
"64 61 62 1 ",
"  c #4739AA",
". c #4739AB",
"X c #463AAA",
"o c #473BAB",
"O c #483AA9",
"+ c #4A39AB",
"@ c #483AAB",
"# c #4B3FAB",
"$ c #483AAC",
"% c #493BAC",
"& c #4B3FAD",
"* c #4B3FAF",
"= c #4C3EAD",
"- c #4F42AE",
"; c #5245AF",
": c #5346B0",
"> c #5247B0",
", c #5447B0",
"< c #5548B1",
"1 c #574BB1",
"2 c #5548B2",
"3 c #5649B2",
"4 c #584CB2",
"5 c #5D51B3",
"6 c #5E53B3",
"7 c #5C50B4",
"8 c #5E52B4",
"9 c #5F53B5",
"0 c #5E52B6",
"q c #7B6FC1",
"w c #7B6FC3",
"e c #7D6FC4",
"r c #7B72C3",
"t c #A49CD5",
"y c #A49CD7",
"u c #BEB9E1",
"i c #BFBAE2",
"p c #C0BBE3",
"a c #C2BEE3",
"s c #C4C0E5",
"d c #D2CDEB",
"f c #D4D2E8",
"g c #D4D2EA",
"h c #D5D3EB",
"j c #E5E2F3",
"k c #E5E4F4",
"l c #EFEDF8",
"z c #F4F3F9",
"x c #F5F4FA",
"c c #F6F5FA",
"v c #F6F5FB",
"b c #F7F6FC",
"n c #FBFBFD",
"m c #FDFBFE",
"M c #FDFDFD",
"N c #FFFFFD",
"B c #FCFCFE",
"V c #FCFDFF",
"C c #FEFEFE",
"Z c #FFFEFF",
"A c #FEFFFF",
"S c white",
/* pixels */
"@@@@@@@@@@@@@@@@@@@@@@@@@@@@@@@@@@@@@@@@@@@@@@@@@@@@@@@@@@@@@@@@",
"@@@@@@@@@@@@@@@@@@@@@@@@@@@@@@@@@@@@@@@@@@@@@@@@@@@@@@@@@@@@@@@@",
"@@@@@@@@@@@@@@@@@@@@@@@@@@@@@@@@@@@@@@@@@@@@@@@@@@@@@@@@@@@@@@@@",
"@@@@@@@@@@@@@@@@@@@@@@@@@@@@@@@@@@@@@@@@@@@@@@@@@@@@@@@@@@@@@@@@",
"@@@@@@@@@@@@@@@@@@@@@@@@@@@@@@@@@@@@@@@@@@@@@@@@@@@@@@@@@@@@@@@@",
"@@@@@@@@@@@@@@@@@@@@@@@@@@@@@@@@@@@@@@@@@@@@@@@@@@@@@@@@@@@@@@@@",
"@@@@@@@@@@@@@@@@@@@@@@@@@@@@@@@@@@@@@@@@@@@@@@@@@@@@@@@@@@@@@@@@",
"@@@@@@@@@@@@@@@@@@@@@@@@@@@@@@@@@@@@@@@@@@@@@@@@@@@@@@@@@@@@@@@@",
"@@@@@@@@@@@@@@@@@@@@@@@@@@@@@@@@@@@@@@@@@@@@@@@@@@@@@@@@@@@@@@@@",
"@@@@@@@@@@@@@@@@@@@@@@@@@@@@@@@@@@@@@@@@@@@@@@@@@@@@@@@@@@@@@@@@",
"@@@@@@@@@@@@@@@@@@@@@@@@@@@@@@@@@@@@@@@@@@@@@@@@@@@@@@@@@@@@@@@@",
"@@@@@@@@@@@@@@@@@@@@@@@@@@@@@@@@@@@@@@@@@@@@@@@@@@@@@@@@@@@@@@@@",
"@@@@@@@@@@@@@@@@@@@@@@@@@@@@@@@@@@@@@@@@@@@@@@@@@@@@@@@@@@@@@@@@",
"@@@@@@@@@@@@@@@@@@@@@@@@@@@@@@@@@@@@@@@@@@@@@@@@@@@@@@@@@@@@@@@@",
"@@@@@@@@@@@@@@@@@@@@@@@@@@@@@@@@@@@@@@@@@@@@@@@@@@@@@@@@@@@@@@@@",
"@@@@@@@@@@@@@@@@@@@@@@@@@@@@@@@@@@@@@@@@@@@@@@@@@@@@@@@@@@@@@@@@",
"@@@@@@@@@@@@@@@@@@%%@%@@@@@%%@%%@@@@@@@@o@@@@@@@@@@@@@@@@@@@@@@@",
"@@@@@@@@@@@@@@@@o77779667777667776769776666;@@@@@@@@@@@@@@@@@@@@",
"@@@@@@@@@@@@@@@@@vSSSSSSSSSSSSSSSSSSSSSSSSSt@@@@@@@@@@@@@@@@@@@@",
"@@@@@@@@@@@@@@@@@vSSSSSSSSSSSSSSSSSSSSSSmSSt@@@@@@@@@@@@@@@@@@@@",
"@@@@@@@@@@@@@@@@ovSSSSSSSSSSSSSSSSSSSSSSSSSt@@@@@@@@@@@@@@@@@@@@",
"@@@@@@@@@@@@@@@@ovSSSSSSSSSSSSSSSSSSSSSSSSSt@@@@@@@@@@@@@@@@@@@@",
"@@@@@@@@@@@@@@@@ xSSSSlfggggfffffgfffhSSSSSt@@@@@@@@@@@@@@@@@@@@",
"@@@@@@@@@@@@@@@@$vSSSSa;;;::::;;;;;::,nSSSSt@@@@@@@@@@@@@@@@@@@@",
"@@@@@@@@@@@@@@@@@vSSSSu@@@@@@@@@o@@@@=SSSSSt@@@@@@@@@@@@@@@@@@@@",
"@@@@@@@@@@@@@@@@@vSSSSp@@@@@@@@@@@$@@#nSSSSt@@@@@@@@@@@@@@@@@@@@",
"@@@@@@@@@@@@@@@@@xSSSSu@@@@@@@@@@@@@%=nSSSSt@@@@@@@@@@@@@@@@@@@@",
"@@@@@@@@@@@@@@@@@xSSSSs;<<<<<<<<,,,<<<nSSSSt@@@@@@@@@@@@@@@@@@@@",
"@@@@@@@@@@@@@@@@@xSSSSzjjjjjjjjjjjjjjkSSSSSt@@@@@@@@@@@@@@@@@@@@",
"@@@@@@@@@@@@@@@@$vSSSSSSSSSSSSSSSSSSSSSSSSSt@@@@@@@@@@@@@@@@@@@@",
"@@@@@@@@@@@@@@@@@vSSSSSSSSSSSSSSSSSSSSSSSSSt@@@@@@@@@@@@@@@@@@@@",
"@@@@@@@@@@@@@@@@@vSSSSSSSSSSSSSSSSSSSSSSSSSt@@@@@@@@@@@@@@@@@@@@",
"@@@@@@@@@@@@@@@@@vSSSSSSSSSSSSSSSSSSSSSSSSSt@@@@@@@@@@@@@@@@@@@@",
"@@@@@@@@@@@@@@@@@vSSSSa,<<<<<<<<;,<<<4SSSSSt@@@@@@@@@@@@@@@@@@@@",
"@@@@@@@@@@@@@@@@@vSSSSuo@@@@@@@@@@@@o-nMSSSt@@@@@@@@@@@@@@@@@@@@",
"@@@@@@@@@@@@@@@@@vSSSSa@@@@@@@@@@@@@o%mSSSSt@@@@@@@@@@@@@@@@@@@@",
"@@@@@@@@@@@@@@@@@vSSSSp$@@@@@@@@@oo o=SSSSSt@@@@@@@@@@@@@@@@@@@@",
"@@@@@@@@@@@@@@@@@vSSSSu%@@@@$$@@@@ oo%nSSSSt@@@@@@@@@@@@@@@@@@@@",
"@@@@@@@@@@@@@@@@ovSSSSdqwqqwqwwqqeqqqrSSSSSt@@@@@@@@@@@@@@@@@@@@",
"@@@@@@@@@@@@@@@@ovSSSSSSSSSSSSSSSSSSSSSSSSSt@@@@@@@@@@@@@@@@@@@@",
"@@@@@@@@@@@@@@@@oxSSSSSSSSSSSSSSSSSSSSSSSSSt@@@ @@@@@@@@@@@@@@@@",
"@@@@@@@@@@@@@@@@@xSSSSSSSSSSSSSSSSSSSSSSSSSt@@@@@@@@@@@@@@@@@@@@",
"@@@@@@@@@@@@@@@@@vSSSSSSSSSSSSSSSSSSSSSSSSSt@@@@@@@@@@@@@@@@@@@@",
"@@@@@@@@@@@@@@@@ vSSSSSSSSSSSSSSSSSSSSSSSSSt@@@@@@@@@@@@@@@@@@@@",
"@@@@@@@@@@@@@@@@%;<<;<<3<<<<<,,,,,,,<<<<,,<;o@@@@@@@@@@@@@@@@@@@",
"@@@@@@@@@@@@@@@@@@@@@@@@@@@@$@@@$$@@$$@@@@@@@@@@@@@@@@@@@@@@@@@@",
"@@@@@@@@@@@@@@@@@@@@@@@@@@@@@@@@@@@@@@@@@@@@@@ @@@@@@@@@@@@@@@@@",
"@@@@@@@@@@@@@@@@@@@@@@@@@@@@@@@@@@@@@@@@@%@@o@@@@@@@@@@@@@@@@@@@",
"@@@@@@@@@@@@@@@@@@@@@@@@@@@@@@@@@@@@@@@@@@@@@@@@@@@@@@@@@@@@@@@@",
"@@@@@@@@@@@@@@@@@@@@@@@@@@@@@@@@@@@@@@@@@@@@@@@@@@@@@@@@@@@@@@@@",
"@@@@@@@@@@@@@@@@@@@@@@@@@@@@@@@@@@@@@@@@@@@@@@@@@@@@@@@@@@@@@@@@",
"@@@@@@@@@@@@@@@@@@@@@@@@@@@@@@@@@@@@@@@@@@@@@@@@@@@@@@@@@@@@@@@@",
"@@@@@@@@@@@@@@@@@@@@@@@@@@@@@@@@@@@@@@@@@@@@@@@@@@@@@@@@@@@@@@@@",
"@@@@@@@@@@@@@@@@@@@@@@@@@@@@@@@@@@@@@@@@@@@@@@@@@@@@@@@@@@@@@@@@",
"@@@@@@@@@@@@@@@@@@@@@@@@@@@@@@@@@@@@@@@@@@@@@@@@@@@@@@@@@@@@@@@@",
"@@@@@@@@@@@@@@@@@@@@@@@@@@@@@@@@@@@@@@@@@@@@@@@@@@@@@@@@@@@@@@@@",
"@@@@@@@@@@@@@@@@@@@@@@@@@@@@@@@@@@@@@@@@@@@@@@@@@@@@@@@@@@@@@@@@",
"@@@@@@@@@@@@@@@@@@@@@@@@@@@@@@@@@@@@@@@@@@@@@@@@@@@@@@@@@@@@@@@@",
"@@@@@@@@@@@@@@@@@@@@@@@@@@@@@@@@@@@@@@@@@@@@@@@@@@@@@@@@@@@@@@@@",
"@@@@@@@@@@@@@@@@@@@@@@@@@@@@@@@@@@@@@@@@@@@@@@@@@@@@@@@@@@@@@@@@",
"@@@@@@@@@@@@@@@@@@@@@@@@@@@@@@@@@@@@@@@@@@@@@@@@@@@@@@@@@@@@@@@@"
};
