/* XPM */
static char *Resize_image_project__1__10_64x611745331372[] = {
/* columns rows colors chars-per-pixel */
"64 61 72 1 ",
"  c #4739A8",
". c #4739AA",
"X c #483AA9",
"o c #4A39AB",
"O c #493BAA",
"+ c #483AAB",
"@ c #483AAC",
"# c #493BAC",
"$ c #493DAD",
"% c #4B3DAC",
"& c #4A3CAD",
"* c #4F42AE",
"= c #5043AD",
"- c #5043AF",
"; c #5245AF",
": c #5444AF",
"> c #4E42B0",
", c #5042B1",
"< c #5144B0",
"1 c #5245B1",
"2 c #5346B0",
"3 c #5247B0",
"4 c #5447B0",
"5 c #5548B1",
"6 c #5449B1",
"7 c #5548B2",
"8 c #5649B2",
"9 c #574AB3",
"0 c #5D4EB3",
"q c #5D51B5",
"w c #5E52B4",
"e c #5F53B5",
"r c #5E52B6",
"t c #6052B4",
"y c #6355B7",
"u c #695FB8",
"i c #7A6EC2",
"p c #7B6FC3",
"a c #7B6FC5",
"s c #8277C5",
"d c #C7C3E4",
"f c #C7C3E6",
"g c #C5C4E4",
"h c #C8C4E5",
"j c #D4D2E8",
"k c #D4D2EA",
"l c #D4D1EC",
"z c #DAD6ED",
"x c #DBD7EE",
"c c #DFDCEF",
"v c #DEDCF1",
"b c #DEDCF2",
"n c #DFDDF2",
"m c #E2E1F1",
"M c #E3E2F2",
"N c #E5E2F3",
"B c #E7E5F3",
"V c #E9E7F5",
"C c #E9E9F5",
"Z c #EAE8F5",
"A c #EBE9F7",
"S c #ECEAF7",
"D c #F2F1F9",
"F c #F5F4FA",
"G c #F7F6FC",
"H c #FEFEFC",
"J c #FFFFFD",
"K c #FFFDFE",
"L c #FEFEFE",
"P c #FFFEFF",
"I c #FEFFFF",
"U c white",
/* pixels */
"++++++++++++++++++++++++++++++++++++++++++++++++++++++++++++++++",
"++++++++++++++++++++++++++++++++++++++++++++++++++++++++++++++++",
"++++++++++++++++++++++++++++++++++++++++++++++++++++++++++++++++",
"++++++++++++++++++++++++++++++++++++++++++++++++++++++++++++++++",
"++++++++++++++++++++++++++++++++++++++++++++++++++++++++++++++++",
"++++++++++++++++++++++++++++++++++++++++++++++++++++++++++++++++",
"++++++++++++++++++++++++++++++++++++++++++++++++++++++++++++++++",
"++++++++++++++++++++++++++++++++++++++++++++++++++++++++++++++++",
"++++++++++++++++++++++++++++++++++++++++++++++++++++++++++++++++",
"++++++++++++++++++++++++++++++++++++++++++++++++++++++++++++++++",
"++++++++++++++++++++++++++++++++++++++++++++++++++++++++++++++++",
"++++++++++++++++++++++++++++++++++++++++++++++++++++++++++++++++",
"++++++++++++++++++++++++++++++++++++++++++++++++++++++++++++++++",
"++++++++++++++++++++++++++++++++++++++++++++++++++++++++++++++++",
"++++++++++++++++++++++++++++++++++++++++++++++++++++++++++++++++",
"++++++++++++++++++++++++++++++++++++++++++++++++++++++++++++++++",
"++++++++++++++++++@@.+++++++++++@.+.++..++++++++++++++++++++++++",
"+++++++++++++++&5wwwwwwwwwwwwwwwwwwwwwwwww9&++++++++++++++++++++",
"+++++++++++++++,hUUUUUUUUUUUUUUUUUUUUUUUUUn4++++++++++++++++++++",
"+++++++++++++++-dUUUUUUUUUUUUUUUUUUUUUUUUUv:++++++++++++++++++++",
"+++++++++++++++-dUUUUUUUUUUUUUUUUUUUUUUUHHc;++++++++++++++++++++",
"+++++++++++++++-dUUUUUUUUUUUUUUUUUUUUUUUUUv4++++++++++++++++++++",
"+++++++++++++++*dUUUUFzlkkkkkkkkjkkkzDUUUUv<++++++++++++++++++++",
"+++++++++++++++<dUUUUVt;;;;;;;;;;;;:0mUUUUv4++++++++++++++++++++",
"+++++++++++++++-dUUUUB5@++++++++++++:vUUUUv4++++++++++++++++++++",
"+++++++++++++++-dUUUUB5@++++++++++++3vUUUUv<++++++++++++++++++++",
"+++++++++++++++-dUUUUB5@++++++++++++4vUUUUv<++++++++++++++++++++",
"+++++++++++++++-dUUUUSy4555555554455wmUUUUv4++++++++++++++++++++",
"+++++++++++++++-dUHUUFZNNNNNNNNNNNNNVFUUUUv4++++++++++++++++++++",
"+++++++++++++++-dUUUUUUUUUUUUUUUUUUUUUUUUUv<++++++++++++++++++++",
"+++++++++++++++-dUUUUUUUUUUUUUUUUUUUUUUUUUv4++++++++++++++++++++",
"+++++++++++++++-dUUUUUUUUUUUUUUUUUUUUUUUUUv<++++++++++++++++++++",
"+++++++++++++++-fUUUUUUUUUUUUUUUUUUUUUUUUUv4++++++++++++++++++++",
"+++++++++++++++%*5555555555555555;55wmUUUUv<++++++++++++++++++++",
"++++++++++++++++.@++@+++++++++++ +++<vUUUUv4++++++++++++++++++++",
"++++++++++++++++@.++++.+++++++++++++4vUUUUv<++++++++++++++++++++",
"++++++++++++++++@++++++++++++++++@++<vUUUUv4++++++++++++++++++++",
"+++++++++++++++++.++++++++++++++.++.4vUUUUv;++++++++++++++++++++",
"+++++++++++++++%uppppppppppppppppppasZUUUUv;++++++++++++++++++++",
"+++++++++++++++-fUUUUUUUUUUUUUUUUUUUUUUUUUv;++++++++++++++++++++",
"+++++++++++++++-gUUUUUUUUUUUUUUUUUUUUUUUUUv;++++++++++++++++++++",
"+++++++++++++++-gUUUUUUUUUUUUUUUUUUUUUUUUUv3++.+++++++++++++++++",
"+++++++++++++++;gUUUUUUHUUUUUUUUUUUUUUUUUUv3++++++++++++++++++++",
"+++++++++++++++,dUUUHUUUUUUUUUUUUUUUUUUUUUv<++++++++++++++++++++",
"++++++++++++++++-5554555555555555555555555;$..++++++++++++++++++",
"+++++++++++++++++++++++++++++++++++++++++++++@.&++++++++++++++++",
"+++++++++++++++++++&++++++++++++++++++++++.+++++++++++++++++++++",
"+++++++++++++++++++++++++++++++++++++++++.@+++&.++++++++++++++++",
"++++++++++++++++++++++++++++++++++++++++++++++++++++++++++++++++",
"++++++++++++++++++++++++++++++++++++++++++++++++++++++++++++++++",
"++++++++++++++++++++++++++++++++++++++++++++++++++++++++++++++++",
"++++++++++++++++++++++++++++++++++++++++++++++++++++++++++++++++",
"++++++++++++++++++++++++++++++++++++++++++++++++++++++++++++++++",
"++++++++++++++++++++++++++++++++++++++++++++++++++++++++++++++++",
"++++++++++++++++++++++++++++++++++++++++++++++++++++++++++++++++",
"++++++++++++++++++++++++++++++++++++++++++++++++++++++++++++++++",
"++++++++++++++++++++++++++++++++++++++++++++++++++++++++++++++++",
"++++++++++++++++++++++++++++++++++++++++++++++++++++++++++++++++",
"++++++++++++++++++++++++++++++++++++++++++++++++++++++++++++++++",
"++++++++++++++++++++++++++++++++++++++++++++++++++++++++++++++++",
"++++++++++++++++++++++++++++++++++++++++++++++++++++++++++++++++"
};
