/* XPM */
static char *Resize_image_project1745331627[] = {
/* columns rows colors chars-per-pixel */
"64 64 40 1 ",
"  c #483AAB",
". c #493BAC",
"X c #4A3CAC",
"o c #4B3DAC",
"O c #4D3FAD",
"+ c #4D40AD",
"@ c #4D40AE",
"# c #5042AF",
"$ c #5144AF",
"% c #5345B0",
"& c #5346B0",
"* c #5548B1",
"= c #5C4FB4",
"- c #6053B6",
"; c #756BC0",
": c #766BC0",
"> c #8B82CA",
", c #8C83CA",
"< c #8D85CB",
"1 c #9087CC",
"2 c #9088CC",
"3 c #938BCD",
"4 c #A9A2D7",
"5 c #B0AADB",
"6 c #B5AFDD",
"7 c #B6B1DE",
"8 c #B8B3DE",
"9 c #BAB4DF",
"0 c #BBB6E0",
"q c #BCB7E0",
"w c #EDECF7",
"e c #EEEDF7",
"r c #F1F0F8",
"t c #F2F1F9",
"y c #F4F3FA",
"u c #F5F5FB",
"i c #F8F7FC",
"p c #F9F9FC",
"a c #FBFAFD",
"s c #FDFDFE",
/* pixels */
"                                                                ".
"                                                                ",
"                                                                ",
"                                                                ",
"                                                                ",
"                                                                ",
"                                                                ",
"                                                                ",
"                                                                ",
"                                                                ",
"                                                                ",
"                                                                ",
"                                                                ",
"                                                                ",
"                                                                ",
"                                                                ",
"                                        O-----=                 ",
"                                        $iuiuuw                 ",
"                                        &sssssu                 ",
"                                        &sssssu                 ",
"                                        &sssssu                 ",
"                                        &sssssu                 ",
"                                  O5tuuyw&&*&&$                 ",
"                                  O6ssssu                       ",
"                                  O6ssssu                       ",
"                                  @6ssssu                       ",
"                                  O6assst                       ",
"                                  @6ssssu                       ",
"                            O5tuyyt3*&$*$                       ",
"                            @7ssssu3@                           ",
"                            @7ssssa3o                           ",
"                            @7ssssa3o                           ",
"                        XXXX@7asssa3                            ",
"                       o>><<<499q98:.                           ",
"                       ouaaau3@@@@OO                            ",
"                       Oasssp<o                                 ",
"                       Oasssp3o                                 ",
"                       Xasssa<O                                 ",
"                     o Oasssi1o                                 ",
"                 X,,,,,<qq9q8:                                  ",
"                 Xyaiaau&@@@@X                                  ",
"                 XasssssO                                       ",
"                 @asssssO                                       ",
"                 OasssssO                                       ",
"                 oassssaO                                       ",
"                 X909qqqO                                       ",
"                  @O#@@@                                        ",
"                      O                                         ",
"                                                                ",
"                                                                ",
"                                                                ",
"                                                                ",
"                                                                ",
"                                                                ",
"                                                                ",
"                                                                ",
"                                                                ",
"                                                                ",
"                                                                ",
"                                                                ",
"                                                                ",
"                                                                ",
"                                                                ",
"                                                                ",
};
